<svg width="126" height="31" viewBox="0 0 126 31" fill="none" xmlns="http://www.w3.org/2000/svg">
    <path fill-rule="evenodd" clip-rule="evenodd"
          d="M48.1132 14.5533V15.5881H35.9559C36.1234 17.0973 36.6691 18.2724 37.5939 19.1135C38.517 19.9545 39.9187 20.3746 41.7983 20.3746C43.677 20.3746 45.4146 19.8368 47.0112 18.7577H47.1681V21.604C45.404 22.6171 43.3305 23.1241 40.9475 23.1241C38.5646 23.1241 36.6533 22.3745 35.2154 20.8761C33.7766 19.3778 33.0581 17.3508 33.0581 14.7959C33.0581 12.2401 33.6981 10.1325 34.9791 8.47305C36.2601 6.81176 38.1291 5.98157 40.5861 5.98157C43.0422 5.98157 44.9103 6.81176 46.1922 8.47305C47.4723 10.1325 48.1132 12.1596 48.1132 14.5533ZM35.9559 13.1944H45.2471C45.1634 11.6417 44.6529 10.4675 43.7193 9.669C42.7848 8.8714 41.7401 8.47305 40.5861 8.47305C39.4312 8.47305 38.3909 8.8714 37.4679 9.669C36.5431 10.4675 36.0397 11.6417 35.9559 13.1944Z"
          fill="black"/>
    <path d="M64.3011 6.30568L58.0964 14.4555L64.3011 22.8009H60.7112L56.3967 16.9461H56.2389L52.1439 22.8009H48.554L54.7269 14.6502L48.554 6.30568H52.1439L56.3967 12.1922H56.5536L60.7112 6.30568H64.3011Z"
          fill="black"/>
    <path fill-rule="evenodd" clip-rule="evenodd"
          d="M79.4664 20.7956C77.9439 22.3473 76.1648 23.1241 74.1283 23.1241C72.0909 23.1241 70.3277 22.3265 68.8361 20.7304H68.7417V30.24H65.8757V6.30568H68.3953L68.7417 8.37527H68.8361C70.3277 6.78007 72.0909 5.98157 74.1283 5.98157C76.1648 5.98157 77.9439 6.75834 79.4664 8.31099C80.9889 9.86274 81.7497 11.945 81.7497 14.5533C81.7497 17.1625 80.9889 19.2429 79.4664 20.7956ZM68.7417 11.1565C70.1699 9.53953 71.8282 8.73107 73.7184 8.73107C75.2717 8.73107 76.521 9.23806 77.4669 10.2511C78.4111 11.2651 78.8837 12.6992 78.8837 14.5533C78.8837 16.4083 78.4111 17.8415 77.4669 18.8545C76.521 19.8685 75.2717 20.3746 73.7184 20.3746C71.8282 20.3746 70.1699 19.5661 68.7417 17.9492V11.1565Z"
          fill="black"/>
    <path fill-rule="evenodd" clip-rule="evenodd"
          d="M98.285 15.5881V14.5533C98.285 12.1596 97.6441 10.1325 96.3631 8.47305C95.0831 6.81176 93.2141 5.98157 90.7579 5.98157C88.3009 5.98157 86.431 6.81176 85.151 8.47305C83.87 10.1325 83.2299 12.2401 83.2299 14.7959C83.2299 17.3508 83.9493 19.3778 85.3872 20.8761C86.8251 22.3745 88.7364 23.1241 91.1194 23.1241C93.5024 23.1241 95.5768 22.6171 97.3408 21.604V18.7577H97.183C95.5865 19.8368 93.8488 20.3746 91.9701 20.3746C90.0906 20.3746 88.6888 19.9545 87.7649 19.1135C86.841 18.2724 86.2953 17.0973 86.1278 15.5881H98.285ZM86.1278 13.1944H95.419C95.3343 11.6417 94.8256 10.4675 93.892 9.669C92.9566 8.8714 91.9119 8.47305 90.7579 8.47305C89.6022 8.47305 88.5636 8.8714 87.6397 9.669C86.7158 10.4675 86.2115 11.6417 86.1278 13.1944Z"
          fill="black"/>
    <path d="M109.654 5.98157H109.403C106.967 5.98157 104.993 6.94213 103.481 8.86053H103.419V8.37527L103.072 6.30568H100.553V22.8009H103.419V11.61C104.028 10.7255 104.868 10.0366 105.938 9.53953C107.008 9.04432 108.163 8.79535 109.403 8.79535H109.654V5.98157Z"
          fill="black"/>
    <path fill-rule="evenodd" clip-rule="evenodd"
          d="M112.079 8.34268C110.61 9.91706 109.875 11.9876 109.875 14.5533C109.875 17.1199 110.61 19.1895 112.079 20.763C113.549 22.3364 115.497 23.1241 117.922 23.1241C120.347 23.1241 122.3 22.3364 123.78 20.763C125.261 19.1895 126 17.1199 126 14.5533C126 11.9876 125.261 9.91706 123.78 8.34268C122.3 6.76921 120.347 5.98157 117.922 5.98157C115.497 5.98157 113.549 6.76921 112.079 8.34268ZM114.3 18.9686C115.34 19.95 116.553 20.4398 117.938 20.4398C119.324 20.4398 120.536 19.95 121.576 18.9686C122.615 17.9872 123.134 16.5097 123.134 14.537C123.134 12.5643 122.615 11.0922 121.576 10.1217C120.536 9.15205 119.324 8.66679 117.938 8.66679C116.553 8.66679 115.34 9.15205 114.3 10.1217C113.261 11.0922 112.741 12.5643 112.741 14.537C112.741 16.5097 113.261 17.9872 114.3 18.9686Z"
          fill="black"/>
    <path d="M12.7955 6.30113L18.1125 9.45351L12.807 0L7.50506 9.43812L12.7955 6.30113Z" fill="#FA8532"/>
    <path d="M20.2874 13.3274L25.6025 22.7972H14.9369L20.2874 19.6259V13.3274Z" fill="#FA8532"/>
    <path d="M5.30459 13.3555V19.6259L10.6541 22.7972H0L5.30459 13.3555Z" fill="#FA8532"/>
</svg>
