<svg width="249" height="70" viewBox="0 0 249 70" fill="none" xmlns="http://www.w3.org/2000/svg">
<path d="M43.0482 43.644V48H28.4322V43.644H33.5442V32.736C33.3282 33.024 32.9802 33.324 32.5002 33.636C32.0442 33.924 31.5402 34.2 30.9882 34.464C30.4362 34.728 29.8602 34.944 29.2602 35.112C28.6842 35.28 28.1682 35.364 27.7122 35.364V30.864C28.1442 30.864 28.6722 30.732 29.2962 30.468C29.9202 30.18 30.5322 29.844 31.1322 29.46C31.7322 29.076 32.2482 28.704 32.6802 28.344C33.1362 27.96 33.4242 27.66 33.5442 27.444H38.4762V43.644H43.0482ZM44.5653 48C44.5653 46.92 44.6493 45.948 44.8173 45.084C44.9853 44.196 45.2733 43.38 45.6813 42.636C46.1133 41.892 46.6893 41.196 47.4093 40.548C48.1533 39.9 49.0893 39.264 50.2173 38.64C51.2013 38.112 52.0653 37.656 52.8093 37.272C53.5773 36.864 54.2133 36.492 54.7173 36.156C55.2213 35.82 55.6053 35.484 55.8693 35.148C56.1333 34.788 56.2653 34.38 56.2653 33.924C56.2653 33.204 55.9773 32.592 55.4013 32.088C54.8253 31.56 53.9973 31.296 52.9173 31.296C52.3413 31.296 51.8133 31.38 51.3333 31.548C50.8533 31.692 50.3973 31.896 49.9653 32.16C49.5573 32.424 49.1733 32.724 48.8133 33.06C48.4773 33.372 48.1653 33.708 47.8773 34.068L44.7813 30.504C45.0933 30.168 45.5373 29.808 46.1133 29.424C46.6893 29.016 47.3613 28.644 48.1293 28.308C48.9213 27.948 49.7853 27.66 50.7213 27.444C51.6813 27.204 52.7013 27.084 53.7813 27.084C55.0053 27.084 56.0973 27.24 57.0573 27.552C58.0173 27.84 58.8213 28.26 59.4693 28.812C60.1413 29.34 60.6453 29.988 60.9813 30.756C61.3413 31.5 61.5213 32.316 61.5213 33.204C61.5213 34.044 61.3653 34.788 61.0533 35.436C60.7413 36.084 60.3453 36.66 59.8653 37.164C59.3853 37.668 58.8573 38.112 58.2813 38.496C57.7293 38.856 57.1893 39.18 56.6613 39.468C56.2293 39.708 55.7373 39.984 55.1853 40.296C54.6333 40.608 54.0813 40.956 53.5293 41.34C53.0013 41.7 52.5093 42.084 52.0533 42.492C51.5973 42.876 51.2493 43.26 51.0093 43.644H61.9173V48H44.5653ZM76.5136 39.504C78.0016 39.768 79.2016 40.488 80.1136 41.664C81.0496 42.816 81.5176 44.232 81.5176 45.912C81.5176 47.04 81.2896 48.06 80.8336 48.972C80.4016 49.884 79.7776 50.652 78.9616 51.276C78.1696 51.924 77.1976 52.416 76.0456 52.752C74.8936 53.112 73.5976 53.292 72.1576 53.292C70.3336 53.292 68.7136 52.992 67.2976 52.392C65.9056 51.816 64.7416 50.964 63.8056 49.836L66.5416 46.416C67.1656 47.208 67.9096 47.82 68.7736 48.252C69.6376 48.684 70.7176 48.9 72.0136 48.9C73.4776 48.9 74.5936 48.612 75.3616 48.036C76.1296 47.46 76.5136 46.572 76.5136 45.372C76.5136 44.124 76.0696 43.164 75.1816 42.492C74.2936 41.82 72.9496 41.484 71.1496 41.484H70.1416V37.884H71.2576C72.7456 37.884 73.8976 37.56 74.7136 36.912C75.5296 36.24 75.9376 35.388 75.9376 34.356C75.9376 33.372 75.6016 32.64 74.9296 32.16C74.2576 31.68 73.3816 31.44 72.3016 31.44C71.1976 31.44 70.2016 31.692 69.3136 32.196C68.4496 32.7 67.7416 33.408 67.1896 34.32L64.1656 30.936C64.5256 30.384 65.0056 29.892 65.6056 29.46C66.2056 29.004 66.8776 28.62 67.6216 28.308C68.3896 27.972 69.2176 27.72 70.1056 27.552C70.9936 27.36 71.9056 27.264 72.8416 27.264C74.0656 27.264 75.1816 27.42 76.1896 27.732C77.1976 28.044 78.0616 28.476 78.7816 29.028C79.5256 29.58 80.0896 30.252 80.4736 31.044C80.8816 31.812 81.0856 32.676 81.0856 33.636C81.0856 34.356 80.9776 35.04 80.7616 35.688C80.5456 36.336 80.2336 36.924 79.8256 37.452C79.4176 37.98 78.9256 38.424 78.3496 38.784C77.7976 39.144 77.1856 39.384 76.5136 39.504Z" fill="#373737"/>
<rect x="0.5" y="0.5" width="248" height="69" rx="4.5" stroke="#128EE5"/>
<path d="M179 0H244C246.761 0 249 2.23858 249 5V65C249 67.7614 246.761 70 244 70H179V0Z" fill="#128EE5" fill-opacity="0.2"/>
<rect x="109.5" y="0.5" width="69" height="69" fill="#128EE5" fill-opacity="0.2" stroke="#128EE5"/>
<path d="M154.5 36.5H133.5V33.5H154.5V36.5Z" fill="black" fill-opacity="0.54"/>
<path d="M224.5 36.5H215.5V45.5H212.5V36.5H203.5V33.5H212.5V24.5H215.5V33.5H224.5V36.5Z" fill="black" fill-opacity="0.54"/>
</svg>
