<svg width="639" height="396" viewBox="0 0 639 396" fill="none" xmlns="http://www.w3.org/2000/svg">
<path d="M289.939 318.061C290.525 318.646 291.475 318.646 292.061 318.061L301.607 308.515C302.192 307.929 302.192 306.979 301.607 306.393C301.021 305.808 300.071 305.808 299.485 306.393L291 314.879L282.515 306.393C281.929 305.808 280.979 305.808 280.393 306.393C279.808 306.979 279.808 307.929 280.393 308.515L289.939 318.061ZM289.5 165L289.5 317L292.5 317L292.5 165L289.5 165Z" fill="black"/>
<path d="M101 129L101 130.5L101 129ZM93 137L94.5 137L93 137ZM91.9394 317.561C92.5252 318.146 93.4749 318.146 94.0607 317.561L103.607 308.015C104.192 307.429 104.192 306.479 103.607 305.893C103.021 305.308 102.071 305.308 101.485 305.893L93.0001 314.379L84.5148 305.893C83.929 305.308 82.9793 305.308 82.3935 305.893C81.8077 306.479 81.8077 307.429 82.3935 308.015L91.9394 317.561ZM217.5 127.5L101 127.5L101 130.5L217.5 130.5L217.5 127.5ZM91.5 137L91.5001 316.5L94.5001 316.5L94.5 137L91.5 137ZM101 127.5C95.7533 127.5 91.5 131.753 91.5 137L94.5 137C94.5 133.41 97.4102 130.5 101 130.5L101 127.5Z" fill="black"/>
<path d="M547.577 249.5L546.077 249.5L546.077 249.5L547.577 249.5ZM548.638 317.561C548.052 318.146 547.102 318.146 546.516 317.561L536.97 308.015C536.384 307.429 536.384 306.479 536.97 305.893C537.556 305.307 538.506 305.307 539.092 305.893L547.577 314.379L556.062 305.893C556.648 305.307 557.598 305.307 558.183 305.893C558.769 306.479 558.769 307.429 558.183 308.015L548.638 317.561ZM326.5 233.5L325 233.5L326.5 233.5ZM334.5 241.5L334.5 243L334.5 243L334.5 241.5ZM539.577 241.5L539.577 243L539.577 243L539.577 241.5ZM549.077 249.5L549.077 316.5L546.077 316.5L546.077 249.5L549.077 249.5ZM328 165.5L328 233.5L325 233.5L325 165.5L328 165.5ZM334.5 240L539.577 240L539.577 243L334.5 243L334.5 240ZM328 233.5C328 237.09 330.91 240 334.5 240L334.5 243C329.253 243 325 238.747 325 233.5L328 233.5ZM546.077 249.5C546.077 245.91 543.167 243 539.577 243L539.577 240C544.824 240 549.077 244.253 549.077 249.5L546.077 249.5Z" fill="black"/>
<rect x="227" y="101" width="185" height="53" rx="8" fill="#128EE5"/>
<path d="M282.668 127.8C282.668 126.933 282.821 126.08 283.128 125.24C283.448 124.387 283.908 123.627 284.508 122.96C285.108 122.293 285.841 121.753 286.708 121.34C287.574 120.927 288.561 120.72 289.668 120.72C290.974 120.72 292.101 121.007 293.048 121.58C294.008 122.153 294.721 122.9 295.188 123.82L293.068 125.28C292.881 124.88 292.654 124.547 292.388 124.28C292.121 124 291.834 123.78 291.528 123.62C291.221 123.46 290.901 123.347 290.568 123.28C290.234 123.2 289.908 123.16 289.588 123.16C288.894 123.16 288.288 123.3 287.768 123.58C287.261 123.86 286.834 124.227 286.488 124.68C286.154 125.12 285.901 125.627 285.728 126.2C285.554 126.76 285.468 127.32 285.468 127.88C285.468 128.507 285.568 129.113 285.768 129.7C285.968 130.273 286.248 130.78 286.608 131.22C286.981 131.66 287.421 132.013 287.928 132.28C288.448 132.547 289.014 132.68 289.628 132.68C289.948 132.68 290.281 132.64 290.628 132.56C290.974 132.48 291.301 132.353 291.608 132.18C291.928 132.007 292.221 131.787 292.488 131.52C292.754 131.24 292.968 130.907 293.128 130.52L295.388 131.82C295.161 132.353 294.834 132.827 294.408 133.24C293.994 133.64 293.521 133.98 292.988 134.26C292.468 134.54 291.908 134.753 291.308 134.9C290.708 135.047 290.121 135.12 289.548 135.12C288.534 135.12 287.608 134.907 286.768 134.48C285.928 134.053 285.201 133.5 284.588 132.82C283.988 132.127 283.514 131.347 283.168 130.48C282.834 129.6 282.668 128.707 282.668 127.8ZM301.419 135.2C300.565 135.2 299.799 135.053 299.119 134.76C298.439 134.467 297.859 134.073 297.379 133.58C296.912 133.073 296.552 132.493 296.299 131.84C296.045 131.187 295.919 130.5 295.919 129.78C295.919 129.047 296.045 128.353 296.299 127.7C296.552 127.047 296.912 126.473 297.379 125.98C297.859 125.473 298.439 125.073 299.119 124.78C299.799 124.487 300.565 124.34 301.419 124.34C302.272 124.34 303.032 124.487 303.699 124.78C304.379 125.073 304.952 125.473 305.419 125.98C305.899 126.473 306.265 127.047 306.519 127.7C306.772 128.353 306.899 129.047 306.899 129.78C306.899 130.5 306.772 131.187 306.519 131.84C306.265 132.493 305.905 133.073 305.439 133.58C304.972 134.073 304.399 134.467 303.719 134.76C303.039 135.053 302.272 135.2 301.419 135.2ZM298.679 129.78C298.679 130.247 298.745 130.673 298.879 131.06C299.025 131.433 299.219 131.76 299.459 132.04C299.712 132.32 300.005 132.54 300.339 132.7C300.672 132.847 301.032 132.92 301.419 132.92C301.805 132.92 302.165 132.847 302.499 132.7C302.832 132.54 303.119 132.32 303.359 132.04C303.612 131.76 303.805 131.427 303.939 131.04C304.085 130.653 304.159 130.227 304.159 129.76C304.159 129.307 304.085 128.887 303.939 128.5C303.805 128.113 303.612 127.78 303.359 127.5C303.119 127.22 302.832 127.007 302.499 126.86C302.165 126.7 301.805 126.62 301.419 126.62C301.032 126.62 300.672 126.7 300.339 126.86C300.005 127.02 299.712 127.24 299.459 127.52C299.219 127.8 299.025 128.133 298.879 128.52C298.745 128.907 298.679 129.327 298.679 129.78ZM311.508 135.2C310.428 135.2 309.608 134.853 309.048 134.16C308.488 133.467 308.208 132.44 308.208 131.08V124.52H310.888V130.5C310.888 132.113 311.468 132.92 312.628 132.92C313.148 132.92 313.648 132.767 314.128 132.46C314.621 132.14 315.021 131.66 315.328 131.02V124.52H318.008V131.92C318.008 132.2 318.054 132.4 318.148 132.52C318.254 132.64 318.421 132.707 318.648 132.72V135C318.381 135.053 318.154 135.087 317.968 135.1C317.794 135.113 317.634 135.12 317.488 135.12C317.008 135.12 316.614 135.013 316.308 134.8C316.014 134.573 315.841 134.267 315.788 133.88L315.728 133.04C315.261 133.76 314.661 134.3 313.928 134.66C313.194 135.02 312.388 135.2 311.508 135.2ZM330.011 135H327.331V129.12C327.331 128.28 327.184 127.667 326.891 127.28C326.597 126.893 326.191 126.7 325.671 126.7C325.404 126.7 325.131 126.753 324.851 126.86C324.571 126.967 324.304 127.12 324.051 127.32C323.811 127.507 323.591 127.733 323.391 128C323.191 128.267 323.044 128.56 322.951 128.88V135H320.271V124.52H322.691V126.46C323.077 125.793 323.637 125.273 324.371 124.9C325.104 124.527 325.931 124.34 326.851 124.34C327.504 124.34 328.037 124.46 328.451 124.7C328.864 124.94 329.184 125.253 329.411 125.64C329.637 126.027 329.791 126.467 329.871 126.96C329.964 127.453 330.011 127.953 330.011 128.46V135ZM338.123 134.46C337.763 134.62 337.323 134.78 336.803 134.94C336.283 135.1 335.737 135.18 335.163 135.18C334.79 135.18 334.437 135.133 334.103 135.04C333.783 134.947 333.497 134.8 333.243 134.6C333.003 134.387 332.81 134.12 332.663 133.8C332.517 133.467 332.443 133.067 332.443 132.6V126.58H331.063V124.52H332.443V121.12H335.123V124.52H337.323V126.58H335.123V131.7C335.123 132.073 335.217 132.34 335.403 132.5C335.603 132.647 335.843 132.72 336.123 132.72C336.403 132.72 336.677 132.673 336.943 132.58C337.21 132.487 337.423 132.407 337.583 132.34L338.123 134.46ZM343.725 135.2C342.885 135.2 342.125 135.06 341.445 134.78C340.765 134.487 340.185 134.093 339.705 133.6C339.225 133.107 338.852 132.533 338.585 131.88C338.332 131.227 338.205 130.54 338.205 129.82C338.205 129.073 338.332 128.373 338.585 127.72C338.839 127.053 339.205 126.473 339.685 125.98C340.165 125.473 340.745 125.073 341.425 124.78C342.119 124.487 342.892 124.34 343.745 124.34C344.599 124.34 345.359 124.487 346.025 124.78C346.705 125.073 347.279 125.467 347.745 125.96C348.225 126.453 348.585 127.027 348.825 127.68C349.079 128.333 349.205 129.013 349.205 129.72C349.205 129.893 349.199 130.06 349.185 130.22C349.185 130.38 349.172 130.513 349.145 130.62H341.045C341.085 131.033 341.185 131.4 341.345 131.72C341.505 132.04 341.712 132.313 341.965 132.54C342.219 132.767 342.505 132.94 342.825 133.06C343.145 133.18 343.479 133.24 343.825 133.24C344.359 133.24 344.859 133.113 345.325 132.86C345.805 132.593 346.132 132.247 346.305 131.82L348.605 132.46C348.219 133.26 347.599 133.92 346.745 134.44C345.905 134.947 344.899 135.2 343.725 135.2ZM346.445 128.88C346.379 128.093 346.085 127.467 345.565 127C345.059 126.52 344.439 126.28 343.705 126.28C343.345 126.28 343.005 126.347 342.685 126.48C342.379 126.6 342.105 126.773 341.865 127C341.625 127.227 341.425 127.5 341.265 127.82C341.119 128.14 341.032 128.493 341.005 128.88H346.445ZM356.678 126.84C355.865 126.853 355.138 127.013 354.498 127.32C353.858 127.613 353.398 128.06 353.118 128.66V135H350.438V124.52H352.898V126.76C353.085 126.4 353.305 126.08 353.558 125.8C353.811 125.507 354.085 125.253 354.378 125.04C354.671 124.827 354.965 124.667 355.258 124.56C355.565 124.44 355.858 124.38 356.138 124.38C356.285 124.38 356.391 124.38 356.458 124.38C356.538 124.38 356.611 124.387 356.678 124.4V126.84Z" fill="#E7E7E7"/>
<path d="M169 251.5H305C309.142 251.5 312.5 254.858 312.5 259V287.5C312.5 291.642 309.142 295 305 295H169C164.858 295 161.5 291.642 161.5 287.5V278.955V259C161.5 254.858 164.858 251.5 169 251.5Z" fill="#EEEEEE" stroke="#373737"/>
<path d="M184.461 278V268.06H188.073C188.885 268.06 189.594 268.191 190.201 268.452C190.817 268.713 191.33 269.068 191.741 269.516C192.151 269.964 192.459 270.491 192.665 271.098C192.87 271.695 192.973 272.335 192.973 273.016C192.973 273.772 192.856 274.458 192.623 275.074C192.399 275.681 192.072 276.203 191.643 276.642C191.213 277.071 190.695 277.407 190.089 277.65C189.491 277.883 188.819 278 188.073 278H184.461ZM191.027 273.016C191.027 272.54 190.961 272.101 190.831 271.7C190.7 271.299 190.509 270.953 190.257 270.664C190.005 270.375 189.692 270.151 189.319 269.992C188.955 269.833 188.539 269.754 188.073 269.754H186.393V276.306H188.073C188.549 276.306 188.969 276.222 189.333 276.054C189.706 275.886 190.014 275.657 190.257 275.368C190.509 275.069 190.7 274.719 190.831 274.318C190.961 273.917 191.027 273.483 191.027 273.016ZM198.388 272.288C197.819 272.297 197.31 272.409 196.862 272.624C196.414 272.829 196.092 273.142 195.896 273.562V278H194.02V270.664H195.742V272.232C195.873 271.98 196.027 271.756 196.204 271.56C196.381 271.355 196.573 271.177 196.778 271.028C196.983 270.879 197.189 270.767 197.394 270.692C197.609 270.608 197.814 270.566 198.01 270.566C198.113 270.566 198.187 270.566 198.234 270.566C198.29 270.566 198.341 270.571 198.388 270.58V272.288ZM199.154 278V270.664H201.03V278H199.154ZM199.154 269.642V267.78H201.03V269.642H199.154ZM202.428 267.78H204.304V275.648C204.304 275.919 204.37 276.129 204.5 276.278C204.631 276.427 204.818 276.502 205.06 276.502C205.172 276.502 205.294 276.483 205.424 276.446C205.564 276.409 205.695 276.362 205.816 276.306L206.068 277.734C205.816 277.855 205.522 277.949 205.186 278.014C204.85 278.079 204.547 278.112 204.276 278.112C203.688 278.112 203.231 277.958 202.904 277.65C202.587 277.333 202.428 276.885 202.428 276.306V267.78ZM206.592 267.78H208.468V275.648C208.468 275.919 208.533 276.129 208.664 276.278C208.795 276.427 208.981 276.502 209.224 276.502C209.336 276.502 209.457 276.483 209.588 276.446C209.728 276.409 209.859 276.362 209.98 276.306L210.232 277.734C209.98 277.855 209.686 277.949 209.35 278.014C209.014 278.079 208.711 278.112 208.44 278.112C207.852 278.112 207.395 277.958 207.068 277.65C206.751 277.333 206.592 276.885 206.592 276.306V267.78ZM216.453 278.14C215.949 278.14 215.482 278.042 215.053 277.846C214.624 277.65 214.255 277.379 213.947 277.034C213.639 276.689 213.396 276.287 213.219 275.83C213.051 275.363 212.967 274.864 212.967 274.332C212.967 273.8 213.046 273.305 213.205 272.848C213.373 272.391 213.602 271.989 213.891 271.644C214.18 271.299 214.526 271.028 214.927 270.832C215.328 270.636 215.767 270.538 216.243 270.538C216.784 270.538 217.27 270.669 217.699 270.93C218.138 271.191 218.478 271.532 218.721 271.952V267.78H220.597V275.844C220.597 276.04 220.63 276.18 220.695 276.264C220.76 276.348 220.872 276.395 221.031 276.404V278C220.704 278.065 220.438 278.098 220.233 278.098C219.897 278.098 219.622 278.014 219.407 277.846C219.192 277.678 219.071 277.459 219.043 277.188L219.001 276.726C218.73 277.193 218.362 277.547 217.895 277.79C217.438 278.023 216.957 278.14 216.453 278.14ZM216.943 276.544C217.12 276.544 217.302 276.516 217.489 276.46C217.676 276.395 217.848 276.306 218.007 276.194C218.166 276.082 218.306 275.951 218.427 275.802C218.558 275.653 218.656 275.489 218.721 275.312V273.562C218.646 273.357 218.539 273.17 218.399 273.002C218.268 272.825 218.114 272.675 217.937 272.554C217.769 272.423 217.587 272.321 217.391 272.246C217.204 272.171 217.018 272.134 216.831 272.134C216.551 272.134 216.29 272.195 216.047 272.316C215.814 272.437 215.613 272.605 215.445 272.82C215.277 273.025 215.146 273.263 215.053 273.534C214.96 273.805 214.913 274.085 214.913 274.374C214.913 274.682 214.964 274.967 215.067 275.228C215.17 275.489 215.31 275.718 215.487 275.914C215.664 276.11 215.874 276.264 216.117 276.376C216.369 276.488 216.644 276.544 216.943 276.544ZM225.546 278.14C224.949 278.14 224.412 278.037 223.936 277.832C223.46 277.627 223.054 277.351 222.718 277.006C222.392 276.651 222.14 276.245 221.962 275.788C221.785 275.331 221.696 274.85 221.696 274.346C221.696 273.833 221.785 273.347 221.962 272.89C222.14 272.433 222.392 272.031 222.718 271.686C223.054 271.331 223.46 271.051 223.936 270.846C224.412 270.641 224.949 270.538 225.546 270.538C226.144 270.538 226.676 270.641 227.142 270.846C227.618 271.051 228.02 271.331 228.346 271.686C228.682 272.031 228.939 272.433 229.116 272.89C229.294 273.347 229.382 273.833 229.382 274.346C229.382 274.85 229.294 275.331 229.116 275.788C228.939 276.245 228.687 276.651 228.36 277.006C228.034 277.351 227.632 277.627 227.156 277.832C226.68 278.037 226.144 278.14 225.546 278.14ZM223.628 274.346C223.628 274.673 223.675 274.971 223.768 275.242C223.871 275.503 224.006 275.732 224.174 275.928C224.352 276.124 224.557 276.278 224.79 276.39C225.024 276.493 225.276 276.544 225.546 276.544C225.817 276.544 226.069 276.493 226.302 276.39C226.536 276.278 226.736 276.124 226.904 275.928C227.082 275.732 227.217 275.499 227.31 275.228C227.413 274.957 227.464 274.659 227.464 274.332C227.464 274.015 227.413 273.721 227.31 273.45C227.217 273.179 227.082 272.946 226.904 272.75C226.736 272.554 226.536 272.405 226.302 272.302C226.069 272.19 225.817 272.134 225.546 272.134C225.276 272.134 225.024 272.19 224.79 272.302C224.557 272.414 224.352 272.568 224.174 272.764C224.006 272.96 223.871 273.193 223.768 273.464C223.675 273.735 223.628 274.029 223.628 274.346ZM239.209 270.664H240.987L237.921 278H236.381L235.121 274.78L233.875 278H232.335L229.283 270.664H231.047L233.231 276.236L234.127 273.856L232.839 270.678H234.351L235.121 272.932L235.905 270.678H237.417L236.143 273.856L237.025 276.236L239.209 270.664ZM248.391 278H246.515V273.884C246.515 273.296 246.412 272.867 246.207 272.596C246.002 272.325 245.717 272.19 245.353 272.19C245.166 272.19 244.975 272.227 244.779 272.302C244.583 272.377 244.396 272.484 244.219 272.624C244.051 272.755 243.897 272.913 243.757 273.1C243.617 273.287 243.514 273.492 243.449 273.716V278H241.573V270.664H243.267V272.022C243.538 271.555 243.93 271.191 244.443 270.93C244.956 270.669 245.535 270.538 246.179 270.538C246.636 270.538 247.01 270.622 247.299 270.79C247.588 270.958 247.812 271.177 247.971 271.448C248.13 271.719 248.237 272.027 248.293 272.372C248.358 272.717 248.391 273.067 248.391 273.422V278ZM257.5 278L254.798 270.664H256.73L258.592 276.474L260.468 270.664H262.232L259.53 278H257.5ZM264.754 278.14C264.399 278.14 264.068 278.084 263.76 277.972C263.452 277.851 263.186 277.687 262.962 277.482C262.738 277.267 262.561 277.02 262.43 276.74C262.309 276.46 262.248 276.152 262.248 275.816C262.248 275.471 262.323 275.153 262.472 274.864C262.631 274.565 262.845 274.313 263.116 274.108C263.396 273.903 263.727 273.744 264.11 273.632C264.493 273.511 264.913 273.45 265.37 273.45C265.697 273.45 266.014 273.478 266.322 273.534C266.639 273.59 266.919 273.669 267.162 273.772V273.352C267.162 272.867 267.022 272.493 266.742 272.232C266.471 271.971 266.065 271.84 265.524 271.84C265.132 271.84 264.749 271.91 264.376 272.05C264.003 272.19 263.62 272.395 263.228 272.666L262.654 271.476C263.597 270.851 264.614 270.538 265.706 270.538C266.761 270.538 267.577 270.799 268.156 271.322C268.744 271.835 269.038 272.582 269.038 273.562V275.844C269.038 276.04 269.071 276.18 269.136 276.264C269.211 276.348 269.327 276.395 269.486 276.404V278C269.169 278.065 268.893 278.098 268.66 278.098C268.305 278.098 268.03 278.019 267.834 277.86C267.647 277.701 267.531 277.491 267.484 277.23L267.442 276.824C267.115 277.253 266.719 277.58 266.252 277.804C265.785 278.028 265.286 278.14 264.754 278.14ZM265.286 276.768C265.603 276.768 265.902 276.712 266.182 276.6C266.471 276.488 266.695 276.339 266.854 276.152C267.059 275.993 267.162 275.816 267.162 275.62V274.78C266.938 274.696 266.695 274.631 266.434 274.584C266.173 274.528 265.921 274.5 265.678 274.5C265.193 274.5 264.796 274.612 264.488 274.836C264.18 275.051 264.026 275.326 264.026 275.662C264.026 275.979 264.147 276.245 264.39 276.46C264.633 276.665 264.931 276.768 265.286 276.768ZM270.497 267.78H272.373V275.648C272.373 275.919 272.438 276.129 272.569 276.278C272.7 276.427 272.886 276.502 273.129 276.502C273.241 276.502 273.362 276.483 273.493 276.446C273.633 276.409 273.764 276.362 273.885 276.306L274.137 277.734C273.885 277.855 273.591 277.949 273.255 278.014C272.919 278.079 272.616 278.112 272.345 278.112C271.757 278.112 271.3 277.958 270.973 277.65C270.656 277.333 270.497 276.885 270.497 276.306V267.78ZM276.914 278.14C276.158 278.14 275.584 277.897 275.192 277.412C274.8 276.927 274.604 276.208 274.604 275.256V270.664H276.48V274.85C276.48 275.979 276.886 276.544 277.698 276.544C278.062 276.544 278.412 276.437 278.748 276.222C279.094 275.998 279.374 275.662 279.588 275.214V270.664H281.464V275.844C281.464 276.04 281.497 276.18 281.562 276.264C281.637 276.348 281.754 276.395 281.912 276.404V278C281.726 278.037 281.567 278.061 281.436 278.07C281.315 278.079 281.203 278.084 281.1 278.084C280.764 278.084 280.489 278.009 280.274 277.86C280.069 277.701 279.948 277.487 279.91 277.216L279.868 276.628C279.542 277.132 279.122 277.51 278.608 277.762C278.095 278.014 277.53 278.14 276.914 278.14ZM286.451 278.14C285.863 278.14 285.331 278.042 284.855 277.846C284.379 277.641 283.973 277.365 283.637 277.02C283.301 276.675 283.039 276.273 282.853 275.816C282.675 275.359 282.587 274.878 282.587 274.374C282.587 273.851 282.675 273.361 282.853 272.904C283.03 272.437 283.287 272.031 283.623 271.686C283.959 271.331 284.365 271.051 284.841 270.846C285.326 270.641 285.867 270.538 286.465 270.538C287.062 270.538 287.594 270.641 288.061 270.846C288.537 271.051 288.938 271.327 289.265 271.672C289.601 272.017 289.853 272.419 290.021 272.876C290.198 273.333 290.287 273.809 290.287 274.304C290.287 274.425 290.282 274.542 290.273 274.654C290.273 274.766 290.263 274.859 290.245 274.934H284.575C284.603 275.223 284.673 275.48 284.785 275.704C284.897 275.928 285.041 276.119 285.219 276.278C285.396 276.437 285.597 276.558 285.821 276.642C286.045 276.726 286.278 276.768 286.521 276.768C286.894 276.768 287.244 276.679 287.571 276.502C287.907 276.315 288.135 276.073 288.257 275.774L289.867 276.222C289.596 276.782 289.162 277.244 288.565 277.608C287.977 277.963 287.272 278.14 286.451 278.14ZM288.355 273.716C288.308 273.165 288.103 272.727 287.739 272.4C287.384 272.064 286.95 271.896 286.437 271.896C286.185 271.896 285.947 271.943 285.723 272.036C285.508 272.12 285.317 272.241 285.149 272.4C284.981 272.559 284.841 272.75 284.729 272.974C284.626 273.198 284.565 273.445 284.547 273.716H288.355Z" fill="#373737"/>
<path d="M25 164.5H161C165.142 164.5 168.5 167.858 168.5 172V200.5C168.5 204.642 165.142 208 161 208H25C20.8579 208 17.5 204.642 17.5 200.5V191.955V172C17.5 167.858 20.8579 164.5 25 164.5Z" fill="#EEEEEE" stroke="#373737"/>
<path d="M30.295 191V181.06H33.907C34.719 181.06 35.4283 181.191 36.035 181.452C36.651 181.713 37.1643 182.068 37.575 182.516C37.9857 182.964 38.2937 183.491 38.499 184.098C38.7043 184.695 38.807 185.335 38.807 186.016C38.807 186.772 38.6903 187.458 38.457 188.074C38.233 188.681 37.9063 189.203 37.477 189.642C37.0477 190.071 36.5297 190.407 35.923 190.65C35.3257 190.883 34.6537 191 33.907 191H30.295ZM36.861 186.016C36.861 185.54 36.7957 185.101 36.665 184.7C36.5343 184.299 36.343 183.953 36.091 183.664C35.839 183.375 35.5263 183.151 35.153 182.992C34.789 182.833 34.3737 182.754 33.907 182.754H32.227V189.306H33.907C34.383 189.306 34.803 189.222 35.167 189.054C35.5403 188.886 35.8483 188.657 36.091 188.368C36.343 188.069 36.5343 187.719 36.665 187.318C36.7957 186.917 36.861 186.483 36.861 186.016ZM44.2225 185.288C43.6531 185.297 43.1445 185.409 42.6965 185.624C42.2485 185.829 41.9265 186.142 41.7305 186.562V191H39.8545V183.664H41.5765V185.232C41.7071 184.98 41.8611 184.756 42.0385 184.56C42.2158 184.355 42.4071 184.177 42.6125 184.028C42.8178 183.879 43.0231 183.767 43.2285 183.692C43.4431 183.608 43.6485 183.566 43.8445 183.566C43.9471 183.566 44.0218 183.566 44.0685 183.566C44.1245 183.566 44.1758 183.571 44.2225 183.58V185.288ZM44.9885 191V183.664H46.8645V191H44.9885ZM44.9885 182.642V180.78H46.8645V182.642H44.9885ZM48.2629 180.78H50.1389V188.648C50.1389 188.919 50.2042 189.129 50.3349 189.278C50.4656 189.427 50.6522 189.502 50.8949 189.502C51.0069 189.502 51.1282 189.483 51.2589 189.446C51.3989 189.409 51.5296 189.362 51.6509 189.306L51.9029 190.734C51.6509 190.855 51.3569 190.949 51.0209 191.014C50.6849 191.079 50.3816 191.112 50.1109 191.112C49.5229 191.112 49.0656 190.958 48.7389 190.65C48.4216 190.333 48.2629 189.885 48.2629 189.306V180.78ZM52.4263 180.78H54.3023V188.648C54.3023 188.919 54.3676 189.129 54.4983 189.278C54.6289 189.427 54.8156 189.502 55.0583 189.502C55.1703 189.502 55.2916 189.483 55.4223 189.446C55.5623 189.409 55.6929 189.362 55.8143 189.306L56.0663 190.734C55.8143 190.855 55.5203 190.949 55.1843 191.014C54.8483 191.079 54.5449 191.112 54.2743 191.112C53.6863 191.112 53.2289 190.958 52.9023 190.65C52.5849 190.333 52.4263 189.885 52.4263 189.306V180.78ZM62.2874 191.14C61.7834 191.14 61.3167 191.042 60.8874 190.846C60.4581 190.65 60.0894 190.379 59.7814 190.034C59.4734 189.689 59.2307 189.287 59.0534 188.83C58.8854 188.363 58.8014 187.864 58.8014 187.332C58.8014 186.8 58.8807 186.305 59.0394 185.848C59.2074 185.391 59.4361 184.989 59.7254 184.644C60.0147 184.299 60.3601 184.028 60.7614 183.832C61.1627 183.636 61.6014 183.538 62.0774 183.538C62.6187 183.538 63.1041 183.669 63.5334 183.93C63.9721 184.191 64.3127 184.532 64.5554 184.952V180.78H66.4314V188.844C66.4314 189.04 66.4641 189.18 66.5294 189.264C66.5947 189.348 66.7067 189.395 66.8654 189.404V191C66.5387 191.065 66.2727 191.098 66.0674 191.098C65.7314 191.098 65.4561 191.014 65.2414 190.846C65.0267 190.678 64.9054 190.459 64.8774 190.188L64.8354 189.726C64.5647 190.193 64.1961 190.547 63.7294 190.79C63.2721 191.023 62.7914 191.14 62.2874 191.14ZM62.7774 189.544C62.9547 189.544 63.1367 189.516 63.3234 189.46C63.5101 189.395 63.6827 189.306 63.8414 189.194C64.0001 189.082 64.1401 188.951 64.2614 188.802C64.3921 188.653 64.4901 188.489 64.5554 188.312V186.562C64.4807 186.357 64.3734 186.17 64.2334 186.002C64.1027 185.825 63.9487 185.675 63.7714 185.554C63.6034 185.423 63.4214 185.321 63.2254 185.246C63.0387 185.171 62.8521 185.134 62.6654 185.134C62.3854 185.134 62.1241 185.195 61.8814 185.316C61.6481 185.437 61.4474 185.605 61.2794 185.82C61.1114 186.025 60.9807 186.263 60.8874 186.534C60.7941 186.805 60.7474 187.085 60.7474 187.374C60.7474 187.682 60.7987 187.967 60.9014 188.228C61.0041 188.489 61.1441 188.718 61.3214 188.914C61.4987 189.11 61.7087 189.264 61.9514 189.376C62.2034 189.488 62.4787 189.544 62.7774 189.544ZM71.3808 191.14C70.7835 191.14 70.2468 191.037 69.7708 190.832C69.2948 190.627 68.8888 190.351 68.5528 190.006C68.2262 189.651 67.9742 189.245 67.7968 188.788C67.6195 188.331 67.5308 187.85 67.5308 187.346C67.5308 186.833 67.6195 186.347 67.7968 185.89C67.9742 185.433 68.2262 185.031 68.5528 184.686C68.8888 184.331 69.2948 184.051 69.7708 183.846C70.2468 183.641 70.7835 183.538 71.3808 183.538C71.9782 183.538 72.5102 183.641 72.9768 183.846C73.4528 184.051 73.8542 184.331 74.1808 184.686C74.5168 185.031 74.7735 185.433 74.9508 185.89C75.1282 186.347 75.2168 186.833 75.2168 187.346C75.2168 187.85 75.1282 188.331 74.9508 188.788C74.7735 189.245 74.5215 189.651 74.1948 190.006C73.8682 190.351 73.4668 190.627 72.9908 190.832C72.5148 191.037 71.9782 191.14 71.3808 191.14ZM69.4628 187.346C69.4628 187.673 69.5095 187.971 69.6028 188.242C69.7055 188.503 69.8408 188.732 70.0088 188.928C70.1862 189.124 70.3915 189.278 70.6248 189.39C70.8582 189.493 71.1102 189.544 71.3808 189.544C71.6515 189.544 71.9035 189.493 72.1368 189.39C72.3702 189.278 72.5708 189.124 72.7388 188.928C72.9162 188.732 73.0515 188.499 73.1448 188.228C73.2475 187.957 73.2988 187.659 73.2988 187.332C73.2988 187.015 73.2475 186.721 73.1448 186.45C73.0515 186.179 72.9162 185.946 72.7388 185.75C72.5708 185.554 72.3702 185.405 72.1368 185.302C71.9035 185.19 71.6515 185.134 71.3808 185.134C71.1102 185.134 70.8582 185.19 70.6248 185.302C70.3915 185.414 70.1862 185.568 70.0088 185.764C69.8408 185.96 69.7055 186.193 69.6028 186.464C69.5095 186.735 69.4628 187.029 69.4628 187.346ZM85.0433 183.664H86.8213L83.7553 191H82.2153L80.9553 187.78L79.7093 191H78.1693L75.1173 183.664H76.8813L79.0653 189.236L79.9613 186.856L78.6733 183.678H80.1853L80.9553 185.932L81.7393 183.678H83.2513L81.9773 186.856L82.8593 189.236L85.0433 183.664ZM94.2254 191H92.3494V186.884C92.3494 186.296 92.2468 185.867 92.0414 185.596C91.8361 185.325 91.5514 185.19 91.1874 185.19C91.0008 185.19 90.8094 185.227 90.6134 185.302C90.4174 185.377 90.2308 185.484 90.0534 185.624C89.8854 185.755 89.7314 185.913 89.5914 186.1C89.4514 186.287 89.3488 186.492 89.2834 186.716V191H87.4074V183.664H89.1014V185.022C89.3721 184.555 89.7641 184.191 90.2774 183.93C90.7908 183.669 91.3694 183.538 92.0134 183.538C92.4708 183.538 92.8441 183.622 93.1334 183.79C93.4228 183.958 93.6468 184.177 93.8054 184.448C93.9641 184.719 94.0714 185.027 94.1274 185.372C94.1928 185.717 94.2254 186.067 94.2254 186.422V191ZM103.745 191.14C103.391 191.14 103.059 191.084 102.751 190.972C102.443 190.851 102.177 190.687 101.953 190.482C101.729 190.267 101.552 190.02 101.421 189.74C101.3 189.46 101.239 189.152 101.239 188.816C101.239 188.471 101.314 188.153 101.463 187.864C101.622 187.565 101.837 187.313 102.107 187.108C102.387 186.903 102.719 186.744 103.101 186.632C103.484 186.511 103.904 186.45 104.361 186.45C104.688 186.45 105.005 186.478 105.313 186.534C105.631 186.59 105.911 186.669 106.153 186.772V186.352C106.153 185.867 106.013 185.493 105.733 185.232C105.463 184.971 105.057 184.84 104.515 184.84C104.123 184.84 103.741 184.91 103.367 185.05C102.994 185.19 102.611 185.395 102.219 185.666L101.645 184.476C102.588 183.851 103.605 183.538 104.697 183.538C105.752 183.538 106.569 183.799 107.147 184.322C107.735 184.835 108.029 185.582 108.029 186.562V188.844C108.029 189.04 108.062 189.18 108.127 189.264C108.202 189.348 108.319 189.395 108.477 189.404V191C108.16 191.065 107.885 191.098 107.651 191.098C107.297 191.098 107.021 191.019 106.825 190.86C106.639 190.701 106.522 190.491 106.475 190.23L106.433 189.824C106.107 190.253 105.71 190.58 105.243 190.804C104.777 191.028 104.277 191.14 103.745 191.14ZM104.277 189.768C104.595 189.768 104.893 189.712 105.173 189.6C105.463 189.488 105.687 189.339 105.845 189.152C106.051 188.993 106.153 188.816 106.153 188.62V187.78C105.929 187.696 105.687 187.631 105.425 187.584C105.164 187.528 104.912 187.5 104.669 187.5C104.184 187.5 103.787 187.612 103.479 187.836C103.171 188.051 103.017 188.326 103.017 188.662C103.017 188.979 103.139 189.245 103.381 189.46C103.624 189.665 103.923 189.768 104.277 189.768ZM109.488 180.78H111.364V188.648C111.364 188.919 111.43 189.129 111.56 189.278C111.691 189.427 111.878 189.502 112.12 189.502C112.232 189.502 112.354 189.483 112.484 189.446C112.624 189.409 112.755 189.362 112.876 189.306L113.128 190.734C112.876 190.855 112.582 190.949 112.246 191.014C111.91 191.079 111.607 191.112 111.336 191.112C110.748 191.112 110.291 190.958 109.964 190.65C109.647 190.333 109.488 189.885 109.488 189.306V180.78ZM113.652 180.78H115.528V188.648C115.528 188.919 115.593 189.129 115.724 189.278C115.854 189.427 116.041 189.502 116.284 189.502C116.396 189.502 116.517 189.483 116.648 189.446C116.788 189.409 116.918 189.362 117.04 189.306L117.292 190.734C117.04 190.855 116.746 190.949 116.41 191.014C116.074 191.079 115.77 191.112 115.5 191.112C114.912 191.112 114.454 190.958 114.128 190.65C113.81 190.333 113.652 189.885 113.652 189.306V180.78ZM124.871 191.14C124.292 191.14 123.788 191.014 123.359 190.762C122.929 190.501 122.593 190.151 122.351 189.712V193.982H120.475V183.664H122.113V184.924C122.383 184.495 122.733 184.159 123.163 183.916C123.592 183.664 124.087 183.538 124.647 183.538C125.141 183.538 125.599 183.641 126.019 183.846C126.439 184.042 126.798 184.313 127.097 184.658C127.405 184.994 127.643 185.395 127.811 185.862C127.988 186.319 128.077 186.805 128.077 187.318C128.077 187.85 127.997 188.349 127.839 188.816C127.68 189.283 127.456 189.689 127.167 190.034C126.887 190.379 126.551 190.65 126.159 190.846C125.767 191.042 125.337 191.14 124.871 191.14ZM124.241 189.544C124.521 189.544 124.777 189.483 125.011 189.362C125.253 189.241 125.459 189.077 125.627 188.872C125.795 188.667 125.925 188.429 126.019 188.158C126.112 187.887 126.159 187.607 126.159 187.318C126.159 187.01 126.107 186.725 126.005 186.464C125.902 186.193 125.757 185.96 125.571 185.764C125.393 185.568 125.179 185.414 124.927 185.302C124.684 185.19 124.418 185.134 124.129 185.134C123.951 185.134 123.769 185.167 123.583 185.232C123.396 185.288 123.223 185.372 123.065 185.484C122.906 185.596 122.761 185.727 122.631 185.876C122.509 186.025 122.416 186.189 122.351 186.366V188.088C122.519 188.508 122.775 188.858 123.121 189.138C123.466 189.409 123.839 189.544 124.241 189.544ZM133.436 185.288C132.866 185.297 132.358 185.409 131.91 185.624C131.462 185.829 131.14 186.142 130.944 186.562V191H129.068V183.664H130.79V185.232C130.92 184.98 131.074 184.756 131.252 184.56C131.429 184.355 131.62 184.177 131.826 184.028C132.031 183.879 132.236 183.767 132.442 183.692C132.656 183.608 132.862 183.566 133.058 183.566C133.16 183.566 133.235 183.566 133.282 183.566C133.338 183.566 133.389 183.571 133.436 183.58V185.288ZM137.221 191.14C136.623 191.14 136.087 191.037 135.611 190.832C135.135 190.627 134.729 190.351 134.393 190.006C134.066 189.651 133.814 189.245 133.637 188.788C133.459 188.331 133.371 187.85 133.371 187.346C133.371 186.833 133.459 186.347 133.637 185.89C133.814 185.433 134.066 185.031 134.393 184.686C134.729 184.331 135.135 184.051 135.611 183.846C136.087 183.641 136.623 183.538 137.221 183.538C137.818 183.538 138.35 183.641 138.817 183.846C139.293 184.051 139.694 184.331 140.021 184.686C140.357 185.031 140.613 185.433 140.791 185.89C140.968 186.347 141.057 186.833 141.057 187.346C141.057 187.85 140.968 188.331 140.791 188.788C140.613 189.245 140.361 189.651 140.035 190.006C139.708 190.351 139.307 190.627 138.831 190.832C138.355 191.037 137.818 191.14 137.221 191.14ZM135.303 187.346C135.303 187.673 135.349 187.971 135.443 188.242C135.545 188.503 135.681 188.732 135.849 188.928C136.026 189.124 136.231 189.278 136.465 189.39C136.698 189.493 136.95 189.544 137.221 189.544C137.491 189.544 137.743 189.493 137.977 189.39C138.21 189.278 138.411 189.124 138.579 188.928C138.756 188.732 138.891 188.499 138.985 188.228C139.087 187.957 139.139 187.659 139.139 187.332C139.139 187.015 139.087 186.721 138.985 186.45C138.891 186.179 138.756 185.946 138.579 185.75C138.411 185.554 138.21 185.405 137.977 185.302C137.743 185.19 137.491 185.134 137.221 185.134C136.95 185.134 136.698 185.19 136.465 185.302C136.231 185.414 136.026 185.568 135.849 185.764C135.681 185.96 135.545 186.193 135.443 186.464C135.349 186.735 135.303 187.029 135.303 187.346ZM146.439 191.14C145.86 191.14 145.356 191.014 144.927 190.762C144.498 190.501 144.162 190.151 143.919 189.712V193.982H142.043V183.664H143.681V184.924C143.952 184.495 144.302 184.159 144.731 183.916C145.16 183.664 145.655 183.538 146.215 183.538C146.71 183.538 147.167 183.641 147.587 183.846C148.007 184.042 148.366 184.313 148.665 184.658C148.973 184.994 149.211 185.395 149.379 185.862C149.556 186.319 149.645 186.805 149.645 187.318C149.645 187.85 149.566 188.349 149.407 188.816C149.248 189.283 149.024 189.689 148.735 190.034C148.455 190.379 148.119 190.65 147.727 190.846C147.335 191.042 146.906 191.14 146.439 191.14ZM145.809 189.544C146.089 189.544 146.346 189.483 146.579 189.362C146.822 189.241 147.027 189.077 147.195 188.872C147.363 188.667 147.494 188.429 147.587 188.158C147.68 187.887 147.727 187.607 147.727 187.318C147.727 187.01 147.676 186.725 147.573 186.464C147.47 186.193 147.326 185.96 147.139 185.764C146.962 185.568 146.747 185.414 146.495 185.302C146.252 185.19 145.986 185.134 145.697 185.134C145.52 185.134 145.338 185.167 145.151 185.232C144.964 185.288 144.792 185.372 144.633 185.484C144.474 185.596 144.33 185.727 144.199 185.876C144.078 186.025 143.984 186.189 143.919 186.366V188.088C144.087 188.508 144.344 188.858 144.689 189.138C145.034 189.409 145.408 189.544 145.809 189.544ZM153.408 191.14C152.792 191.14 152.19 191.042 151.602 190.846C151.014 190.65 150.51 190.37 150.09 190.006L150.79 188.83C151.238 189.147 151.672 189.39 152.092 189.558C152.521 189.717 152.946 189.796 153.366 189.796C153.739 189.796 154.033 189.726 154.248 189.586C154.463 189.446 154.57 189.245 154.57 188.984C154.57 188.723 154.444 188.531 154.192 188.41C153.94 188.289 153.529 188.149 152.96 187.99C152.484 187.859 152.078 187.733 151.742 187.612C151.406 187.491 151.135 187.355 150.93 187.206C150.725 187.047 150.575 186.87 150.482 186.674C150.389 186.469 150.342 186.226 150.342 185.946C150.342 185.573 150.412 185.237 150.552 184.938C150.701 184.639 150.907 184.387 151.168 184.182C151.429 183.967 151.733 183.804 152.078 183.692C152.433 183.58 152.815 183.524 153.226 183.524C153.777 183.524 154.29 183.603 154.766 183.762C155.251 183.921 155.695 184.177 156.096 184.532L155.34 185.666C154.967 185.386 154.603 185.181 154.248 185.05C153.903 184.919 153.557 184.854 153.212 184.854C152.895 184.854 152.629 184.919 152.414 185.05C152.199 185.181 152.092 185.391 152.092 185.68C152.092 185.811 152.115 185.918 152.162 186.002C152.218 186.086 152.302 186.161 152.414 186.226C152.526 186.291 152.671 186.357 152.848 186.422C153.035 186.478 153.263 186.539 153.534 186.604C154.038 186.735 154.467 186.865 154.822 186.996C155.186 187.127 155.48 187.276 155.704 187.444C155.937 187.612 156.105 187.808 156.208 188.032C156.32 188.247 156.376 188.508 156.376 188.816C156.376 189.535 156.11 190.104 155.578 190.524C155.046 190.935 154.323 191.14 153.408 191.14Z" fill="#373737"/>
<path d="M479 251.5H615C619.142 251.5 622.5 254.858 622.5 259V287.5C622.5 291.642 619.142 295 615 295H479C474.858 295 471.5 291.642 471.5 287.5V278.955V259C471.5 254.858 474.858 251.5 479 251.5Z" fill="#EEEEEE" stroke="#373737"/>
<path d="M484.295 278V268.06H487.907C488.719 268.06 489.428 268.191 490.035 268.452C490.651 268.713 491.164 269.068 491.575 269.516C491.986 269.964 492.294 270.491 492.499 271.098C492.704 271.695 492.807 272.335 492.807 273.016C492.807 273.772 492.69 274.458 492.457 275.074C492.233 275.681 491.906 276.203 491.477 276.642C491.048 277.071 490.53 277.407 489.923 277.65C489.326 277.883 488.654 278 487.907 278H484.295ZM490.861 273.016C490.861 272.54 490.796 272.101 490.665 271.7C490.534 271.299 490.343 270.953 490.091 270.664C489.839 270.375 489.526 270.151 489.153 269.992C488.789 269.833 488.374 269.754 487.907 269.754H486.227V276.306H487.907C488.383 276.306 488.803 276.222 489.167 276.054C489.54 275.886 489.848 275.657 490.091 275.368C490.343 275.069 490.534 274.719 490.665 274.318C490.796 273.917 490.861 273.483 490.861 273.016ZM498.222 272.288C497.653 272.297 497.144 272.409 496.696 272.624C496.248 272.829 495.926 273.142 495.73 273.562V278H493.854V270.664H495.576V272.232C495.707 271.98 495.861 271.756 496.038 271.56C496.216 271.355 496.407 271.177 496.612 271.028C496.818 270.879 497.023 270.767 497.228 270.692C497.443 270.608 497.648 270.566 497.844 270.566C497.947 270.566 498.022 270.566 498.068 270.566C498.124 270.566 498.176 270.571 498.222 270.58V272.288ZM498.989 278V270.664H500.865V278H498.989ZM498.989 269.642V267.78H500.865V269.642H498.989ZM502.263 267.78H504.139V275.648C504.139 275.919 504.204 276.129 504.335 276.278C504.466 276.427 504.652 276.502 504.895 276.502C505.007 276.502 505.128 276.483 505.259 276.446C505.399 276.409 505.53 276.362 505.651 276.306L505.903 277.734C505.651 277.855 505.357 277.949 505.021 278.014C504.685 278.079 504.382 278.112 504.111 278.112C503.523 278.112 503.066 277.958 502.739 277.65C502.422 277.333 502.263 276.885 502.263 276.306V267.78ZM506.426 267.78H508.302V275.648C508.302 275.919 508.368 276.129 508.498 276.278C508.629 276.427 508.816 276.502 509.058 276.502C509.17 276.502 509.292 276.483 509.422 276.446C509.562 276.409 509.693 276.362 509.814 276.306L510.066 277.734C509.814 277.855 509.52 277.949 509.184 278.014C508.848 278.079 508.545 278.112 508.274 278.112C507.686 278.112 507.229 277.958 506.902 277.65C506.585 277.333 506.426 276.885 506.426 276.306V267.78ZM516.287 278.14C515.783 278.14 515.317 278.042 514.887 277.846C514.458 277.65 514.089 277.379 513.781 277.034C513.473 276.689 513.231 276.287 513.053 275.83C512.885 275.363 512.801 274.864 512.801 274.332C512.801 273.8 512.881 273.305 513.039 272.848C513.207 272.391 513.436 271.989 513.725 271.644C514.015 271.299 514.36 271.028 514.761 270.832C515.163 270.636 515.601 270.538 516.077 270.538C516.619 270.538 517.104 270.669 517.533 270.93C517.972 271.191 518.313 271.532 518.555 271.952V267.78H520.431V275.844C520.431 276.04 520.464 276.18 520.529 276.264C520.595 276.348 520.707 276.395 520.865 276.404V278C520.539 278.065 520.273 278.098 520.067 278.098C519.731 278.098 519.456 278.014 519.241 277.846C519.027 277.678 518.905 277.459 518.877 277.188L518.835 276.726C518.565 277.193 518.196 277.547 517.729 277.79C517.272 278.023 516.791 278.14 516.287 278.14ZM516.777 276.544C516.955 276.544 517.137 276.516 517.323 276.46C517.51 276.395 517.683 276.306 517.841 276.194C518 276.082 518.14 275.951 518.261 275.802C518.392 275.653 518.49 275.489 518.555 275.312V273.562C518.481 273.357 518.373 273.17 518.233 273.002C518.103 272.825 517.949 272.675 517.771 272.554C517.603 272.423 517.421 272.321 517.225 272.246C517.039 272.171 516.852 272.134 516.665 272.134C516.385 272.134 516.124 272.195 515.881 272.316C515.648 272.437 515.447 272.605 515.279 272.82C515.111 273.025 514.981 273.263 514.887 273.534C514.794 273.805 514.747 274.085 514.747 274.374C514.747 274.682 514.799 274.967 514.901 275.228C515.004 275.489 515.144 275.718 515.321 275.914C515.499 276.11 515.709 276.264 515.951 276.376C516.203 276.488 516.479 276.544 516.777 276.544ZM525.381 278.14C524.783 278.14 524.247 278.037 523.771 277.832C523.295 277.627 522.889 277.351 522.553 277.006C522.226 276.651 521.974 276.245 521.797 275.788C521.619 275.331 521.531 274.85 521.531 274.346C521.531 273.833 521.619 273.347 521.797 272.89C521.974 272.433 522.226 272.031 522.553 271.686C522.889 271.331 523.295 271.051 523.771 270.846C524.247 270.641 524.783 270.538 525.381 270.538C525.978 270.538 526.51 270.641 526.977 270.846C527.453 271.051 527.854 271.331 528.181 271.686C528.517 272.031 528.773 272.433 528.951 272.89C529.128 273.347 529.217 273.833 529.217 274.346C529.217 274.85 529.128 275.331 528.951 275.788C528.773 276.245 528.521 276.651 528.195 277.006C527.868 277.351 527.467 277.627 526.991 277.832C526.515 278.037 525.978 278.14 525.381 278.14ZM523.463 274.346C523.463 274.673 523.509 274.971 523.603 275.242C523.705 275.503 523.841 275.732 524.009 275.928C524.186 276.124 524.391 276.278 524.625 276.39C524.858 276.493 525.11 276.544 525.381 276.544C525.651 276.544 525.903 276.493 526.137 276.39C526.37 276.278 526.571 276.124 526.739 275.928C526.916 275.732 527.051 275.499 527.145 275.228C527.247 274.957 527.299 274.659 527.299 274.332C527.299 274.015 527.247 273.721 527.145 273.45C527.051 273.179 526.916 272.946 526.739 272.75C526.571 272.554 526.37 272.405 526.137 272.302C525.903 272.19 525.651 272.134 525.381 272.134C525.11 272.134 524.858 272.19 524.625 272.302C524.391 272.414 524.186 272.568 524.009 272.764C523.841 272.96 523.705 273.193 523.603 273.464C523.509 273.735 523.463 274.029 523.463 274.346ZM539.043 270.664H540.821L537.755 278H536.215L534.955 274.78L533.709 278H532.169L529.117 270.664H530.881L533.065 276.236L533.961 273.856L532.673 270.678H534.185L534.955 272.932L535.739 270.678H537.251L535.977 273.856L536.859 276.236L539.043 270.664ZM548.225 278H546.349V273.884C546.349 273.296 546.247 272.867 546.041 272.596C545.836 272.325 545.551 272.19 545.187 272.19C545.001 272.19 544.809 272.227 544.613 272.302C544.417 272.377 544.231 272.484 544.053 272.624C543.885 272.755 543.731 272.913 543.591 273.1C543.451 273.287 543.349 273.492 543.283 273.716V278H541.407V270.664H543.101V272.022C543.372 271.555 543.764 271.191 544.277 270.93C544.791 270.669 545.369 270.538 546.013 270.538C546.471 270.538 546.844 270.622 547.133 270.79C547.423 270.958 547.647 271.177 547.805 271.448C547.964 271.719 548.071 272.027 548.127 272.372C548.193 272.717 548.225 273.067 548.225 273.422V278ZM557.745 278.14C557.391 278.14 557.059 278.084 556.751 277.972C556.443 277.851 556.177 277.687 555.953 277.482C555.729 277.267 555.552 277.02 555.421 276.74C555.3 276.46 555.239 276.152 555.239 275.816C555.239 275.471 555.314 275.153 555.463 274.864C555.622 274.565 555.837 274.313 556.107 274.108C556.387 273.903 556.719 273.744 557.101 273.632C557.484 273.511 557.904 273.45 558.361 273.45C558.688 273.45 559.005 273.478 559.313 273.534C559.631 273.59 559.911 273.669 560.153 273.772V273.352C560.153 272.867 560.013 272.493 559.733 272.232C559.463 271.971 559.057 271.84 558.515 271.84C558.123 271.84 557.741 271.91 557.367 272.05C556.994 272.19 556.611 272.395 556.219 272.666L555.645 271.476C556.588 270.851 557.605 270.538 558.697 270.538C559.752 270.538 560.569 270.799 561.147 271.322C561.735 271.835 562.029 272.582 562.029 273.562V275.844C562.029 276.04 562.062 276.18 562.127 276.264C562.202 276.348 562.319 276.395 562.477 276.404V278C562.16 278.065 561.885 278.098 561.651 278.098C561.297 278.098 561.021 278.019 560.825 277.86C560.639 277.701 560.522 277.491 560.475 277.23L560.433 276.824C560.107 277.253 559.71 277.58 559.243 277.804C558.777 278.028 558.277 278.14 557.745 278.14ZM558.277 276.768C558.595 276.768 558.893 276.712 559.173 276.6C559.463 276.488 559.687 276.339 559.845 276.152C560.051 275.993 560.153 275.816 560.153 275.62V274.78C559.929 274.696 559.687 274.631 559.425 274.584C559.164 274.528 558.912 274.5 558.669 274.5C558.184 274.5 557.787 274.612 557.479 274.836C557.171 275.051 557.017 275.326 557.017 275.662C557.017 275.979 557.139 276.245 557.381 276.46C557.624 276.665 557.923 276.768 558.277 276.768ZM563.488 267.78H565.364V275.648C565.364 275.919 565.43 276.129 565.56 276.278C565.691 276.427 565.878 276.502 566.12 276.502C566.232 276.502 566.354 276.483 566.484 276.446C566.624 276.409 566.755 276.362 566.876 276.306L567.128 277.734C566.876 277.855 566.582 277.949 566.246 278.014C565.91 278.079 565.607 278.112 565.336 278.112C564.748 278.112 564.291 277.958 563.964 277.65C563.647 277.333 563.488 276.885 563.488 276.306V267.78ZM567.652 267.78H569.528V275.648C569.528 275.919 569.593 276.129 569.724 276.278C569.854 276.427 570.041 276.502 570.284 276.502C570.396 276.502 570.517 276.483 570.648 276.446C570.788 276.409 570.918 276.362 571.04 276.306L571.292 277.734C571.04 277.855 570.746 277.949 570.41 278.014C570.074 278.079 569.77 278.112 569.5 278.112C568.912 278.112 568.454 277.958 568.128 277.65C567.81 277.333 567.652 276.885 567.652 276.306V267.78ZM578.871 278.14C578.292 278.14 577.788 278.014 577.359 277.762C576.929 277.501 576.593 277.151 576.351 276.712V280.982H574.475V270.664H576.113V271.924C576.383 271.495 576.733 271.159 577.163 270.916C577.592 270.664 578.087 270.538 578.647 270.538C579.141 270.538 579.599 270.641 580.019 270.846C580.439 271.042 580.798 271.313 581.097 271.658C581.405 271.994 581.643 272.395 581.811 272.862C581.988 273.319 582.077 273.805 582.077 274.318C582.077 274.85 581.997 275.349 581.839 275.816C581.68 276.283 581.456 276.689 581.167 277.034C580.887 277.379 580.551 277.65 580.159 277.846C579.767 278.042 579.337 278.14 578.871 278.14ZM578.241 276.544C578.521 276.544 578.777 276.483 579.011 276.362C579.253 276.241 579.459 276.077 579.627 275.872C579.795 275.667 579.925 275.429 580.019 275.158C580.112 274.887 580.159 274.607 580.159 274.318C580.159 274.01 580.107 273.725 580.005 273.464C579.902 273.193 579.757 272.96 579.571 272.764C579.393 272.568 579.179 272.414 578.927 272.302C578.684 272.19 578.418 272.134 578.129 272.134C577.951 272.134 577.769 272.167 577.583 272.232C577.396 272.288 577.223 272.372 577.065 272.484C576.906 272.596 576.761 272.727 576.631 272.876C576.509 273.025 576.416 273.189 576.351 273.366V275.088C576.519 275.508 576.775 275.858 577.121 276.138C577.466 276.409 577.839 276.544 578.241 276.544ZM587.436 272.288C586.866 272.297 586.358 272.409 585.91 272.624C585.462 272.829 585.14 273.142 584.944 273.562V278H583.068V270.664H584.79V272.232C584.92 271.98 585.074 271.756 585.252 271.56C585.429 271.355 585.62 271.177 585.826 271.028C586.031 270.879 586.236 270.767 586.442 270.692C586.656 270.608 586.862 270.566 587.058 270.566C587.16 270.566 587.235 270.566 587.282 270.566C587.338 270.566 587.389 270.571 587.436 270.58V272.288ZM591.221 278.14C590.623 278.14 590.087 278.037 589.611 277.832C589.135 277.627 588.729 277.351 588.393 277.006C588.066 276.651 587.814 276.245 587.637 275.788C587.459 275.331 587.371 274.85 587.371 274.346C587.371 273.833 587.459 273.347 587.637 272.89C587.814 272.433 588.066 272.031 588.393 271.686C588.729 271.331 589.135 271.051 589.611 270.846C590.087 270.641 590.623 270.538 591.221 270.538C591.818 270.538 592.35 270.641 592.817 270.846C593.293 271.051 593.694 271.331 594.021 271.686C594.357 272.031 594.613 272.433 594.791 272.89C594.968 273.347 595.057 273.833 595.057 274.346C595.057 274.85 594.968 275.331 594.791 275.788C594.613 276.245 594.361 276.651 594.035 277.006C593.708 277.351 593.307 277.627 592.831 277.832C592.355 278.037 591.818 278.14 591.221 278.14ZM589.303 274.346C589.303 274.673 589.349 274.971 589.443 275.242C589.545 275.503 589.681 275.732 589.849 275.928C590.026 276.124 590.231 276.278 590.465 276.39C590.698 276.493 590.95 276.544 591.221 276.544C591.491 276.544 591.743 276.493 591.977 276.39C592.21 276.278 592.411 276.124 592.579 275.928C592.756 275.732 592.891 275.499 592.985 275.228C593.087 274.957 593.139 274.659 593.139 274.332C593.139 274.015 593.087 273.721 592.985 273.45C592.891 273.179 592.756 272.946 592.579 272.75C592.411 272.554 592.21 272.405 591.977 272.302C591.743 272.19 591.491 272.134 591.221 272.134C590.95 272.134 590.698 272.19 590.465 272.302C590.231 272.414 590.026 272.568 589.849 272.764C589.681 272.96 589.545 273.193 589.443 273.464C589.349 273.735 589.303 274.029 589.303 274.346ZM600.439 278.14C599.86 278.14 599.356 278.014 598.927 277.762C598.498 277.501 598.162 277.151 597.919 276.712V280.982H596.043V270.664H597.681V271.924C597.952 271.495 598.302 271.159 598.731 270.916C599.16 270.664 599.655 270.538 600.215 270.538C600.71 270.538 601.167 270.641 601.587 270.846C602.007 271.042 602.366 271.313 602.665 271.658C602.973 271.994 603.211 272.395 603.379 272.862C603.556 273.319 603.645 273.805 603.645 274.318C603.645 274.85 603.566 275.349 603.407 275.816C603.248 276.283 603.024 276.689 602.735 277.034C602.455 277.379 602.119 277.65 601.727 277.846C601.335 278.042 600.906 278.14 600.439 278.14ZM599.809 276.544C600.089 276.544 600.346 276.483 600.579 276.362C600.822 276.241 601.027 276.077 601.195 275.872C601.363 275.667 601.494 275.429 601.587 275.158C601.68 274.887 601.727 274.607 601.727 274.318C601.727 274.01 601.676 273.725 601.573 273.464C601.47 273.193 601.326 272.96 601.139 272.764C600.962 272.568 600.747 272.414 600.495 272.302C600.252 272.19 599.986 272.134 599.697 272.134C599.52 272.134 599.338 272.167 599.151 272.232C598.964 272.288 598.792 272.372 598.633 272.484C598.474 272.596 598.33 272.727 598.199 272.876C598.078 273.025 597.984 273.189 597.919 273.366V275.088C598.087 275.508 598.344 275.858 598.689 276.138C599.034 276.409 599.408 276.544 599.809 276.544ZM607.408 278.14C606.792 278.14 606.19 278.042 605.602 277.846C605.014 277.65 604.51 277.37 604.09 277.006L604.79 275.83C605.238 276.147 605.672 276.39 606.092 276.558C606.521 276.717 606.946 276.796 607.366 276.796C607.739 276.796 608.033 276.726 608.248 276.586C608.463 276.446 608.57 276.245 608.57 275.984C608.57 275.723 608.444 275.531 608.192 275.41C607.94 275.289 607.529 275.149 606.96 274.99C606.484 274.859 606.078 274.733 605.742 274.612C605.406 274.491 605.135 274.355 604.93 274.206C604.725 274.047 604.575 273.87 604.482 273.674C604.389 273.469 604.342 273.226 604.342 272.946C604.342 272.573 604.412 272.237 604.552 271.938C604.701 271.639 604.907 271.387 605.168 271.182C605.429 270.967 605.733 270.804 606.078 270.692C606.433 270.58 606.815 270.524 607.226 270.524C607.777 270.524 608.29 270.603 608.766 270.762C609.251 270.921 609.695 271.177 610.096 271.532L609.34 272.666C608.967 272.386 608.603 272.181 608.248 272.05C607.903 271.919 607.557 271.854 607.212 271.854C606.895 271.854 606.629 271.919 606.414 272.05C606.199 272.181 606.092 272.391 606.092 272.68C606.092 272.811 606.115 272.918 606.162 273.002C606.218 273.086 606.302 273.161 606.414 273.226C606.526 273.291 606.671 273.357 606.848 273.422C607.035 273.478 607.263 273.539 607.534 273.604C608.038 273.735 608.467 273.865 608.822 273.996C609.186 274.127 609.48 274.276 609.704 274.444C609.937 274.612 610.105 274.808 610.208 275.032C610.32 275.247 610.376 275.508 610.376 275.816C610.376 276.535 610.11 277.104 609.578 277.524C609.046 277.935 608.323 278.14 607.408 278.14Z" fill="#373737"/>
<rect y="326" width="185" height="53" rx="8" fill="#FA8500"/>
<path d="M73.793 356.34C73.793 356.94 73.673 357.467 73.433 357.92C73.193 358.373 72.8597 358.753 72.433 359.06C72.0197 359.367 71.533 359.6 70.973 359.76C70.4264 359.92 69.8397 360 69.213 360H62.353V345.8H69.953C70.4464 345.8 70.893 345.907 71.293 346.12C71.693 346.333 72.033 346.613 72.313 346.96C72.593 347.293 72.8064 347.68 72.953 348.12C73.113 348.547 73.193 348.98 73.193 349.42C73.193 350.113 73.0197 350.767 72.673 351.38C72.3264 351.98 71.8197 352.427 71.153 352.72C71.9664 352.96 72.6064 353.393 73.073 354.02C73.553 354.633 73.793 355.407 73.793 356.34ZM71.013 355.82C71.013 355.567 70.9664 355.327 70.873 355.1C70.793 354.86 70.6797 354.653 70.533 354.48C70.3864 354.307 70.213 354.173 70.013 354.08C69.813 353.973 69.593 353.92 69.353 353.92H65.113V357.66H69.213C69.4664 357.66 69.6997 357.613 69.913 357.52C70.1397 357.427 70.333 357.3 70.493 357.14C70.653 356.967 70.7797 356.767 70.873 356.54C70.9664 356.313 71.013 356.073 71.013 355.82ZM65.113 348.16V351.74H68.793C69.2597 351.74 69.653 351.58 69.973 351.26C70.3064 350.94 70.473 350.5 70.473 349.94C70.473 349.393 70.3197 348.96 70.013 348.64C69.7197 348.32 69.353 348.16 68.913 348.16H65.113ZM78.4868 360.2C77.4068 360.2 76.5868 359.853 76.0268 359.16C75.4668 358.467 75.1868 357.44 75.1868 356.08V349.52H77.8668V355.5C77.8668 357.113 78.4468 357.92 79.6068 357.92C80.1268 357.92 80.6268 357.767 81.1068 357.46C81.6001 357.14 82.0001 356.66 82.3068 356.02V349.52H84.9868V356.92C84.9868 357.2 85.0335 357.4 85.1268 357.52C85.2335 357.64 85.4001 357.707 85.6268 357.72V360C85.3601 360.053 85.1335 360.087 84.9468 360.1C84.7735 360.113 84.6135 360.12 84.4668 360.12C83.9868 360.12 83.5935 360.013 83.2868 359.8C82.9935 359.573 82.8201 359.267 82.7668 358.88L82.7068 358.04C82.2401 358.76 81.6401 359.3 80.9068 359.66C80.1735 360.02 79.3668 360.2 78.4868 360.2ZM93.5301 359.46C93.1701 359.62 92.7301 359.78 92.2101 359.94C91.6901 360.1 91.1434 360.18 90.5701 360.18C90.1967 360.18 89.8434 360.133 89.5101 360.04C89.1901 359.947 88.9034 359.8 88.6501 359.6C88.4101 359.387 88.2167 359.12 88.0701 358.8C87.9234 358.467 87.8501 358.067 87.8501 357.6V351.58H86.4701V349.52H87.8501V346.12H90.5301V349.52H92.7301V351.58H90.5301V356.7C90.5301 357.073 90.6234 357.34 90.8101 357.5C91.0101 357.647 91.2501 357.72 91.5301 357.72C91.8101 357.72 92.0834 357.673 92.3501 357.58C92.6167 357.487 92.8301 357.407 92.9901 357.34L93.5301 359.46ZM100.806 359.46C100.446 359.62 100.006 359.78 99.4859 359.94C98.9659 360.1 98.4192 360.18 97.8459 360.18C97.4725 360.18 97.1192 360.133 96.7859 360.04C96.4659 359.947 96.1792 359.8 95.9259 359.6C95.6859 359.387 95.4925 359.12 95.3459 358.8C95.1992 358.467 95.1259 358.067 95.1259 357.6V351.58H93.7459V349.52H95.1259V346.12H97.8059V349.52H100.006V351.58H97.8059V356.7C97.8059 357.073 97.8992 357.34 98.0859 357.5C98.2859 357.647 98.5259 357.72 98.8059 357.72C99.0859 357.72 99.3592 357.673 99.6259 357.58C99.8925 357.487 100.106 357.407 100.266 357.34L100.806 359.46ZM106.388 360.2C105.534 360.2 104.768 360.053 104.088 359.76C103.408 359.467 102.828 359.073 102.348 358.58C101.881 358.073 101.521 357.493 101.268 356.84C101.014 356.187 100.888 355.5 100.888 354.78C100.888 354.047 101.014 353.353 101.268 352.7C101.521 352.047 101.881 351.473 102.348 350.98C102.828 350.473 103.408 350.073 104.088 349.78C104.768 349.487 105.534 349.34 106.388 349.34C107.241 349.34 108.001 349.487 108.668 349.78C109.348 350.073 109.921 350.473 110.388 350.98C110.868 351.473 111.234 352.047 111.488 352.7C111.741 353.353 111.868 354.047 111.868 354.78C111.868 355.5 111.741 356.187 111.488 356.84C111.234 357.493 110.874 358.073 110.408 358.58C109.941 359.073 109.368 359.467 108.688 359.76C108.008 360.053 107.241 360.2 106.388 360.2ZM103.648 354.78C103.648 355.247 103.714 355.673 103.848 356.06C103.994 356.433 104.188 356.76 104.428 357.04C104.681 357.32 104.974 357.54 105.308 357.7C105.641 357.847 106.001 357.92 106.388 357.92C106.774 357.92 107.134 357.847 107.468 357.7C107.801 357.54 108.088 357.32 108.328 357.04C108.581 356.76 108.774 356.427 108.908 356.04C109.054 355.653 109.128 355.227 109.128 354.76C109.128 354.307 109.054 353.887 108.908 353.5C108.774 353.113 108.581 352.78 108.328 352.5C108.088 352.22 107.801 352.007 107.468 351.86C107.134 351.7 106.774 351.62 106.388 351.62C106.001 351.62 105.641 351.7 105.308 351.86C104.974 352.02 104.681 352.24 104.428 352.52C104.188 352.8 103.994 353.133 103.848 353.52C103.714 353.907 103.648 354.327 103.648 354.78ZM123.017 360H120.337V354.12C120.337 353.28 120.19 352.667 119.897 352.28C119.603 351.893 119.197 351.7 118.677 351.7C118.41 351.7 118.137 351.753 117.857 351.86C117.577 351.967 117.31 352.12 117.057 352.32C116.817 352.507 116.597 352.733 116.397 353C116.197 353.267 116.05 353.56 115.957 353.88V360H113.277V349.52H115.697V351.46C116.083 350.793 116.643 350.273 117.377 349.9C118.11 349.527 118.937 349.34 119.857 349.34C120.51 349.34 121.043 349.46 121.457 349.7C121.87 349.94 122.19 350.253 122.417 350.64C122.643 351.027 122.797 351.467 122.877 351.96C122.97 352.453 123.017 352.953 123.017 353.46V360Z" fill="#E7E7E7"/>
<rect x="227" y="326" width="185" height="53" rx="8" fill="#FA8500"/>
<path d="M286.877 360V345.8H292.037C293.197 345.8 294.211 345.987 295.077 346.36C295.957 346.733 296.691 347.24 297.277 347.88C297.864 348.52 298.304 349.273 298.597 350.14C298.891 350.993 299.037 351.907 299.037 352.88C299.037 353.96 298.871 354.94 298.537 355.82C298.217 356.687 297.751 357.433 297.137 358.06C296.524 358.673 295.784 359.153 294.917 359.5C294.064 359.833 293.104 360 292.037 360H286.877ZM296.257 352.88C296.257 352.2 296.164 351.573 295.977 351C295.791 350.427 295.517 349.933 295.157 349.52C294.797 349.107 294.351 348.787 293.817 348.56C293.297 348.333 292.704 348.22 292.037 348.22H289.637V357.58H292.037C292.717 357.58 293.317 357.46 293.837 357.22C294.371 356.98 294.811 356.653 295.157 356.24C295.517 355.813 295.791 355.313 295.977 354.74C296.164 354.167 296.257 353.547 296.257 352.88ZM300.534 360V349.52H303.214V360H300.534ZM300.534 348.06V345.4H303.214V348.06H300.534ZM309.191 360.2C308.311 360.2 307.451 360.06 306.611 359.78C305.771 359.5 305.051 359.1 304.451 358.58L305.451 356.9C306.091 357.353 306.711 357.7 307.311 357.94C307.925 358.167 308.531 358.28 309.131 358.28C309.665 358.28 310.085 358.18 310.391 357.98C310.698 357.78 310.851 357.493 310.851 357.12C310.851 356.747 310.671 356.473 310.311 356.3C309.951 356.127 309.365 355.927 308.551 355.7C307.871 355.513 307.291 355.333 306.811 355.16C306.331 354.987 305.945 354.793 305.651 354.58C305.358 354.353 305.145 354.1 305.011 353.82C304.878 353.527 304.811 353.18 304.811 352.78C304.811 352.247 304.911 351.767 305.111 351.34C305.325 350.913 305.618 350.553 305.991 350.26C306.365 349.953 306.798 349.72 307.291 349.56C307.798 349.4 308.345 349.32 308.931 349.32C309.718 349.32 310.451 349.433 311.131 349.66C311.825 349.887 312.458 350.253 313.031 350.76L311.951 352.38C311.418 351.98 310.898 351.687 310.391 351.5C309.898 351.313 309.405 351.22 308.911 351.22C308.458 351.22 308.078 351.313 307.771 351.5C307.465 351.687 307.311 351.987 307.311 352.4C307.311 352.587 307.345 352.74 307.411 352.86C307.491 352.98 307.611 353.087 307.771 353.18C307.931 353.273 308.138 353.367 308.391 353.46C308.658 353.54 308.985 353.627 309.371 353.72C310.091 353.907 310.705 354.093 311.211 354.28C311.731 354.467 312.151 354.68 312.471 354.92C312.805 355.16 313.045 355.44 313.191 355.76C313.351 356.067 313.431 356.44 313.431 356.88C313.431 357.907 313.051 358.72 312.291 359.32C311.531 359.907 310.498 360.2 309.191 360.2ZM321.053 360.2C320.226 360.2 319.506 360.02 318.893 359.66C318.279 359.287 317.799 358.787 317.453 358.16V364.26H314.773V349.52H317.113V351.32C317.499 350.707 317.999 350.227 318.613 349.88C319.226 349.52 319.933 349.34 320.733 349.34C321.439 349.34 322.093 349.487 322.693 349.78C323.293 350.06 323.806 350.447 324.233 350.94C324.673 351.42 325.013 351.993 325.253 352.66C325.506 353.313 325.633 354.007 325.633 354.74C325.633 355.5 325.519 356.213 325.293 356.88C325.066 357.547 324.746 358.127 324.333 358.62C323.933 359.113 323.453 359.5 322.893 359.78C322.333 360.06 321.719 360.2 321.053 360.2ZM320.153 357.92C320.553 357.92 320.919 357.833 321.253 357.66C321.599 357.487 321.893 357.253 322.133 356.96C322.373 356.667 322.559 356.327 322.693 355.94C322.826 355.553 322.893 355.153 322.893 354.74C322.893 354.3 322.819 353.893 322.673 353.52C322.526 353.133 322.319 352.8 322.053 352.52C321.799 352.24 321.493 352.02 321.133 351.86C320.786 351.7 320.406 351.62 319.993 351.62C319.739 351.62 319.479 351.667 319.213 351.76C318.946 351.84 318.699 351.96 318.473 352.12C318.246 352.28 318.039 352.467 317.853 352.68C317.679 352.893 317.546 353.127 317.453 353.38V355.84C317.693 356.44 318.059 356.94 318.553 357.34C319.046 357.727 319.579 357.92 320.153 357.92ZM327.029 345.4H329.709V356.64C329.709 357.027 329.802 357.327 329.989 357.54C330.175 357.753 330.442 357.86 330.789 357.86C330.949 357.86 331.122 357.833 331.309 357.78C331.509 357.727 331.695 357.66 331.869 357.58L332.229 359.62C331.869 359.793 331.449 359.927 330.969 360.02C330.489 360.113 330.055 360.16 329.669 360.16C328.829 360.16 328.175 359.94 327.709 359.5C327.255 359.047 327.029 358.407 327.029 357.58V345.4ZM335.856 360.2C335.35 360.2 334.876 360.12 334.436 359.96C333.996 359.787 333.616 359.553 333.296 359.26C332.976 358.953 332.723 358.6 332.536 358.2C332.363 357.8 332.276 357.36 332.276 356.88C332.276 356.387 332.383 355.933 332.596 355.52C332.823 355.093 333.13 354.733 333.516 354.44C333.916 354.147 334.39 353.92 334.936 353.76C335.483 353.587 336.083 353.5 336.736 353.5C337.203 353.5 337.656 353.54 338.096 353.62C338.55 353.7 338.95 353.813 339.296 353.96V353.36C339.296 352.667 339.096 352.133 338.696 351.76C338.31 351.387 337.73 351.2 336.956 351.2C336.396 351.2 335.85 351.3 335.316 351.5C334.783 351.7 334.236 351.993 333.676 352.38L332.856 350.68C334.203 349.787 335.656 349.34 337.216 349.34C338.723 349.34 339.89 349.713 340.716 350.46C341.556 351.193 341.976 352.26 341.976 353.66V356.92C341.976 357.2 342.023 357.4 342.116 357.52C342.223 357.64 342.39 357.707 342.616 357.72V360C342.163 360.093 341.77 360.14 341.436 360.14C340.93 360.14 340.536 360.027 340.256 359.8C339.99 359.573 339.823 359.273 339.756 358.9L339.696 358.32C339.23 358.933 338.663 359.4 337.996 359.72C337.33 360.04 336.616 360.2 335.856 360.2ZM336.616 358.24C337.07 358.24 337.496 358.16 337.896 358C338.31 357.84 338.63 357.627 338.856 357.36C339.15 357.133 339.296 356.88 339.296 356.6V355.4C338.976 355.28 338.63 355.187 338.256 355.12C337.883 355.04 337.523 355 337.176 355C336.483 355 335.916 355.16 335.476 355.48C335.036 355.787 334.816 356.18 334.816 356.66C334.816 357.113 334.99 357.493 335.336 357.8C335.683 358.093 336.11 358.24 336.616 358.24ZM344.047 362.04C344.273 362.107 344.493 362.153 344.707 362.18C344.92 362.22 345.1 362.24 345.247 362.24C345.42 362.24 345.58 362.207 345.727 362.14C345.873 362.073 346.007 361.953 346.127 361.78C346.247 361.62 346.367 361.393 346.487 361.1C346.607 360.807 346.733 360.44 346.867 360L342.727 349.52H345.487L348.327 357.68L350.847 349.52H353.367L348.967 362.08C348.713 362.813 348.28 363.413 347.667 363.88C347.053 364.347 346.293 364.58 345.387 364.58C345.173 364.58 344.953 364.56 344.727 364.52C344.513 364.493 344.287 364.44 344.047 364.36V362.04Z" fill="#E7E7E7"/>
<rect x="454" y="326" width="185" height="53" rx="8" fill="#FA8500"/>
<path d="M527.793 356.34C527.793 356.94 527.673 357.467 527.433 357.92C527.193 358.373 526.86 358.753 526.433 359.06C526.02 359.367 525.533 359.6 524.973 359.76C524.426 359.92 523.84 360 523.213 360H516.353V345.8H523.953C524.446 345.8 524.893 345.907 525.293 346.12C525.693 346.333 526.033 346.613 526.313 346.96C526.593 347.293 526.806 347.68 526.953 348.12C527.113 348.547 527.193 348.98 527.193 349.42C527.193 350.113 527.02 350.767 526.673 351.38C526.326 351.98 525.82 352.427 525.153 352.72C525.966 352.96 526.606 353.393 527.073 354.02C527.553 354.633 527.793 355.407 527.793 356.34ZM525.013 355.82C525.013 355.567 524.966 355.327 524.873 355.1C524.793 354.86 524.68 354.653 524.533 354.48C524.386 354.307 524.213 354.173 524.013 354.08C523.813 353.973 523.593 353.92 523.353 353.92H519.113V357.66H523.213C523.466 357.66 523.7 357.613 523.913 357.52C524.14 357.427 524.333 357.3 524.493 357.14C524.653 356.967 524.78 356.767 524.873 356.54C524.966 356.313 525.013 356.073 525.013 355.82ZM519.113 348.16V351.74H522.793C523.26 351.74 523.653 351.58 523.973 351.26C524.306 350.94 524.473 350.5 524.473 349.94C524.473 349.393 524.32 348.96 524.013 348.64C523.72 348.32 523.353 348.16 522.913 348.16H519.113ZM532.487 360.2C531.407 360.2 530.587 359.853 530.027 359.16C529.467 358.467 529.187 357.44 529.187 356.08V349.52H531.867V355.5C531.867 357.113 532.447 357.92 533.607 357.92C534.127 357.92 534.627 357.767 535.107 357.46C535.6 357.14 536 356.66 536.307 356.02V349.52H538.987V356.92C538.987 357.2 539.033 357.4 539.127 357.52C539.233 357.64 539.4 357.707 539.627 357.72V360C539.36 360.053 539.133 360.087 538.947 360.1C538.773 360.113 538.613 360.12 538.467 360.12C537.987 360.12 537.593 360.013 537.287 359.8C536.993 359.573 536.82 359.267 536.767 358.88L536.707 358.04C536.24 358.76 535.64 359.3 534.907 359.66C534.173 360.02 533.367 360.2 532.487 360.2ZM547.53 359.46C547.17 359.62 546.73 359.78 546.21 359.94C545.69 360.1 545.143 360.18 544.57 360.18C544.197 360.18 543.843 360.133 543.51 360.04C543.19 359.947 542.903 359.8 542.65 359.6C542.41 359.387 542.217 359.12 542.07 358.8C541.923 358.467 541.85 358.067 541.85 357.6V351.58H540.47V349.52H541.85V346.12H544.53V349.52H546.73V351.58H544.53V356.7C544.53 357.073 544.623 357.34 544.81 357.5C545.01 357.647 545.25 357.72 545.53 357.72C545.81 357.72 546.083 357.673 546.35 357.58C546.617 357.487 546.83 357.407 546.99 357.34L547.53 359.46ZM554.806 359.46C554.446 359.62 554.006 359.78 553.486 359.94C552.966 360.1 552.419 360.18 551.846 360.18C551.473 360.18 551.119 360.133 550.786 360.04C550.466 359.947 550.179 359.8 549.926 359.6C549.686 359.387 549.493 359.12 549.346 358.8C549.199 358.467 549.126 358.067 549.126 357.6V351.58H547.746V349.52H549.126V346.12H551.806V349.52H554.006V351.58H551.806V356.7C551.806 357.073 551.899 357.34 552.086 357.5C552.286 357.647 552.526 357.72 552.806 357.72C553.086 357.72 553.359 357.673 553.626 357.58C553.893 357.487 554.106 357.407 554.266 357.34L554.806 359.46ZM560.388 360.2C559.534 360.2 558.768 360.053 558.088 359.76C557.408 359.467 556.828 359.073 556.348 358.58C555.881 358.073 555.521 357.493 555.268 356.84C555.014 356.187 554.888 355.5 554.888 354.78C554.888 354.047 555.014 353.353 555.268 352.7C555.521 352.047 555.881 351.473 556.348 350.98C556.828 350.473 557.408 350.073 558.088 349.78C558.768 349.487 559.534 349.34 560.388 349.34C561.241 349.34 562.001 349.487 562.668 349.78C563.348 350.073 563.921 350.473 564.388 350.98C564.868 351.473 565.234 352.047 565.488 352.7C565.741 353.353 565.868 354.047 565.868 354.78C565.868 355.5 565.741 356.187 565.488 356.84C565.234 357.493 564.874 358.073 564.408 358.58C563.941 359.073 563.368 359.467 562.688 359.76C562.008 360.053 561.241 360.2 560.388 360.2ZM557.648 354.78C557.648 355.247 557.714 355.673 557.848 356.06C557.994 356.433 558.188 356.76 558.428 357.04C558.681 357.32 558.974 357.54 559.308 357.7C559.641 357.847 560.001 357.92 560.388 357.92C560.774 357.92 561.134 357.847 561.468 357.7C561.801 357.54 562.088 357.32 562.328 357.04C562.581 356.76 562.774 356.427 562.908 356.04C563.054 355.653 563.128 355.227 563.128 354.76C563.128 354.307 563.054 353.887 562.908 353.5C562.774 353.113 562.581 352.78 562.328 352.5C562.088 352.22 561.801 352.007 561.468 351.86C561.134 351.7 560.774 351.62 560.388 351.62C560.001 351.62 559.641 351.7 559.308 351.86C558.974 352.02 558.681 352.24 558.428 352.52C558.188 352.8 557.994 353.133 557.848 353.52C557.714 353.907 557.648 354.327 557.648 354.78ZM577.017 360H574.337V354.12C574.337 353.28 574.19 352.667 573.897 352.28C573.603 351.893 573.197 351.7 572.677 351.7C572.41 351.7 572.137 351.753 571.857 351.86C571.577 351.967 571.31 352.12 571.057 352.32C570.817 352.507 570.597 352.733 570.397 353C570.197 353.267 570.05 353.56 569.957 353.88V360H567.277V349.52H569.697V351.46C570.083 350.793 570.643 350.273 571.377 349.9C572.11 349.527 572.937 349.34 573.857 349.34C574.51 349.34 575.043 349.46 575.457 349.7C575.87 349.94 576.19 350.253 576.417 350.64C576.643 351.027 576.797 351.467 576.877 351.96C576.97 352.453 577.017 352.953 577.017 353.46V360Z" fill="#E7E7E7"/>
<path d="M320.061 100.061C319.475 100.646 318.525 100.646 317.939 100.061L308.393 90.5147C307.808 89.9289 307.808 88.9792 308.393 88.3934C308.979 87.8076 309.929 87.8076 310.515 88.3934L319 96.8787L327.485 88.3934C328.071 87.8076 329.021 87.8076 329.607 88.3934C330.192 88.9792 330.192 89.9289 329.607 90.5147L320.061 100.061ZM320.5 -6.55671e-08L320.5 99L317.5 99L317.5 6.55671e-08L320.5 -6.55671e-08Z" fill="black"/>
<path d="M251 31.5H387C391.142 31.5 394.5 34.8579 394.5 39V67.5C394.5 71.6421 391.142 75 387 75H251C246.858 75 243.5 71.6421 243.5 67.5V58.9551V39C243.5 34.8579 246.858 31.5 251 31.5Z" fill="#EEEEEE" stroke="#373737"/>
<path d="M274.37 58V48.06H278.766C279.224 48.06 279.644 48.158 280.026 48.354C280.418 48.5407 280.754 48.7927 281.034 49.11C281.314 49.418 281.534 49.7727 281.692 50.174C281.851 50.566 281.93 50.9627 281.93 51.364C281.93 52.008 281.767 52.596 281.44 53.128C281.123 53.6507 280.689 54.0287 280.138 54.262L282.406 58H280.236L278.206 54.668H276.302V58H274.37ZM276.302 52.974H278.724C278.902 52.974 279.065 52.932 279.214 52.848C279.373 52.764 279.508 52.652 279.62 52.512C279.732 52.3627 279.821 52.19 279.886 51.994C279.952 51.798 279.984 51.588 279.984 51.364C279.984 51.1307 279.947 50.916 279.872 50.72C279.798 50.524 279.695 50.356 279.564 50.216C279.443 50.0667 279.298 49.9547 279.13 49.88C278.972 49.796 278.808 49.754 278.64 49.754H276.302V52.974ZM286.416 58.14C285.828 58.14 285.296 58.042 284.82 57.846C284.344 57.6407 283.938 57.3653 283.602 57.02C283.266 56.6747 283.004 56.2733 282.818 55.816C282.64 55.3587 282.552 54.878 282.552 54.374C282.552 53.8513 282.64 53.3613 282.818 52.904C282.995 52.4373 283.252 52.0313 283.588 51.686C283.924 51.3313 284.33 51.0513 284.806 50.846C285.291 50.6407 285.832 50.538 286.43 50.538C287.027 50.538 287.559 50.6407 288.026 50.846C288.502 51.0513 288.903 51.3267 289.23 51.672C289.566 52.0173 289.818 52.4187 289.986 52.876C290.163 53.3333 290.252 53.8093 290.252 54.304C290.252 54.4253 290.247 54.542 290.238 54.654C290.238 54.766 290.228 54.8593 290.21 54.934H284.54C284.568 55.2233 284.638 55.48 284.75 55.704C284.862 55.928 285.006 56.1193 285.184 56.278C285.361 56.4367 285.562 56.558 285.786 56.642C286.01 56.726 286.243 56.768 286.486 56.768C286.859 56.768 287.209 56.6793 287.536 56.502C287.872 56.3153 288.1 56.0727 288.222 55.774L289.832 56.222C289.561 56.782 289.127 57.244 288.53 57.608C287.942 57.9627 287.237 58.14 286.416 58.14ZM288.32 53.716C288.273 53.1653 288.068 52.7267 287.704 52.4C287.349 52.064 286.915 51.896 286.402 51.896C286.15 51.896 285.912 51.9427 285.688 52.036C285.473 52.12 285.282 52.2413 285.114 52.4C284.946 52.5587 284.806 52.75 284.694 52.974C284.591 53.198 284.53 53.4453 284.512 53.716H288.32ZM290.653 54.332C290.653 53.8187 290.741 53.3333 290.919 52.876C291.096 52.4187 291.353 52.0173 291.689 51.672C292.025 51.3267 292.431 51.0513 292.907 50.846C293.383 50.6407 293.919 50.538 294.517 50.538C295.319 50.538 296.001 50.7107 296.561 51.056C297.13 51.4013 297.555 51.854 297.835 52.414L296.001 52.974C295.842 52.7033 295.632 52.498 295.371 52.358C295.109 52.2087 294.82 52.134 294.503 52.134C294.232 52.134 293.98 52.19 293.747 52.302C293.513 52.4047 293.308 52.554 293.131 52.75C292.963 52.9367 292.827 53.1653 292.725 53.436C292.631 53.7067 292.585 54.0053 292.585 54.332C292.585 54.6587 292.636 54.9573 292.739 55.228C292.841 55.4987 292.977 55.732 293.145 55.928C293.322 56.124 293.527 56.278 293.761 56.39C293.994 56.4927 294.241 56.544 294.503 56.544C294.839 56.544 295.147 56.46 295.427 56.292C295.716 56.124 295.917 55.9187 296.029 55.676L297.863 56.236C297.611 56.796 297.195 57.2533 296.617 57.608C296.038 57.9627 295.343 58.14 294.531 58.14C293.933 58.14 293.397 58.0373 292.921 57.832C292.445 57.6267 292.039 57.3513 291.703 57.006C291.367 56.6513 291.105 56.2453 290.919 55.788C290.741 55.3213 290.653 54.836 290.653 54.332ZM302.071 58.14C301.483 58.14 300.951 58.042 300.475 57.846C299.999 57.6407 299.593 57.3653 299.257 57.02C298.921 56.6747 298.659 56.2733 298.473 55.816C298.295 55.3587 298.207 54.878 298.207 54.374C298.207 53.8513 298.295 53.3613 298.473 52.904C298.65 52.4373 298.907 52.0313 299.243 51.686C299.579 51.3313 299.985 51.0513 300.461 50.846C300.946 50.6407 301.487 50.538 302.085 50.538C302.682 50.538 303.214 50.6407 303.681 50.846C304.157 51.0513 304.558 51.3267 304.885 51.672C305.221 52.0173 305.473 52.4187 305.641 52.876C305.818 53.3333 305.907 53.8093 305.907 54.304C305.907 54.4253 305.902 54.542 305.893 54.654C305.893 54.766 305.883 54.8593 305.865 54.934H300.195C300.223 55.2233 300.293 55.48 300.405 55.704C300.517 55.928 300.661 56.1193 300.839 56.278C301.016 56.4367 301.217 56.558 301.441 56.642C301.665 56.726 301.898 56.768 302.141 56.768C302.514 56.768 302.864 56.6793 303.191 56.502C303.527 56.3153 303.755 56.0727 303.877 55.774L305.487 56.222C305.216 56.782 304.782 57.244 304.185 57.608C303.597 57.9627 302.892 58.14 302.071 58.14ZM303.975 53.716C303.928 53.1653 303.723 52.7267 303.359 52.4C303.004 52.064 302.57 51.896 302.057 51.896C301.805 51.896 301.567 51.9427 301.343 52.036C301.128 52.12 300.937 52.2413 300.769 52.4C300.601 52.5587 300.461 52.75 300.349 52.974C300.246 53.198 300.185 53.4453 300.167 53.716H303.975ZM306.769 58V50.664H308.645V58H306.769ZM306.769 49.642V47.78H308.645V49.642H306.769ZM312.032 58L309.33 50.664H311.262L313.124 56.474L315 50.664H316.764L314.062 58H312.032ZM320.617 58.14C320.029 58.14 319.497 58.042 319.021 57.846C318.545 57.6407 318.139 57.3653 317.803 57.02C317.467 56.6747 317.206 56.2733 317.019 55.816C316.842 55.3587 316.753 54.878 316.753 54.374C316.753 53.8513 316.842 53.3613 317.019 52.904C317.197 52.4373 317.453 52.0313 317.789 51.686C318.125 51.3313 318.531 51.0513 319.007 50.846C319.493 50.6407 320.034 50.538 320.631 50.538C321.229 50.538 321.761 50.6407 322.227 50.846C322.703 51.0513 323.105 51.3267 323.431 51.672C323.767 52.0173 324.019 52.4187 324.187 52.876C324.365 53.3333 324.453 53.8093 324.453 54.304C324.453 54.4253 324.449 54.542 324.439 54.654C324.439 54.766 324.43 54.8593 324.411 54.934H318.741C318.769 55.2233 318.839 55.48 318.951 55.704C319.063 55.928 319.208 56.1193 319.385 56.278C319.563 56.4367 319.763 56.558 319.987 56.642C320.211 56.726 320.445 56.768 320.687 56.768C321.061 56.768 321.411 56.6793 321.737 56.502C322.073 56.3153 322.302 56.0727 322.423 55.774L324.033 56.222C323.763 56.782 323.329 57.244 322.731 57.608C322.143 57.9627 321.439 58.14 320.617 58.14ZM322.521 53.716C322.475 53.1653 322.269 52.7267 321.905 52.4C321.551 52.064 321.117 51.896 320.603 51.896C320.351 51.896 320.113 51.9427 319.889 52.036C319.675 52.12 319.483 52.2413 319.315 52.4C319.147 52.5587 319.007 52.75 318.895 52.974C318.793 53.198 318.732 53.4453 318.713 53.716H322.521ZM332.795 58.14C332.217 58.14 331.713 58.014 331.283 57.762C330.854 57.5007 330.518 57.1507 330.275 56.712V60.982H328.399V50.664H330.037V51.924C330.308 51.4947 330.658 51.1587 331.087 50.916C331.517 50.664 332.011 50.538 332.571 50.538C333.066 50.538 333.523 50.6407 333.943 50.846C334.363 51.042 334.723 51.3127 335.021 51.658C335.329 51.994 335.567 52.3953 335.735 52.862C335.913 53.3193 336.001 53.8047 336.001 54.318C336.001 54.85 335.922 55.3493 335.763 55.816C335.605 56.2827 335.381 56.6887 335.091 57.034C334.811 57.3793 334.475 57.65 334.083 57.846C333.691 58.042 333.262 58.14 332.795 58.14ZM332.165 56.544C332.445 56.544 332.702 56.4833 332.935 56.362C333.178 56.2407 333.383 56.0773 333.551 55.872C333.719 55.6667 333.85 55.4287 333.943 55.158C334.037 54.8873 334.083 54.6073 334.083 54.318C334.083 54.01 334.032 53.7253 333.929 53.464C333.827 53.1933 333.682 52.96 333.495 52.764C333.318 52.568 333.103 52.414 332.851 52.302C332.609 52.19 332.343 52.134 332.053 52.134C331.876 52.134 331.694 52.1667 331.507 52.232C331.321 52.288 331.148 52.372 330.989 52.484C330.831 52.596 330.686 52.7267 330.555 52.876C330.434 53.0253 330.341 53.1887 330.275 53.366V55.088C330.443 55.508 330.7 55.858 331.045 56.138C331.391 56.4087 331.764 56.544 332.165 56.544ZM341.361 52.288C340.791 52.2973 340.283 52.4093 339.835 52.624C339.387 52.8293 339.065 53.142 338.869 53.562V58H336.993V50.664H338.715V52.232C338.845 51.98 338.999 51.756 339.177 51.56C339.354 51.3547 339.545 51.1773 339.751 51.028C339.956 50.8787 340.161 50.7667 340.367 50.692C340.581 50.608 340.787 50.566 340.983 50.566C341.085 50.566 341.16 50.566 341.207 50.566C341.263 50.566 341.314 50.5707 341.361 50.58V52.288ZM345.145 58.14C344.548 58.14 344.011 58.0373 343.535 57.832C343.059 57.6267 342.653 57.3513 342.317 57.006C341.991 56.6513 341.739 56.2453 341.561 55.788C341.384 55.3307 341.295 54.85 341.295 54.346C341.295 53.8327 341.384 53.3473 341.561 52.89C341.739 52.4327 341.991 52.0313 342.317 51.686C342.653 51.3313 343.059 51.0513 343.535 50.846C344.011 50.6407 344.548 50.538 345.145 50.538C345.743 50.538 346.275 50.6407 346.741 50.846C347.217 51.0513 347.619 51.3313 347.945 51.686C348.281 52.0313 348.538 52.4327 348.715 52.89C348.893 53.3473 348.981 53.8327 348.981 54.346C348.981 54.85 348.893 55.3307 348.715 55.788C348.538 56.2453 348.286 56.6513 347.959 57.006C347.633 57.3513 347.231 57.6267 346.755 57.832C346.279 58.0373 345.743 58.14 345.145 58.14ZM343.227 54.346C343.227 54.6727 343.274 54.9713 343.367 55.242C343.47 55.5033 343.605 55.732 343.773 55.928C343.951 56.124 344.156 56.278 344.389 56.39C344.623 56.4927 344.875 56.544 345.145 56.544C345.416 56.544 345.668 56.4927 345.901 56.39C346.135 56.278 346.335 56.124 346.503 55.928C346.681 55.732 346.816 55.4987 346.909 55.228C347.012 54.9573 347.063 54.6587 347.063 54.332C347.063 54.0147 347.012 53.7207 346.909 53.45C346.816 53.1793 346.681 52.946 346.503 52.75C346.335 52.554 346.135 52.4047 345.901 52.302C345.668 52.19 345.416 52.134 345.145 52.134C344.875 52.134 344.623 52.19 344.389 52.302C344.156 52.414 343.951 52.568 343.773 52.764C343.605 52.96 343.47 53.1933 343.367 53.464C343.274 53.7347 343.227 54.0287 343.227 54.346ZM354.364 58.14C353.785 58.14 353.281 58.014 352.852 57.762C352.422 57.5007 352.086 57.1507 351.844 56.712V60.982H349.968V50.664H351.606V51.924C351.876 51.4947 352.226 51.1587 352.656 50.916C353.085 50.664 353.58 50.538 354.14 50.538C354.634 50.538 355.092 50.6407 355.512 50.846C355.932 51.042 356.291 51.3127 356.59 51.658C356.898 51.994 357.136 52.3953 357.304 52.862C357.481 53.3193 357.57 53.8047 357.57 54.318C357.57 54.85 357.49 55.3493 357.332 55.816C357.173 56.2827 356.949 56.6887 356.66 57.034C356.38 57.3793 356.044 57.65 355.652 57.846C355.26 58.042 354.83 58.14 354.364 58.14ZM353.734 56.544C354.014 56.544 354.27 56.4833 354.504 56.362C354.746 56.2407 354.952 56.0773 355.12 55.872C355.288 55.6667 355.418 55.4287 355.512 55.158C355.605 54.8873 355.652 54.6073 355.652 54.318C355.652 54.01 355.6 53.7253 355.498 53.464C355.395 53.1933 355.25 52.96 355.064 52.764C354.886 52.568 354.672 52.414 354.42 52.302C354.177 52.19 353.911 52.134 353.622 52.134C353.444 52.134 353.262 52.1667 353.076 52.232C352.889 52.288 352.716 52.372 352.558 52.484C352.399 52.596 352.254 52.7267 352.124 52.876C352.002 53.0253 351.909 53.1887 351.844 53.366V55.088C352.012 55.508 352.268 55.858 352.614 56.138C352.959 56.4087 353.332 56.544 353.734 56.544ZM361.333 58.14C360.717 58.14 360.115 58.042 359.527 57.846C358.939 57.65 358.435 57.37 358.015 57.006L358.715 55.83C359.163 56.1473 359.597 56.39 360.017 56.558C360.446 56.7167 360.871 56.796 361.291 56.796C361.664 56.796 361.958 56.726 362.173 56.586C362.387 56.446 362.495 56.2453 362.495 55.984C362.495 55.7227 362.369 55.5313 362.117 55.41C361.865 55.2887 361.454 55.1487 360.885 54.99C360.409 54.8593 360.003 54.7333 359.667 54.612C359.331 54.4907 359.06 54.3553 358.855 54.206C358.649 54.0473 358.5 53.87 358.407 53.674C358.313 53.4687 358.267 53.226 358.267 52.946C358.267 52.5727 358.337 52.2367 358.477 51.938C358.626 51.6393 358.831 51.3873 359.093 51.182C359.354 50.9673 359.657 50.804 360.003 50.692C360.357 50.58 360.74 50.524 361.151 50.524C361.701 50.524 362.215 50.6033 362.691 50.762C363.176 50.9207 363.619 51.1773 364.021 51.532L363.265 52.666C362.891 52.386 362.527 52.1807 362.173 52.05C361.827 51.9193 361.482 51.854 361.137 51.854C360.819 51.854 360.553 51.9193 360.339 52.05C360.124 52.1807 360.017 52.3907 360.017 52.68C360.017 52.8107 360.04 52.918 360.087 53.002C360.143 53.086 360.227 53.1607 360.339 53.226C360.451 53.2913 360.595 53.3567 360.773 53.422C360.959 53.478 361.188 53.5387 361.459 53.604C361.963 53.7347 362.392 53.8653 362.747 53.996C363.111 54.1267 363.405 54.276 363.629 54.444C363.862 54.612 364.03 54.808 364.133 55.032C364.245 55.2467 364.301 55.508 364.301 55.816C364.301 56.5347 364.035 57.104 363.503 57.524C362.971 57.9347 362.247 58.14 361.333 58.14Z" fill="#373737"/>
</svg>
