<svg width="389" height="164" viewBox="0 0 389 164" fill="none" xmlns="http://www.w3.org/2000/svg">
<path d="M183.048 43.644V48H168.432V43.644H173.544V32.736C173.328 33.024 172.98 33.324 172.5 33.636C172.044 33.924 171.54 34.2 170.988 34.464C170.436 34.728 169.86 34.944 169.26 35.112C168.684 35.28 168.168 35.364 167.712 35.364V30.864C168.144 30.864 168.672 30.732 169.296 30.468C169.92 30.18 170.532 29.844 171.132 29.46C171.732 29.076 172.248 28.704 172.68 28.344C173.136 27.96 173.424 27.66 173.544 27.444H178.476V43.644H183.048ZM184.565 48C184.565 46.92 184.649 45.948 184.817 45.084C184.985 44.196 185.273 43.38 185.681 42.636C186.113 41.892 186.689 41.196 187.409 40.548C188.153 39.9 189.089 39.264 190.217 38.64C191.201 38.112 192.065 37.656 192.809 37.272C193.577 36.864 194.213 36.492 194.717 36.156C195.221 35.82 195.605 35.484 195.869 35.148C196.133 34.788 196.265 34.38 196.265 33.924C196.265 33.204 195.977 32.592 195.401 32.088C194.825 31.56 193.997 31.296 192.917 31.296C192.341 31.296 191.813 31.38 191.333 31.548C190.853 31.692 190.397 31.896 189.965 32.16C189.557 32.424 189.173 32.724 188.813 33.06C188.477 33.372 188.165 33.708 187.877 34.068L184.781 30.504C185.093 30.168 185.537 29.808 186.113 29.424C186.689 29.016 187.361 28.644 188.129 28.308C188.921 27.948 189.785 27.66 190.721 27.444C191.681 27.204 192.701 27.084 193.781 27.084C195.005 27.084 196.097 27.24 197.057 27.552C198.017 27.84 198.821 28.26 199.469 28.812C200.141 29.34 200.645 29.988 200.981 30.756C201.341 31.5 201.521 32.316 201.521 33.204C201.521 34.044 201.365 34.788 201.053 35.436C200.741 36.084 200.345 36.66 199.865 37.164C199.385 37.668 198.857 38.112 198.281 38.496C197.729 38.856 197.189 39.18 196.661 39.468C196.229 39.708 195.737 39.984 195.185 40.296C194.633 40.608 194.081 40.956 193.529 41.34C193.001 41.7 192.509 42.084 192.053 42.492C191.597 42.876 191.249 43.26 191.009 43.644H201.917V48H184.565ZM216.514 39.504C218.002 39.768 219.202 40.488 220.114 41.664C221.05 42.816 221.518 44.232 221.518 45.912C221.518 47.04 221.29 48.06 220.834 48.972C220.402 49.884 219.778 50.652 218.962 51.276C218.17 51.924 217.198 52.416 216.046 52.752C214.894 53.112 213.598 53.292 212.158 53.292C210.334 53.292 208.714 52.992 207.298 52.392C205.906 51.816 204.742 50.964 203.806 49.836L206.542 46.416C207.166 47.208 207.91 47.82 208.774 48.252C209.638 48.684 210.718 48.9 212.014 48.9C213.478 48.9 214.594 48.612 215.362 48.036C216.13 47.46 216.514 46.572 216.514 45.372C216.514 44.124 216.07 43.164 215.182 42.492C214.294 41.82 212.95 41.484 211.15 41.484H210.142V37.884H211.258C212.746 37.884 213.898 37.56 214.714 36.912C215.53 36.24 215.938 35.388 215.938 34.356C215.938 33.372 215.602 32.64 214.93 32.16C214.258 31.68 213.382 31.44 212.302 31.44C211.198 31.44 210.202 31.692 209.314 32.196C208.45 32.7 207.742 33.408 207.19 34.32L204.166 30.936C204.526 30.384 205.006 29.892 205.606 29.46C206.206 29.004 206.878 28.62 207.622 28.308C208.39 27.972 209.218 27.72 210.106 27.552C210.994 27.36 211.906 27.264 212.842 27.264C214.066 27.264 215.182 27.42 216.19 27.732C217.198 28.044 218.062 28.476 218.782 29.028C219.526 29.58 220.09 30.252 220.474 31.044C220.882 31.812 221.086 32.676 221.086 33.636C221.086 34.356 220.978 35.04 220.762 35.688C220.546 36.336 220.234 36.924 219.826 37.452C219.418 37.98 218.926 38.424 218.35 38.784C217.798 39.144 217.186 39.384 216.514 39.504Z" fill="#373737"/>
<rect x="0.5" y="0.5" width="388" height="69" rx="4.5" stroke="#128EE5"/>
<rect x="249.5" y="0.5" width="69" height="69" fill="#128EE5" fill-opacity="0.2" stroke="#128EE5"/>
<path d="M294.5 36.5H285.5V45.5H282.5V36.5H273.5V33.5H282.5V24.5H285.5V33.5H294.5V36.5Z" fill="black" fill-opacity="0.54"/>
<path d="M319 0H384C386.761 0 389 2.23858 389 5V65C389 67.7614 386.761 70 384 70H319V0Z" fill="#128EE5" fill-opacity="0.2"/>
<path fill-rule="evenodd" clip-rule="evenodd" d="M363.365 37.58L359.075 42.185H368V44.75H355.055V42.515L361.31 35.69C361.85 35.12 362.285 34.595 362.63 34.145C362.99 33.695 363.26 33.275 363.47 32.9C363.68 32.525 363.815 32.18 363.905 31.85C363.98 31.52 364.025 31.205 364.025 30.875C364.025 30.44 363.95 30.035 363.83 29.66C363.695 29.285 363.515 28.955 363.275 28.685C363.035 28.415 362.735 28.19 362.39 28.04C362.045 27.89 361.64 27.815 361.175 27.815C360.635 27.815 360.14 27.905 359.735 28.085C359.33 28.265 358.985 28.505 358.715 28.82C358.46 29.135 358.25 29.51 358.115 29.945C357.995 30.35 357.935 30.785 357.92 31.25H354.71C354.725 30.455 354.86 29.705 355.13 29C355.415 28.25 355.835 27.605 356.39 27.05C356.93 26.495 357.62 26.045 358.43 25.73C359.24 25.415 360.17 25.25 361.205 25.25C362.165 25.25 363.02 25.37 363.785 25.61C364.52 25.865 365.165 26.21 365.675 26.675C366.185 27.125 366.575 27.68 366.845 28.34C367.115 29 367.25 29.735 367.25 30.53C367.25 31.115 367.16 31.715 366.965 32.3C366.77 32.885 366.5 33.47 366.155 34.055C365.81 34.64 365.405 35.225 364.925 35.81C364.445 36.395 363.935 36.995 363.365 37.58ZM344 28.25H347V34.25H353V37.25H347V43.25H344V37.25H338V34.25H344V28.25Z" fill="black" fill-opacity="0.54"/>
<path d="M0 5C0 2.23858 2.23858 0 5 0H70V70H5C2.23858 70 0 67.7614 0 65V5Z" fill="#128EE5" fill-opacity="0.2"/>
<path fill-rule="evenodd" clip-rule="evenodd" d="M44.615 37.58L40.325 42.185H49.25V44.75H36.305V42.515L42.56 35.69C43.1 35.12 43.535 34.595 43.88 34.145C44.24 33.695 44.51 33.275 44.72 32.9C44.93 32.525 45.065 32.18 45.155 31.85C45.23 31.52 45.275 31.205 45.275 30.875C45.275 30.44 45.2 30.035 45.08 29.66C44.945 29.285 44.765 28.955 44.525 28.685C44.285 28.415 43.985 28.19 43.64 28.04C43.295 27.89 42.89 27.815 42.425 27.815C41.885 27.815 41.39 27.905 40.985 28.085C40.58 28.265 40.235 28.505 39.965 28.82C39.71 29.135 39.5 29.51 39.365 29.945C39.245 30.35 39.185 30.785 39.17 31.25H35.96C35.975 30.455 36.11 29.705 36.38 29C36.665 28.25 37.085 27.605 37.64 27.05C38.18 26.495 38.87 26.045 39.68 25.73C40.49 25.415 41.42 25.25 42.455 25.25C43.415 25.25 44.27 25.37 45.035 25.61C45.77 25.865 46.415 26.21 46.925 26.675C47.435 27.125 47.825 27.68 48.095 28.34C48.365 29 48.5 29.735 48.5 30.53C48.5 31.115 48.41 31.715 48.215 32.3C48.02 32.885 47.75 33.47 47.405 34.055C47.06 34.64 46.655 35.225 46.175 35.81C45.695 36.395 45.185 36.995 44.615 37.58ZM20.75 37.25V34.25H32.75V37.25H20.75Z" fill="black" fill-opacity="0.54"/>
<path d="M70.5 0.5H139.5V69.5H70.5V0.5Z" fill="#128EE5" fill-opacity="0.2" stroke="#128EE5"/>
<path d="M115.5 36.5H94.5V33.5H115.5V36.5Z" fill="black" fill-opacity="0.54"/>
<path d="M113.048 137.644V142H98.4322V137.644H103.544V126.736C103.328 127.024 102.98 127.324 102.5 127.636C102.044 127.924 101.54 128.2 100.988 128.464C100.436 128.728 99.8602 128.944 99.2602 129.112C98.6842 129.28 98.1682 129.364 97.7122 129.364V124.864C98.1442 124.864 98.6722 124.732 99.2962 124.468C99.9202 124.18 100.532 123.844 101.132 123.46C101.732 123.076 102.248 122.704 102.68 122.344C103.136 121.96 103.424 121.66 103.544 121.444H108.476V137.644H113.048ZM114.565 142C114.565 140.92 114.649 139.948 114.817 139.084C114.985 138.196 115.273 137.38 115.681 136.636C116.113 135.892 116.689 135.196 117.409 134.548C118.153 133.9 119.089 133.264 120.217 132.64C121.201 132.112 122.065 131.656 122.809 131.272C123.577 130.864 124.213 130.492 124.717 130.156C125.221 129.82 125.605 129.484 125.869 129.148C126.133 128.788 126.265 128.38 126.265 127.924C126.265 127.204 125.977 126.592 125.401 126.088C124.825 125.56 123.997 125.296 122.917 125.296C122.341 125.296 121.813 125.38 121.333 125.548C120.853 125.692 120.397 125.896 119.965 126.16C119.557 126.424 119.173 126.724 118.813 127.06C118.477 127.372 118.165 127.708 117.877 128.068L114.781 124.504C115.093 124.168 115.537 123.808 116.113 123.424C116.689 123.016 117.361 122.644 118.129 122.308C118.921 121.948 119.785 121.66 120.721 121.444C121.681 121.204 122.701 121.084 123.781 121.084C125.005 121.084 126.097 121.24 127.057 121.552C128.017 121.84 128.821 122.26 129.469 122.812C130.141 123.34 130.645 123.988 130.981 124.756C131.341 125.5 131.521 126.316 131.521 127.204C131.521 128.044 131.365 128.788 131.053 129.436C130.741 130.084 130.345 130.66 129.865 131.164C129.385 131.668 128.857 132.112 128.281 132.496C127.729 132.856 127.189 133.18 126.661 133.468C126.229 133.708 125.737 133.984 125.185 134.296C124.633 134.608 124.081 134.956 123.529 135.34C123.001 135.7 122.509 136.084 122.053 136.492C121.597 136.876 121.249 137.26 121.009 137.644H131.917V142H114.565ZM146.514 133.504C148.002 133.768 149.202 134.488 150.114 135.664C151.05 136.816 151.518 138.232 151.518 139.912C151.518 141.04 151.29 142.06 150.834 142.972C150.402 143.884 149.778 144.652 148.962 145.276C148.17 145.924 147.198 146.416 146.046 146.752C144.894 147.112 143.598 147.292 142.158 147.292C140.334 147.292 138.714 146.992 137.298 146.392C135.906 145.816 134.742 144.964 133.806 143.836L136.542 140.416C137.166 141.208 137.91 141.82 138.774 142.252C139.638 142.684 140.718 142.9 142.014 142.9C143.478 142.9 144.594 142.612 145.362 142.036C146.13 141.46 146.514 140.572 146.514 139.372C146.514 138.124 146.07 137.164 145.182 136.492C144.294 135.82 142.95 135.484 141.15 135.484H140.142V131.884H141.258C142.746 131.884 143.898 131.56 144.714 130.912C145.53 130.24 145.938 129.388 145.938 128.356C145.938 127.372 145.602 126.64 144.93 126.16C144.258 125.68 143.382 125.44 142.302 125.44C141.198 125.44 140.202 125.692 139.314 126.196C138.45 126.7 137.742 127.408 137.19 128.32L134.166 124.936C134.526 124.384 135.006 123.892 135.606 123.46C136.206 123.004 136.878 122.62 137.622 122.308C138.39 121.972 139.218 121.72 140.106 121.552C140.994 121.36 141.906 121.264 142.842 121.264C144.066 121.264 145.182 121.42 146.19 121.732C147.198 122.044 148.062 122.476 148.782 123.028C149.526 123.58 150.09 124.252 150.474 125.044C150.882 125.812 151.086 126.676 151.086 127.636C151.086 128.356 150.978 129.04 150.762 129.688C150.546 130.336 150.234 130.924 149.826 131.452C149.418 131.98 148.926 132.424 148.35 132.784C147.798 133.144 147.186 133.384 146.514 133.504Z" fill="#373737"/>
<rect x="0.5" y="94.5" width="388" height="69" rx="4.5" stroke="#128EE5"/>
<rect x="249.5" y="94.5" width="69" height="69" fill="#128EE5" fill-opacity="0.2" stroke="#128EE5"/>
<path d="M294.5 130.5H285.5V139.5H282.5V130.5H273.5V127.5H282.5V118.5H285.5V127.5H294.5V130.5Z" fill="black" fill-opacity="0.54"/>
<path d="M319 94H384C386.761 94 389 96.2386 389 99V159C389 161.761 386.761 164 384 164H319V94Z" fill="#128EE5" fill-opacity="0.2"/>
<path fill-rule="evenodd" clip-rule="evenodd" d="M363.365 131.58L359.075 136.185H368V138.75H355.055V136.515L361.31 129.69C361.85 129.12 362.285 128.595 362.63 128.145C362.99 127.695 363.26 127.275 363.47 126.9C363.68 126.525 363.815 126.18 363.905 125.85C363.98 125.52 364.025 125.205 364.025 124.875C364.025 124.44 363.95 124.035 363.83 123.66C363.695 123.285 363.515 122.955 363.275 122.685C363.035 122.415 362.735 122.19 362.39 122.04C362.045 121.89 361.64 121.815 361.175 121.815C360.635 121.815 360.14 121.905 359.735 122.085C359.33 122.265 358.985 122.505 358.715 122.82C358.46 123.135 358.25 123.51 358.115 123.945C357.995 124.35 357.935 124.785 357.92 125.25H354.71C354.725 124.455 354.86 123.705 355.13 123C355.415 122.25 355.835 121.605 356.39 121.05C356.93 120.495 357.62 120.045 358.43 119.73C359.24 119.415 360.17 119.25 361.205 119.25C362.165 119.25 363.02 119.37 363.785 119.61C364.52 119.865 365.165 120.21 365.675 120.675C366.185 121.125 366.575 121.68 366.845 122.34C367.115 123 367.25 123.735 367.25 124.53C367.25 125.115 367.16 125.715 366.965 126.3C366.77 126.885 366.5 127.47 366.155 128.055C365.81 128.64 365.405 129.225 364.925 129.81C364.445 130.395 363.935 130.995 363.365 131.58ZM344 122.25H347V128.25H353V131.25H347V137.25H344V131.25H338V128.25H344V122.25Z" fill="black" fill-opacity="0.54"/>
<path d="M0 99C0 96.2386 2.23858 94 5 94H70V164H5C2.23858 164 0 161.761 0 159V99Z" fill="#128EE5" fill-opacity="0.2"/>
<path fill-rule="evenodd" clip-rule="evenodd" d="M44.615 131.58L40.325 136.185H49.25V138.75H36.305V136.515L42.56 129.69C43.1 129.12 43.535 128.595 43.88 128.145C44.24 127.695 44.51 127.275 44.72 126.9C44.93 126.525 45.065 126.18 45.155 125.85C45.23 125.52 45.275 125.205 45.275 124.875C45.275 124.44 45.2 124.035 45.08 123.66C44.945 123.285 44.765 122.955 44.525 122.685C44.285 122.415 43.985 122.19 43.64 122.04C43.295 121.89 42.89 121.815 42.425 121.815C41.885 121.815 41.39 121.905 40.985 122.085C40.58 122.265 40.235 122.505 39.965 122.82C39.71 123.135 39.5 123.51 39.365 123.945C39.245 124.35 39.185 124.785 39.17 125.25H35.96C35.975 124.455 36.11 123.705 36.38 123C36.665 122.25 37.085 121.605 37.64 121.05C38.18 120.495 38.87 120.045 39.68 119.73C40.49 119.415 41.42 119.25 42.455 119.25C43.415 119.25 44.27 119.37 45.035 119.61C45.77 119.865 46.415 120.21 46.925 120.675C47.435 121.125 47.825 121.68 48.095 122.34C48.365 123 48.5 123.735 48.5 124.53C48.5 125.115 48.41 125.715 48.215 126.3C48.02 126.885 47.75 127.47 47.405 128.055C47.06 128.64 46.655 129.225 46.175 129.81C45.695 130.395 45.185 130.995 44.615 131.58ZM20.75 131.25V128.25H32.75V131.25H20.75Z" fill="black" fill-opacity="0.54"/>
<path d="M179.5 94.5H248.5V163.5H179.5V94.5Z" fill="#128EE5" fill-opacity="0.2" stroke="#128EE5"/>
<path d="M224.5 130.5H203.5V127.5H224.5V130.5Z" fill="black" fill-opacity="0.54"/>
</svg>
