<svg width="610" height="222" viewBox="0 0 610 222" fill="none" xmlns="http://www.w3.org/2000/svg">
<path d="M466 109.5H602C606.142 109.5 609.5 112.858 609.5 117V145.5C609.5 149.642 606.142 153 602 153H466C461.858 153 458.5 149.642 458.5 145.5V136.955V117C458.5 112.858 461.858 109.5 466 109.5Z" fill="#EEEEEE" stroke="#373737"/>
<path d="M478.242 119.63V126H476.31V116.06H477.808L482.988 122.584V116.074H484.92V126H483.352L478.242 119.63ZM489.818 126.14C489.22 126.14 488.684 126.037 488.208 125.832C487.732 125.627 487.326 125.351 486.99 125.006C486.663 124.651 486.411 124.245 486.234 123.788C486.056 123.331 485.968 122.85 485.968 122.346C485.968 121.833 486.056 121.347 486.234 120.89C486.411 120.433 486.663 120.031 486.99 119.686C487.326 119.331 487.732 119.051 488.208 118.846C488.684 118.641 489.22 118.538 489.818 118.538C490.415 118.538 490.947 118.641 491.414 118.846C491.89 119.051 492.291 119.331 492.618 119.686C492.954 120.031 493.21 120.433 493.388 120.89C493.565 121.347 493.654 121.833 493.654 122.346C493.654 122.85 493.565 123.331 493.388 123.788C493.21 124.245 492.958 124.651 492.632 125.006C492.305 125.351 491.904 125.627 491.428 125.832C490.952 126.037 490.415 126.14 489.818 126.14ZM487.9 122.346C487.9 122.673 487.946 122.971 488.04 123.242C488.142 123.503 488.278 123.732 488.446 123.928C488.623 124.124 488.828 124.278 489.062 124.39C489.295 124.493 489.547 124.544 489.818 124.544C490.088 124.544 490.34 124.493 490.574 124.39C490.807 124.278 491.008 124.124 491.176 123.928C491.353 123.732 491.488 123.499 491.582 123.228C491.684 122.957 491.736 122.659 491.736 122.332C491.736 122.015 491.684 121.721 491.582 121.45C491.488 121.179 491.353 120.946 491.176 120.75C491.008 120.554 490.807 120.405 490.574 120.302C490.34 120.19 490.088 120.134 489.818 120.134C489.547 120.134 489.295 120.19 489.062 120.302C488.828 120.414 488.623 120.568 488.446 120.764C488.278 120.96 488.142 121.193 488.04 121.464C487.946 121.735 487.9 122.029 487.9 122.346ZM498.94 125.622C498.688 125.734 498.38 125.846 498.016 125.958C497.652 126.07 497.269 126.126 496.868 126.126C496.607 126.126 496.359 126.093 496.126 126.028C495.902 125.963 495.701 125.86 495.524 125.72C495.356 125.571 495.221 125.384 495.118 125.16C495.015 124.927 494.964 124.647 494.964 124.32V120.106H493.998V118.664H494.964V116.284H496.84V118.664H498.38V120.106H496.84V123.69C496.84 123.951 496.905 124.138 497.036 124.25C497.176 124.353 497.344 124.404 497.54 124.404C497.736 124.404 497.927 124.371 498.114 124.306C498.301 124.241 498.45 124.185 498.562 124.138L498.94 125.622ZM514.116 126H512.24V121.884C512.24 121.296 512.138 120.867 511.932 120.596C511.736 120.325 511.461 120.19 511.106 120.19C510.733 120.19 510.383 120.335 510.056 120.624C509.73 120.904 509.496 121.273 509.356 121.73V126H507.48V121.884C507.48 121.296 507.378 120.867 507.172 120.596C506.976 120.325 506.701 120.19 506.346 120.19C505.982 120.19 505.632 120.33 505.296 120.61C504.97 120.89 504.736 121.259 504.596 121.716V126H502.72V118.664H504.414V120.022C504.685 119.546 505.054 119.182 505.52 118.93C505.996 118.669 506.538 118.538 507.144 118.538C507.76 118.538 508.236 118.687 508.572 118.986C508.908 119.285 509.123 119.653 509.216 120.092C509.515 119.588 509.893 119.205 510.35 118.944C510.808 118.673 511.33 118.538 511.918 118.538C512.366 118.538 512.735 118.622 513.024 118.79C513.314 118.958 513.538 119.177 513.696 119.448C513.855 119.719 513.962 120.027 514.018 120.372C514.084 120.717 514.116 121.067 514.116 121.422V126ZM518.858 126.14C518.26 126.14 517.724 126.037 517.248 125.832C516.772 125.627 516.366 125.351 516.03 125.006C515.703 124.651 515.451 124.245 515.274 123.788C515.096 123.331 515.008 122.85 515.008 122.346C515.008 121.833 515.096 121.347 515.274 120.89C515.451 120.433 515.703 120.031 516.03 119.686C516.366 119.331 516.772 119.051 517.248 118.846C517.724 118.641 518.26 118.538 518.858 118.538C519.455 118.538 519.987 118.641 520.454 118.846C520.93 119.051 521.331 119.331 521.658 119.686C521.994 120.031 522.25 120.433 522.428 120.89C522.605 121.347 522.694 121.833 522.694 122.346C522.694 122.85 522.605 123.331 522.428 123.788C522.25 124.245 521.998 124.651 521.672 125.006C521.345 125.351 520.944 125.627 520.468 125.832C519.992 126.037 519.455 126.14 518.858 126.14ZM516.94 122.346C516.94 122.673 516.986 122.971 517.08 123.242C517.182 123.503 517.318 123.732 517.486 123.928C517.663 124.124 517.868 124.278 518.102 124.39C518.335 124.493 518.587 124.544 518.858 124.544C519.128 124.544 519.38 124.493 519.614 124.39C519.847 124.278 520.048 124.124 520.216 123.928C520.393 123.732 520.528 123.499 520.622 123.228C520.724 122.957 520.776 122.659 520.776 122.332C520.776 122.015 520.724 121.721 520.622 121.45C520.528 121.179 520.393 120.946 520.216 120.75C520.048 120.554 519.847 120.405 519.614 120.302C519.38 120.19 519.128 120.134 518.858 120.134C518.587 120.134 518.335 120.19 518.102 120.302C517.868 120.414 517.663 120.568 517.486 120.764C517.318 120.96 517.182 121.193 517.08 121.464C516.986 121.735 516.94 122.029 516.94 122.346ZM525.92 126.14C525.164 126.14 524.59 125.897 524.198 125.412C523.806 124.927 523.61 124.208 523.61 123.256V118.664H525.486V122.85C525.486 123.979 525.892 124.544 526.704 124.544C527.068 124.544 527.418 124.437 527.754 124.222C528.099 123.998 528.379 123.662 528.594 123.214V118.664H530.47V123.844C530.47 124.04 530.503 124.18 530.568 124.264C530.643 124.348 530.759 124.395 530.918 124.404V126C530.731 126.037 530.573 126.061 530.442 126.07C530.321 126.079 530.209 126.084 530.106 126.084C529.77 126.084 529.495 126.009 529.28 125.86C529.075 125.701 528.953 125.487 528.916 125.216L528.874 124.628C528.547 125.132 528.127 125.51 527.614 125.762C527.101 126.014 526.536 126.14 525.92 126.14ZM538.872 126H536.996V121.884C536.996 121.296 536.894 120.867 536.688 120.596C536.483 120.325 536.198 120.19 535.834 120.19C535.648 120.19 535.456 120.227 535.26 120.302C535.064 120.377 534.878 120.484 534.7 120.624C534.532 120.755 534.378 120.913 534.238 121.1C534.098 121.287 533.996 121.492 533.93 121.716V126H532.054V118.664H533.748V120.022C534.019 119.555 534.411 119.191 534.924 118.93C535.438 118.669 536.016 118.538 536.66 118.538C537.118 118.538 537.491 118.622 537.78 118.79C538.07 118.958 538.294 119.177 538.452 119.448C538.611 119.719 538.718 120.027 538.774 120.372C538.84 120.717 538.872 121.067 538.872 121.422V126ZM544.551 125.622C544.299 125.734 543.991 125.846 543.627 125.958C543.263 126.07 542.88 126.126 542.479 126.126C542.218 126.126 541.97 126.093 541.737 126.028C541.513 125.963 541.312 125.86 541.135 125.72C540.967 125.571 540.832 125.384 540.729 125.16C540.626 124.927 540.575 124.647 540.575 124.32V120.106H539.609V118.664H540.575V116.284H542.451V118.664H543.991V120.106H542.451V123.69C542.451 123.951 542.516 124.138 542.647 124.25C542.787 124.353 542.955 124.404 543.151 124.404C543.347 124.404 543.538 124.371 543.725 124.306C543.912 124.241 544.061 124.185 544.173 124.138L544.551 125.622ZM548.472 126.14C547.884 126.14 547.352 126.042 546.876 125.846C546.4 125.641 545.994 125.365 545.658 125.02C545.322 124.675 545.061 124.273 544.874 123.816C544.697 123.359 544.608 122.878 544.608 122.374C544.608 121.851 544.697 121.361 544.874 120.904C545.052 120.437 545.308 120.031 545.644 119.686C545.98 119.331 546.386 119.051 546.862 118.846C547.348 118.641 547.889 118.538 548.486 118.538C549.084 118.538 549.616 118.641 550.082 118.846C550.558 119.051 550.96 119.327 551.286 119.672C551.622 120.017 551.874 120.419 552.042 120.876C552.22 121.333 552.308 121.809 552.308 122.304C552.308 122.425 552.304 122.542 552.294 122.654C552.294 122.766 552.285 122.859 552.266 122.934H546.596C546.624 123.223 546.694 123.48 546.806 123.704C546.918 123.928 547.063 124.119 547.24 124.278C547.418 124.437 547.618 124.558 547.842 124.642C548.066 124.726 548.3 124.768 548.542 124.768C548.916 124.768 549.266 124.679 549.592 124.502C549.928 124.315 550.157 124.073 550.278 123.774L551.888 124.222C551.618 124.782 551.184 125.244 550.586 125.608C549.998 125.963 549.294 126.14 548.472 126.14ZM550.376 121.716C550.33 121.165 550.124 120.727 549.76 120.4C549.406 120.064 548.972 119.896 548.458 119.896C548.206 119.896 547.968 119.943 547.744 120.036C547.53 120.12 547.338 120.241 547.17 120.4C547.002 120.559 546.862 120.75 546.75 120.974C546.648 121.198 546.587 121.445 546.568 121.716H550.376ZM556.209 126.14C555.705 126.14 555.239 126.042 554.809 125.846C554.38 125.65 554.011 125.379 553.703 125.034C553.395 124.689 553.153 124.287 552.975 123.83C552.807 123.363 552.723 122.864 552.723 122.332C552.723 121.8 552.803 121.305 552.961 120.848C553.129 120.391 553.358 119.989 553.647 119.644C553.937 119.299 554.282 119.028 554.683 118.832C555.085 118.636 555.523 118.538 555.999 118.538C556.541 118.538 557.026 118.669 557.455 118.93C557.894 119.191 558.235 119.532 558.477 119.952V115.78H560.353V123.844C560.353 124.04 560.386 124.18 560.451 124.264C560.517 124.348 560.629 124.395 560.787 124.404V126C560.461 126.065 560.195 126.098 559.989 126.098C559.653 126.098 559.378 126.014 559.163 125.846C558.949 125.678 558.827 125.459 558.799 125.188L558.757 124.726C558.487 125.193 558.118 125.547 557.651 125.79C557.194 126.023 556.713 126.14 556.209 126.14ZM556.699 124.544C556.877 124.544 557.059 124.516 557.245 124.46C557.432 124.395 557.605 124.306 557.763 124.194C557.922 124.082 558.062 123.951 558.183 123.802C558.314 123.653 558.412 123.489 558.477 123.312V121.562C558.403 121.357 558.295 121.17 558.155 121.002C558.025 120.825 557.871 120.675 557.693 120.554C557.525 120.423 557.343 120.321 557.147 120.246C556.961 120.171 556.774 120.134 556.587 120.134C556.307 120.134 556.046 120.195 555.803 120.316C555.57 120.437 555.369 120.605 555.201 120.82C555.033 121.025 554.903 121.263 554.809 121.534C554.716 121.805 554.669 122.085 554.669 122.374C554.669 122.682 554.721 122.967 554.823 123.228C554.926 123.489 555.066 123.718 555.243 123.914C555.421 124.11 555.631 124.264 555.873 124.376C556.125 124.488 556.401 124.544 556.699 124.544ZM567.238 126.14C566.482 126.14 565.908 125.897 565.516 125.412C565.124 124.927 564.928 124.208 564.928 123.256V118.664H566.804V122.85C566.804 123.979 567.21 124.544 568.022 124.544C568.386 124.544 568.736 124.437 569.072 124.222C569.417 123.998 569.697 123.662 569.912 123.214V118.664H571.788V123.844C571.788 124.04 571.821 124.18 571.886 124.264C571.961 124.348 572.077 124.395 572.236 124.404V126C572.049 126.037 571.891 126.061 571.76 126.07C571.639 126.079 571.527 126.084 571.424 126.084C571.088 126.084 570.813 126.009 570.598 125.86C570.393 125.701 570.271 125.487 570.234 125.216L570.192 124.628C569.865 125.132 569.445 125.51 568.932 125.762C568.419 126.014 567.854 126.14 567.238 126.14ZM580.19 126H578.314V121.884C578.314 121.296 578.212 120.867 578.006 120.596C577.801 120.325 577.516 120.19 577.152 120.19C576.966 120.19 576.774 120.227 576.578 120.302C576.382 120.377 576.196 120.484 576.018 120.624C575.85 120.755 575.696 120.913 575.556 121.1C575.416 121.287 575.314 121.492 575.248 121.716V126H573.372V118.664H575.066V120.022C575.337 119.555 575.729 119.191 576.242 118.93C576.756 118.669 577.334 118.538 577.978 118.538C578.436 118.538 578.809 118.622 579.098 118.79C579.388 118.958 579.612 119.177 579.77 119.448C579.929 119.719 580.036 120.027 580.092 120.372C580.158 120.717 580.19 121.067 580.19 121.422V126ZM585.869 125.622C585.617 125.734 585.309 125.846 584.945 125.958C584.581 126.07 584.199 126.126 583.797 126.126C583.536 126.126 583.289 126.093 583.055 126.028C582.831 125.963 582.631 125.86 582.453 125.72C582.285 125.571 582.15 125.384 582.047 125.16C581.945 124.927 581.893 124.647 581.893 124.32V120.106H580.927V118.664H581.893V116.284H583.769V118.664H585.309V120.106H583.769V123.69C583.769 123.951 583.835 124.138 583.965 124.25C584.105 124.353 584.273 124.404 584.469 124.404C584.665 124.404 584.857 124.371 585.043 124.306C585.23 124.241 585.379 124.185 585.491 124.138L585.869 125.622ZM586.566 126V118.664H588.442V126H586.566ZM586.566 117.642V115.78H588.442V117.642H586.566ZM589.841 115.78H591.717V123.648C591.717 123.919 591.782 124.129 591.913 124.278C592.043 124.427 592.23 124.502 592.473 124.502C592.585 124.502 592.706 124.483 592.837 124.446C592.977 124.409 593.107 124.362 593.229 124.306L593.481 125.734C593.229 125.855 592.935 125.949 592.599 126.014C592.263 126.079 591.959 126.112 591.689 126.112C591.101 126.112 590.643 125.958 590.317 125.65C589.999 125.333 589.841 124.885 589.841 124.306V115.78ZM493.003 146.14C492.387 146.14 491.785 146.042 491.197 145.846C490.609 145.65 490.105 145.37 489.685 145.006L490.385 143.83C490.833 144.147 491.267 144.39 491.687 144.558C492.116 144.717 492.541 144.796 492.961 144.796C493.334 144.796 493.628 144.726 493.843 144.586C494.057 144.446 494.165 144.245 494.165 143.984C494.165 143.723 494.039 143.531 493.787 143.41C493.535 143.289 493.124 143.149 492.555 142.99C492.079 142.859 491.673 142.733 491.337 142.612C491.001 142.491 490.73 142.355 490.525 142.206C490.319 142.047 490.17 141.87 490.077 141.674C489.983 141.469 489.937 141.226 489.937 140.946C489.937 140.573 490.007 140.237 490.147 139.938C490.296 139.639 490.501 139.387 490.763 139.182C491.024 138.967 491.327 138.804 491.673 138.692C492.027 138.58 492.41 138.524 492.821 138.524C493.371 138.524 493.885 138.603 494.361 138.762C494.846 138.921 495.289 139.177 495.691 139.532L494.935 140.666C494.561 140.386 494.197 140.181 493.843 140.05C493.497 139.919 493.152 139.854 492.807 139.854C492.489 139.854 492.223 139.919 492.009 140.05C491.794 140.181 491.687 140.391 491.687 140.68C491.687 140.811 491.71 140.918 491.757 141.002C491.813 141.086 491.897 141.161 492.009 141.226C492.121 141.291 492.265 141.357 492.443 141.422C492.629 141.478 492.858 141.539 493.129 141.604C493.633 141.735 494.062 141.865 494.417 141.996C494.781 142.127 495.075 142.276 495.299 142.444C495.532 142.612 495.7 142.808 495.803 143.032C495.915 143.247 495.971 143.508 495.971 143.816C495.971 144.535 495.705 145.104 495.173 145.524C494.641 145.935 493.917 146.14 493.003 146.14ZM500.312 146.14C499.724 146.14 499.192 146.042 498.716 145.846C498.24 145.641 497.834 145.365 497.498 145.02C497.162 144.675 496.9 144.273 496.714 143.816C496.536 143.359 496.448 142.878 496.448 142.374C496.448 141.851 496.536 141.361 496.714 140.904C496.891 140.437 497.148 140.031 497.484 139.686C497.82 139.331 498.226 139.051 498.702 138.846C499.187 138.641 499.728 138.538 500.326 138.538C500.923 138.538 501.455 138.641 501.922 138.846C502.398 139.051 502.799 139.327 503.126 139.672C503.462 140.017 503.714 140.419 503.882 140.876C504.059 141.333 504.148 141.809 504.148 142.304C504.148 142.425 504.143 142.542 504.134 142.654C504.134 142.766 504.124 142.859 504.106 142.934H498.436C498.464 143.223 498.534 143.48 498.646 143.704C498.758 143.928 498.902 144.119 499.08 144.278C499.257 144.437 499.458 144.558 499.682 144.642C499.906 144.726 500.139 144.768 500.382 144.768C500.755 144.768 501.105 144.679 501.432 144.502C501.768 144.315 501.996 144.073 502.118 143.774L503.728 144.222C503.457 144.782 503.023 145.244 502.426 145.608C501.838 145.963 501.133 146.14 500.312 146.14ZM502.216 141.716C502.169 141.165 501.964 140.727 501.6 140.4C501.245 140.064 500.811 139.896 500.298 139.896C500.046 139.896 499.808 139.943 499.584 140.036C499.369 140.12 499.178 140.241 499.01 140.4C498.842 140.559 498.702 140.75 498.59 140.974C498.487 141.198 498.426 141.445 498.408 141.716H502.216ZM504.996 135.78H506.872V143.648C506.872 143.919 506.938 144.129 507.068 144.278C507.199 144.427 507.386 144.502 507.628 144.502C507.74 144.502 507.862 144.483 507.992 144.446C508.132 144.409 508.263 144.362 508.384 144.306L508.636 145.734C508.384 145.855 508.09 145.949 507.754 146.014C507.418 146.079 507.115 146.112 506.844 146.112C506.256 146.112 505.799 145.958 505.472 145.65C505.155 145.333 504.996 144.885 504.996 144.306V135.78ZM512.576 146.14C511.988 146.14 511.456 146.042 510.98 145.846C510.504 145.641 510.098 145.365 509.762 145.02C509.426 144.675 509.165 144.273 508.978 143.816C508.801 143.359 508.712 142.878 508.712 142.374C508.712 141.851 508.801 141.361 508.978 140.904C509.155 140.437 509.412 140.031 509.748 139.686C510.084 139.331 510.49 139.051 510.966 138.846C511.451 138.641 511.993 138.538 512.59 138.538C513.187 138.538 513.719 138.641 514.186 138.846C514.662 139.051 515.063 139.327 515.39 139.672C515.726 140.017 515.978 140.419 516.146 140.876C516.323 141.333 516.412 141.809 516.412 142.304C516.412 142.425 516.407 142.542 516.398 142.654C516.398 142.766 516.389 142.859 516.37 142.934H510.7C510.728 143.223 510.798 143.48 510.91 143.704C511.022 143.928 511.167 144.119 511.344 144.278C511.521 144.437 511.722 144.558 511.946 144.642C512.17 144.726 512.403 144.768 512.646 144.768C513.019 144.768 513.369 144.679 513.696 144.502C514.032 144.315 514.261 144.073 514.382 143.774L515.992 144.222C515.721 144.782 515.287 145.244 514.69 145.608C514.102 145.963 513.397 146.14 512.576 146.14ZM514.48 141.716C514.433 141.165 514.228 140.727 513.864 140.4C513.509 140.064 513.075 139.896 512.562 139.896C512.31 139.896 512.072 139.943 511.848 140.036C511.633 140.12 511.442 140.241 511.274 140.4C511.106 140.559 510.966 140.75 510.854 140.974C510.751 141.198 510.691 141.445 510.672 141.716H514.48ZM516.813 142.332C516.813 141.819 516.901 141.333 517.079 140.876C517.256 140.419 517.513 140.017 517.849 139.672C518.185 139.327 518.591 139.051 519.067 138.846C519.543 138.641 520.079 138.538 520.677 138.538C521.479 138.538 522.161 138.711 522.721 139.056C523.29 139.401 523.715 139.854 523.995 140.414L522.161 140.974C522.002 140.703 521.792 140.498 521.531 140.358C521.269 140.209 520.98 140.134 520.663 140.134C520.392 140.134 520.14 140.19 519.907 140.302C519.673 140.405 519.468 140.554 519.291 140.75C519.123 140.937 518.987 141.165 518.885 141.436C518.791 141.707 518.745 142.005 518.745 142.332C518.745 142.659 518.796 142.957 518.899 143.228C519.001 143.499 519.137 143.732 519.305 143.928C519.482 144.124 519.687 144.278 519.921 144.39C520.154 144.493 520.401 144.544 520.663 144.544C520.999 144.544 521.307 144.46 521.587 144.292C521.876 144.124 522.077 143.919 522.189 143.676L524.023 144.236C523.771 144.796 523.355 145.253 522.777 145.608C522.198 145.963 521.503 146.14 520.691 146.14C520.093 146.14 519.557 146.037 519.081 145.832C518.605 145.627 518.199 145.351 517.863 145.006C517.527 144.651 517.265 144.245 517.079 143.788C516.901 143.321 516.813 142.836 516.813 142.332ZM529.293 145.622C529.041 145.734 528.733 145.846 528.369 145.958C528.005 146.07 527.622 146.126 527.221 146.126C526.96 146.126 526.712 146.093 526.479 146.028C526.255 145.963 526.054 145.86 525.877 145.72C525.709 145.571 525.574 145.384 525.471 145.16C525.368 144.927 525.317 144.647 525.317 144.32V140.106H524.351V138.664H525.317V136.284H527.193V138.664H528.733V140.106H527.193V143.69C527.193 143.951 527.258 144.138 527.389 144.25C527.529 144.353 527.697 144.404 527.893 144.404C528.089 144.404 528.28 144.371 528.467 144.306C528.654 144.241 528.803 144.185 528.915 144.138L529.293 145.622ZM533.073 146V138.664H534.949V146H533.073ZM533.073 137.642V135.78H534.949V137.642H533.073ZM539.134 146.14C538.518 146.14 537.916 146.042 537.328 145.846C536.74 145.65 536.236 145.37 535.816 145.006L536.516 143.83C536.964 144.147 537.398 144.39 537.818 144.558C538.247 144.717 538.672 144.796 539.092 144.796C539.465 144.796 539.759 144.726 539.974 144.586C540.188 144.446 540.296 144.245 540.296 143.984C540.296 143.723 540.17 143.531 539.918 143.41C539.666 143.289 539.255 143.149 538.686 142.99C538.21 142.859 537.804 142.733 537.468 142.612C537.132 142.491 536.861 142.355 536.656 142.206C536.45 142.047 536.301 141.87 536.208 141.674C536.114 141.469 536.068 141.226 536.068 140.946C536.068 140.573 536.138 140.237 536.278 139.938C536.427 139.639 536.632 139.387 536.894 139.182C537.155 138.967 537.458 138.804 537.804 138.692C538.158 138.58 538.541 138.524 538.952 138.524C539.502 138.524 540.016 138.603 540.492 138.762C540.977 138.921 541.42 139.177 541.822 139.532L541.066 140.666C540.692 140.386 540.328 140.181 539.974 140.05C539.628 139.919 539.283 139.854 538.938 139.854C538.62 139.854 538.354 139.919 538.14 140.05C537.925 140.181 537.818 140.391 537.818 140.68C537.818 140.811 537.841 140.918 537.888 141.002C537.944 141.086 538.028 141.161 538.14 141.226C538.252 141.291 538.396 141.357 538.574 141.422C538.76 141.478 538.989 141.539 539.26 141.604C539.764 141.735 540.193 141.865 540.548 141.996C540.912 142.127 541.206 142.276 541.43 142.444C541.663 142.612 541.831 142.808 541.934 143.032C542.046 143.247 542.102 143.508 542.102 143.816C542.102 144.535 541.836 145.104 541.304 145.524C540.772 145.935 540.048 146.14 539.134 146.14ZM549.512 146.14C548.915 146.14 548.378 146.037 547.902 145.832C547.426 145.627 547.02 145.351 546.684 145.006C546.357 144.651 546.105 144.245 545.928 143.788C545.751 143.331 545.662 142.85 545.662 142.346C545.662 141.833 545.751 141.347 545.928 140.89C546.105 140.433 546.357 140.031 546.684 139.686C547.02 139.331 547.426 139.051 547.902 138.846C548.378 138.641 548.915 138.538 549.512 138.538C550.109 138.538 550.641 138.641 551.108 138.846C551.584 139.051 551.985 139.331 552.312 139.686C552.648 140.031 552.905 140.433 553.082 140.89C553.259 141.347 553.348 141.833 553.348 142.346C553.348 142.85 553.259 143.331 553.082 143.788C552.905 144.245 552.653 144.651 552.326 145.006C551.999 145.351 551.598 145.627 551.122 145.832C550.646 146.037 550.109 146.14 549.512 146.14ZM547.594 142.346C547.594 142.673 547.641 142.971 547.734 143.242C547.837 143.503 547.972 143.732 548.14 143.928C548.317 144.124 548.523 144.278 548.756 144.39C548.989 144.493 549.241 144.544 549.512 144.544C549.783 144.544 550.035 144.493 550.268 144.39C550.501 144.278 550.702 144.124 550.87 143.928C551.047 143.732 551.183 143.499 551.276 143.228C551.379 142.957 551.43 142.659 551.43 142.332C551.43 142.015 551.379 141.721 551.276 141.45C551.183 141.179 551.047 140.946 550.87 140.75C550.702 140.554 550.501 140.405 550.268 140.302C550.035 140.19 549.783 140.134 549.512 140.134C549.241 140.134 548.989 140.19 548.756 140.302C548.523 140.414 548.317 140.568 548.14 140.764C547.972 140.96 547.837 141.193 547.734 141.464C547.641 141.735 547.594 142.029 547.594 142.346ZM558.73 146.14C558.152 146.14 557.648 146.014 557.218 145.762C556.789 145.501 556.453 145.151 556.21 144.712V148.982H554.334V138.664H555.972V139.924C556.243 139.495 556.593 139.159 557.022 138.916C557.452 138.664 557.946 138.538 558.506 138.538C559.001 138.538 559.458 138.641 559.878 138.846C560.298 139.042 560.658 139.313 560.956 139.658C561.264 139.994 561.502 140.395 561.67 140.862C561.848 141.319 561.936 141.805 561.936 142.318C561.936 142.85 561.857 143.349 561.698 143.816C561.54 144.283 561.316 144.689 561.026 145.034C560.746 145.379 560.41 145.65 560.018 145.846C559.626 146.042 559.197 146.14 558.73 146.14ZM558.1 144.544C558.38 144.544 558.637 144.483 558.87 144.362C559.113 144.241 559.318 144.077 559.486 143.872C559.654 143.667 559.785 143.429 559.878 143.158C559.972 142.887 560.018 142.607 560.018 142.318C560.018 142.01 559.967 141.725 559.864 141.464C559.762 141.193 559.617 140.96 559.43 140.764C559.253 140.568 559.038 140.414 558.786 140.302C558.544 140.19 558.278 140.134 557.988 140.134C557.811 140.134 557.629 140.167 557.442 140.232C557.256 140.288 557.083 140.372 556.924 140.484C556.766 140.596 556.621 140.727 556.49 140.876C556.369 141.025 556.276 141.189 556.21 141.366V143.088C556.378 143.508 556.635 143.858 556.98 144.138C557.326 144.409 557.699 144.544 558.1 144.544ZM566.329 146.14C565.741 146.14 565.209 146.042 564.733 145.846C564.257 145.641 563.851 145.365 563.515 145.02C563.179 144.675 562.918 144.273 562.731 143.816C562.554 143.359 562.465 142.878 562.465 142.374C562.465 141.851 562.554 141.361 562.731 140.904C562.909 140.437 563.165 140.031 563.501 139.686C563.837 139.331 564.243 139.051 564.719 138.846C565.205 138.641 565.746 138.538 566.343 138.538C566.941 138.538 567.473 138.641 567.939 138.846C568.415 139.051 568.817 139.327 569.143 139.672C569.479 140.017 569.731 140.419 569.899 140.876C570.077 141.333 570.165 141.809 570.165 142.304C570.165 142.425 570.161 142.542 570.151 142.654C570.151 142.766 570.142 142.859 570.123 142.934H564.453C564.481 143.223 564.551 143.48 564.663 143.704C564.775 143.928 564.92 144.119 565.097 144.278C565.275 144.437 565.475 144.558 565.699 144.642C565.923 144.726 566.157 144.768 566.399 144.768C566.773 144.768 567.123 144.679 567.449 144.502C567.785 144.315 568.014 144.073 568.135 143.774L569.745 144.222C569.475 144.782 569.041 145.244 568.443 145.608C567.855 145.963 567.151 146.14 566.329 146.14ZM568.233 141.716C568.187 141.165 567.981 140.727 567.617 140.4C567.263 140.064 566.829 139.896 566.315 139.896C566.063 139.896 565.825 139.943 565.601 140.036C565.387 140.12 565.195 140.241 565.027 140.4C564.859 140.559 564.719 140.75 564.607 140.974C564.505 141.198 564.444 141.445 564.425 141.716H568.233ZM577.846 146H575.97V141.884C575.97 141.296 575.867 140.867 575.662 140.596C575.457 140.325 575.172 140.19 574.808 140.19C574.621 140.19 574.43 140.227 574.234 140.302C574.038 140.377 573.851 140.484 573.674 140.624C573.506 140.755 573.352 140.913 573.212 141.1C573.072 141.287 572.969 141.492 572.904 141.716V146H571.028V138.664H572.722V140.022C572.993 139.555 573.385 139.191 573.898 138.93C574.411 138.669 574.99 138.538 575.634 138.538C576.091 138.538 576.465 138.622 576.754 138.79C577.043 138.958 577.267 139.177 577.426 139.448C577.585 139.719 577.692 140.027 577.748 140.372C577.813 140.717 577.846 141.067 577.846 141.422V146Z" fill="#373737"/>
<path d="M8 24.5H144C148.142 24.5 151.5 27.8579 151.5 32V60.5C151.5 64.6421 148.142 68 144 68H8C3.85786 68 0.5 64.6421 0.5 60.5V51.9551V32C0.5 27.8579 3.85786 24.5 8 24.5Z" fill="#EEEEEE" stroke="#373737"/>
<path d="M8.94006 45.96C8.94006 45.3533 9.04739 44.756 9.26206 44.168C9.48606 43.5707 9.80806 43.0387 10.2281 42.572C10.6481 42.1053 11.1614 41.7273 11.7681 41.438C12.3747 41.1487 13.0654 41.004 13.8401 41.004C14.7547 41.004 15.5434 41.2047 16.2061 41.606C16.8781 42.0073 17.3774 42.53 17.7041 43.174L16.2201 44.196C16.0894 43.916 15.9307 43.6827 15.7441 43.496C15.5574 43.3 15.3567 43.146 15.1421 43.034C14.9274 42.922 14.7034 42.8427 14.4701 42.796C14.2367 42.74 14.0081 42.712 13.7841 42.712C13.2987 42.712 12.8741 42.81 12.5101 43.006C12.1554 43.202 11.8567 43.4587 11.6141 43.776C11.3807 44.084 11.2034 44.4387 11.0821 44.84C10.9607 45.232 10.9001 45.624 10.9001 46.016C10.9001 46.4547 10.9701 46.8793 11.1101 47.29C11.2501 47.6913 11.4461 48.046 11.6981 48.354C11.9594 48.662 12.2674 48.9093 12.6221 49.096C12.9861 49.2827 13.3827 49.376 13.8121 49.376C14.0361 49.376 14.2694 49.348 14.5121 49.292C14.7547 49.236 14.9834 49.1473 15.1981 49.026C15.4221 48.9047 15.6274 48.7507 15.8141 48.564C16.0007 48.368 16.1501 48.1347 16.2621 47.864L17.8441 48.774C17.6854 49.1473 17.4567 49.4787 17.1581 49.768C16.8687 50.048 16.5374 50.286 16.1641 50.482C15.8001 50.678 15.4081 50.8273 14.9881 50.93C14.5681 51.0327 14.1574 51.084 13.7561 51.084C13.0467 51.084 12.3981 50.9347 11.8101 50.636C11.2221 50.3373 10.7134 49.95 10.2841 49.474C9.86406 48.9887 9.53272 48.4427 9.29006 47.836C9.05672 47.22 8.94006 46.5947 8.94006 45.96ZM22.0657 51.14C21.4684 51.14 20.9317 51.0373 20.4557 50.832C19.9797 50.6267 19.5737 50.3513 19.2377 50.006C18.911 49.6513 18.659 49.2453 18.4817 48.788C18.3044 48.3307 18.2157 47.85 18.2157 47.346C18.2157 46.8327 18.3044 46.3473 18.4817 45.89C18.659 45.4327 18.911 45.0313 19.2377 44.686C19.5737 44.3313 19.9797 44.0513 20.4557 43.846C20.9317 43.6407 21.4684 43.538 22.0657 43.538C22.663 43.538 23.195 43.6407 23.6617 43.846C24.1377 44.0513 24.539 44.3313 24.8657 44.686C25.2017 45.0313 25.4584 45.4327 25.6357 45.89C25.813 46.3473 25.9017 46.8327 25.9017 47.346C25.9017 47.85 25.813 48.3307 25.6357 48.788C25.4584 49.2453 25.2064 49.6513 24.8797 50.006C24.553 50.3513 24.1517 50.6267 23.6757 50.832C23.1997 51.0373 22.663 51.14 22.0657 51.14ZM20.1477 47.346C20.1477 47.6727 20.1944 47.9713 20.2877 48.242C20.3904 48.5033 20.5257 48.732 20.6937 48.928C20.871 49.124 21.0764 49.278 21.3097 49.39C21.543 49.4927 21.795 49.544 22.0657 49.544C22.3364 49.544 22.5884 49.4927 22.8217 49.39C23.055 49.278 23.2557 49.124 23.4237 48.928C23.601 48.732 23.7364 48.4987 23.8297 48.228C23.9324 47.9573 23.9837 47.6587 23.9837 47.332C23.9837 47.0147 23.9324 46.7207 23.8297 46.45C23.7364 46.1793 23.601 45.946 23.4237 45.75C23.2557 45.554 23.055 45.4047 22.8217 45.302C22.5884 45.19 22.3364 45.134 22.0657 45.134C21.795 45.134 21.543 45.19 21.3097 45.302C21.0764 45.414 20.871 45.568 20.6937 45.764C20.5257 45.96 20.3904 46.1933 20.2877 46.464C20.1944 46.7347 20.1477 47.0287 20.1477 47.346ZM31.2839 51.14C30.7053 51.14 30.2013 51.014 29.7719 50.762C29.3426 50.5007 29.0066 50.1507 28.7639 49.712V53.982H26.8879V43.664H28.5259V44.924C28.7966 44.4947 29.1466 44.1587 29.5759 43.916C30.0053 43.664 30.4999 43.538 31.0599 43.538C31.5546 43.538 32.0119 43.6407 32.4319 43.846C32.8519 44.042 33.2113 44.3127 33.5099 44.658C33.8179 44.994 34.0559 45.3953 34.2239 45.862C34.4013 46.3193 34.4899 46.8047 34.4899 47.318C34.4899 47.85 34.4106 48.3493 34.2519 48.816C34.0933 49.2827 33.8693 49.6887 33.5799 50.034C33.2999 50.3793 32.9639 50.65 32.5719 50.846C32.1799 51.042 31.7506 51.14 31.2839 51.14ZM30.6539 49.544C30.9339 49.544 31.1906 49.4833 31.4239 49.362C31.6666 49.2407 31.8719 49.0773 32.0399 48.872C32.2079 48.6667 32.3386 48.4287 32.4319 48.158C32.5253 47.8873 32.5719 47.6073 32.5719 47.318C32.5719 47.01 32.5206 46.7253 32.4179 46.464C32.3153 46.1933 32.1706 45.96 31.9839 45.764C31.8066 45.568 31.5919 45.414 31.3399 45.302C31.0973 45.19 30.8313 45.134 30.5419 45.134C30.3646 45.134 30.1826 45.1667 29.9959 45.232C29.8093 45.288 29.6366 45.372 29.4779 45.484C29.3193 45.596 29.1746 45.7267 29.0439 45.876C28.9226 46.0253 28.8293 46.1887 28.7639 46.366V48.088C28.9319 48.508 29.1886 48.858 29.5339 49.138C29.8793 49.4087 30.2526 49.544 30.6539 49.544ZM35.481 51V43.664H37.357V51H35.481ZM35.481 42.642V40.78H37.357V42.642H35.481ZM42.1714 51.14C41.5834 51.14 41.0514 51.042 40.5754 50.846C40.0994 50.6407 39.6934 50.3653 39.3574 50.02C39.0214 49.6747 38.76 49.2733 38.5734 48.816C38.396 48.3587 38.3074 47.878 38.3074 47.374C38.3074 46.8513 38.396 46.3613 38.5734 45.904C38.7507 45.4373 39.0074 45.0313 39.3434 44.686C39.6794 44.3313 40.0854 44.0513 40.5614 43.846C41.0467 43.6407 41.588 43.538 42.1854 43.538C42.7827 43.538 43.3147 43.6407 43.7814 43.846C44.2574 44.0513 44.6587 44.3267 44.9854 44.672C45.3214 45.0173 45.5734 45.4187 45.7414 45.876C45.9187 46.3333 46.0074 46.8093 46.0074 47.304C46.0074 47.4253 46.0027 47.542 45.9934 47.654C45.9934 47.766 45.984 47.8593 45.9654 47.934H40.2954C40.3234 48.2233 40.3934 48.48 40.5054 48.704C40.6174 48.928 40.762 49.1193 40.9394 49.278C41.1167 49.4367 41.3174 49.558 41.5414 49.642C41.7654 49.726 41.9987 49.768 42.2414 49.768C42.6147 49.768 42.9647 49.6793 43.2914 49.502C43.6274 49.3153 43.856 49.0727 43.9774 48.774L45.5874 49.222C45.3167 49.782 44.8827 50.244 44.2854 50.608C43.6974 50.9627 42.9927 51.14 42.1714 51.14ZM44.0754 46.716C44.0287 46.1653 43.8234 45.7267 43.4594 45.4C43.1047 45.064 42.6707 44.896 42.1574 44.896C41.9054 44.896 41.6674 44.9427 41.4434 45.036C41.2287 45.12 41.0374 45.2413 40.8694 45.4C40.7014 45.5587 40.5614 45.75 40.4494 45.974C40.3467 46.198 40.286 46.4453 40.2674 46.716H44.0754ZM49.9082 51.14C49.4042 51.14 48.9375 51.042 48.5082 50.846C48.0789 50.65 47.7102 50.3793 47.4022 50.034C47.0942 49.6887 46.8515 49.2873 46.6742 48.83C46.5062 48.3633 46.4222 47.864 46.4222 47.332C46.4222 46.8 46.5015 46.3053 46.6602 45.848C46.8282 45.3907 47.0569 44.9893 47.3462 44.644C47.6355 44.2987 47.9809 44.028 48.3822 43.832C48.7835 43.636 49.2222 43.538 49.6982 43.538C50.2395 43.538 50.7249 43.6687 51.1542 43.93C51.5929 44.1913 51.9335 44.532 52.1762 44.952V40.78H54.0522V48.844C54.0522 49.04 54.0849 49.18 54.1502 49.264C54.2155 49.348 54.3275 49.3947 54.4862 49.404V51C54.1595 51.0653 53.8935 51.098 53.6882 51.098C53.3522 51.098 53.0769 51.014 52.8622 50.846C52.6475 50.678 52.5262 50.4587 52.4982 50.188L52.4562 49.726C52.1855 50.1927 51.8169 50.5473 51.3502 50.79C50.8929 51.0233 50.4122 51.14 49.9082 51.14ZM50.3982 49.544C50.5755 49.544 50.7575 49.516 50.9442 49.46C51.1309 49.3947 51.3035 49.306 51.4622 49.194C51.6209 49.082 51.7609 48.9513 51.8822 48.802C52.0129 48.6527 52.1109 48.4893 52.1762 48.312V46.562C52.1015 46.3567 51.9942 46.17 51.8542 46.002C51.7235 45.8247 51.5695 45.6753 51.3922 45.554C51.2242 45.4233 51.0422 45.3207 50.8462 45.246C50.6595 45.1713 50.4729 45.134 50.2862 45.134C50.0062 45.134 49.7449 45.1947 49.5022 45.316C49.2689 45.4373 49.0682 45.6053 48.9002 45.82C48.7322 46.0253 48.6015 46.2633 48.5082 46.534C48.4149 46.8047 48.3682 47.0847 48.3682 47.374C48.3682 47.682 48.4195 47.9667 48.5222 48.228C48.6249 48.4893 48.7649 48.718 48.9422 48.914C49.1195 49.11 49.3295 49.264 49.5722 49.376C49.8242 49.488 50.0995 49.544 50.3982 49.544ZM58.2349 47.332C58.2349 46.8187 58.3236 46.3333 58.5009 45.876C58.6783 45.4187 58.9349 45.0173 59.2709 44.672C59.6069 44.3267 60.0129 44.0513 60.4889 43.846C60.9649 43.6407 61.5016 43.538 62.0989 43.538C62.9016 43.538 63.5829 43.7107 64.1429 44.056C64.7123 44.4013 65.1369 44.854 65.4169 45.414L63.5829 45.974C63.4243 45.7033 63.2143 45.498 62.9529 45.358C62.6916 45.2087 62.4023 45.134 62.0849 45.134C61.8143 45.134 61.5623 45.19 61.3289 45.302C61.0956 45.4047 60.8903 45.554 60.7129 45.75C60.5449 45.9367 60.4096 46.1653 60.3069 46.436C60.2136 46.7067 60.1669 47.0053 60.1669 47.332C60.1669 47.6587 60.2183 47.9573 60.3209 48.228C60.4236 48.4987 60.5589 48.732 60.7269 48.928C60.9043 49.124 61.1096 49.278 61.3429 49.39C61.5763 49.4927 61.8236 49.544 62.0849 49.544C62.4209 49.544 62.7289 49.46 63.0089 49.292C63.2983 49.124 63.4989 48.9187 63.6109 48.676L65.4449 49.236C65.1929 49.796 64.7776 50.2533 64.1989 50.608C63.6203 50.9627 62.9249 51.14 62.1129 51.14C61.5156 51.14 60.9789 51.0373 60.5029 50.832C60.0269 50.6267 59.6209 50.3513 59.2849 50.006C58.9489 49.6513 58.6876 49.2453 58.5009 48.788C58.3236 48.3213 58.2349 47.836 58.2349 47.332ZM73.1373 51H71.2613V46.884C71.2613 46.3053 71.1539 45.8807 70.9393 45.61C70.7246 45.33 70.4213 45.19 70.0293 45.19C69.8613 45.19 69.6839 45.2273 69.4973 45.302C69.3106 45.3767 69.1333 45.484 68.9653 45.624C68.7973 45.7547 68.6433 45.9133 68.5033 46.1C68.3633 46.2867 68.2606 46.492 68.1953 46.716V51H66.3193V40.78H68.1953V45.022C68.4659 44.546 68.8299 44.182 69.2873 43.93C69.7539 43.6687 70.2673 43.538 70.8273 43.538C71.3033 43.538 71.6906 43.622 71.9893 43.79C72.2879 43.9487 72.5213 44.1633 72.6893 44.434C72.8573 44.7047 72.9739 45.0127 73.0393 45.358C73.1046 45.7033 73.1373 46.058 73.1373 46.422V51ZM74.4885 51V43.664H76.3645V51H74.4885ZM74.4885 42.642V40.78H76.3645V42.642H74.4885ZM77.7629 40.78H79.6389V48.648C79.6389 48.9187 79.7042 49.1287 79.8349 49.278C79.9655 49.4273 80.1522 49.502 80.3949 49.502C80.5069 49.502 80.6282 49.4833 80.7589 49.446C80.8989 49.4087 81.0295 49.362 81.1509 49.306L81.4029 50.734C81.1509 50.8553 80.8569 50.9487 80.5209 51.014C80.1849 51.0793 79.8815 51.112 79.6109 51.112C79.0229 51.112 78.5655 50.958 78.2389 50.65C77.9215 50.3327 77.7629 49.8847 77.7629 49.306V40.78ZM84.9782 51.14C84.4742 51.14 84.0075 51.042 83.5782 50.846C83.1489 50.65 82.7802 50.3793 82.4722 50.034C82.1642 49.6887 81.9215 49.2873 81.7442 48.83C81.5762 48.3633 81.4922 47.864 81.4922 47.332C81.4922 46.8 81.5715 46.3053 81.7302 45.848C81.8982 45.3907 82.1269 44.9893 82.4162 44.644C82.7055 44.2987 83.0509 44.028 83.4522 43.832C83.8535 43.636 84.2922 43.538 84.7682 43.538C85.3095 43.538 85.7949 43.6687 86.2242 43.93C86.6629 44.1913 87.0035 44.532 87.2462 44.952V40.78H89.1222V48.844C89.1222 49.04 89.1549 49.18 89.2202 49.264C89.2855 49.348 89.3975 49.3947 89.5562 49.404V51C89.2295 51.0653 88.9635 51.098 88.7582 51.098C88.4222 51.098 88.1469 51.014 87.9322 50.846C87.7175 50.678 87.5962 50.4587 87.5682 50.188L87.5262 49.726C87.2555 50.1927 86.8869 50.5473 86.4202 50.79C85.9629 51.0233 85.4822 51.14 84.9782 51.14ZM85.4682 49.544C85.6455 49.544 85.8275 49.516 86.0142 49.46C86.2009 49.3947 86.3735 49.306 86.5322 49.194C86.6909 49.082 86.8309 48.9513 86.9522 48.802C87.0829 48.6527 87.1809 48.4893 87.2462 48.312V46.562C87.1715 46.3567 87.0642 46.17 86.9242 46.002C86.7935 45.8247 86.6395 45.6753 86.4622 45.554C86.2942 45.4233 86.1122 45.3207 85.9162 45.246C85.7295 45.1713 85.5429 45.134 85.3562 45.134C85.0762 45.134 84.8149 45.1947 84.5722 45.316C84.3389 45.4373 84.1382 45.6053 83.9702 45.82C83.8022 46.0253 83.6715 46.2633 83.5782 46.534C83.4849 46.8047 83.4382 47.0847 83.4382 47.374C83.4382 47.682 83.4895 47.9667 83.5922 48.228C83.6949 48.4893 83.8349 48.718 84.0122 48.914C84.1895 49.11 84.3995 49.264 84.6422 49.376C84.8942 49.488 85.1695 49.544 85.4682 49.544ZM95.7689 51.14C95.4143 51.14 95.0829 51.084 94.7749 50.972C94.4669 50.8507 94.2009 50.6873 93.9769 50.482C93.7529 50.2673 93.5756 50.02 93.4449 49.74C93.3236 49.46 93.2629 49.152 93.2629 48.816C93.2629 48.4707 93.3376 48.1533 93.4869 47.864C93.6456 47.5653 93.8603 47.3133 94.1309 47.108C94.4109 46.9027 94.7423 46.744 95.1249 46.632C95.5076 46.5107 95.9276 46.45 96.3849 46.45C96.7116 46.45 97.0289 46.478 97.3369 46.534C97.6543 46.59 97.9343 46.6693 98.1769 46.772V46.352C98.1769 45.8667 98.0369 45.4933 97.7569 45.232C97.4863 44.9707 97.0803 44.84 96.5389 44.84C96.1469 44.84 95.7643 44.91 95.3909 45.05C95.0176 45.19 94.6349 45.3953 94.2429 45.666L93.6689 44.476C94.6116 43.8507 95.6289 43.538 96.7209 43.538C97.7756 43.538 98.5923 43.7993 99.1709 44.322C99.7589 44.8353 100.053 45.582 100.053 46.562V48.844C100.053 49.04 100.086 49.18 100.151 49.264C100.226 49.348 100.342 49.3947 100.501 49.404V51C100.184 51.0653 99.9083 51.098 99.6749 51.098C99.3203 51.098 99.0449 51.0187 98.8489 50.86C98.6623 50.7013 98.5456 50.4913 98.4989 50.23L98.4569 49.824C98.1303 50.2533 97.7336 50.58 97.2669 50.804C96.8003 51.028 96.3009 51.14 95.7689 51.14ZM96.3009 49.768C96.6183 49.768 96.9169 49.712 97.1969 49.6C97.4863 49.488 97.7103 49.3387 97.8689 49.152C98.0743 48.9933 98.1769 48.816 98.1769 48.62V47.78C97.9529 47.696 97.7103 47.6307 97.4489 47.584C97.1876 47.528 96.9356 47.5 96.6929 47.5C96.2076 47.5 95.8109 47.612 95.5029 47.836C95.1949 48.0507 95.0409 48.326 95.0409 48.662C95.0409 48.9793 95.1623 49.2453 95.4049 49.46C95.6476 49.6653 95.9463 49.768 96.3009 49.768ZM104.298 51.14C103.682 51.14 103.08 51.042 102.492 50.846C101.904 50.65 101.4 50.37 100.98 50.006L101.68 48.83C102.128 49.1473 102.562 49.39 102.982 49.558C103.411 49.7167 103.836 49.796 104.256 49.796C104.629 49.796 104.923 49.726 105.138 49.586C105.353 49.446 105.46 49.2453 105.46 48.984C105.46 48.7227 105.334 48.5313 105.082 48.41C104.83 48.2887 104.419 48.1487 103.85 47.99C103.374 47.8593 102.968 47.7333 102.632 47.612C102.296 47.4907 102.025 47.3553 101.82 47.206C101.615 47.0473 101.465 46.87 101.372 46.674C101.279 46.4687 101.232 46.226 101.232 45.946C101.232 45.5727 101.302 45.2367 101.442 44.938C101.591 44.6393 101.797 44.3873 102.058 44.182C102.319 43.9673 102.623 43.804 102.968 43.692C103.323 43.58 103.705 43.524 104.116 43.524C104.667 43.524 105.18 43.6033 105.656 43.762C106.141 43.9207 106.585 44.1773 106.986 44.532L106.23 45.666C105.857 45.386 105.493 45.1807 105.138 45.05C104.793 44.9193 104.447 44.854 104.102 44.854C103.785 44.854 103.519 44.9193 103.304 45.05C103.089 45.1807 102.982 45.3907 102.982 45.68C102.982 45.8107 103.005 45.918 103.052 46.002C103.108 46.086 103.192 46.1607 103.304 46.226C103.416 46.2913 103.561 46.3567 103.738 46.422C103.925 46.478 104.153 46.5387 104.424 46.604C104.928 46.7347 105.357 46.8653 105.712 46.996C106.076 47.1267 106.37 47.276 106.594 47.444C106.827 47.612 106.995 47.808 107.098 48.032C107.21 48.2467 107.266 48.508 107.266 48.816C107.266 49.5347 107 50.104 106.468 50.524C105.936 50.9347 105.213 51.14 104.298 51.14ZM111.274 40.78H113.15V48.648C113.15 48.9187 113.216 49.1287 113.346 49.278C113.477 49.4273 113.664 49.502 113.906 49.502C114.018 49.502 114.14 49.4833 114.27 49.446C114.41 49.4087 114.541 49.362 114.662 49.306L114.914 50.734C114.662 50.8553 114.368 50.9487 114.032 51.014C113.696 51.0793 113.393 51.112 113.122 51.112C112.534 51.112 112.077 50.958 111.75 50.65C111.433 50.3327 111.274 49.8847 111.274 49.306V40.78ZM117.454 51.14C117.099 51.14 116.768 51.084 116.46 50.972C116.152 50.8507 115.886 50.6873 115.662 50.482C115.438 50.2673 115.26 50.02 115.13 49.74C115.008 49.46 114.948 49.152 114.948 48.816C114.948 48.4707 115.022 48.1533 115.172 47.864C115.33 47.5653 115.545 47.3133 115.816 47.108C116.096 46.9027 116.427 46.744 116.81 46.632C117.192 46.5107 117.612 46.45 118.07 46.45C118.396 46.45 118.714 46.478 119.022 46.534C119.339 46.59 119.619 46.6693 119.862 46.772V46.352C119.862 45.8667 119.722 45.4933 119.442 45.232C119.171 44.9707 118.765 44.84 118.224 44.84C117.832 44.84 117.449 44.91 117.076 45.05C116.702 45.19 116.32 45.3953 115.928 45.666L115.354 44.476C116.296 43.8507 117.314 43.538 118.406 43.538C119.46 43.538 120.277 43.7993 120.856 44.322C121.444 44.8353 121.738 45.582 121.738 46.562V48.844C121.738 49.04 121.77 49.18 121.836 49.264C121.91 49.348 122.027 49.3947 122.186 49.404V51C121.868 51.0653 121.593 51.098 121.36 51.098C121.005 51.098 120.73 51.0187 120.534 50.86C120.347 50.7013 120.23 50.4913 120.184 50.23L120.142 49.824C119.815 50.2533 119.418 50.58 118.952 50.804C118.485 51.028 117.986 51.14 117.454 51.14ZM117.986 49.768C118.303 49.768 118.602 49.712 118.882 49.6C119.171 49.488 119.395 49.3387 119.554 49.152C119.759 48.9933 119.862 48.816 119.862 48.62V47.78C119.638 47.696 119.395 47.6307 119.134 47.584C118.872 47.528 118.62 47.5 118.378 47.5C117.892 47.5 117.496 47.612 117.188 47.836C116.88 48.0507 116.726 48.326 116.726 48.662C116.726 48.9793 116.847 49.2453 117.09 49.46C117.332 49.6653 117.631 49.768 117.986 49.768ZM127.383 51.14C126.823 51.14 126.323 51.014 125.885 50.762C125.446 50.51 125.101 50.1647 124.849 49.726V51H123.211V40.78H125.087V44.952C125.348 44.504 125.689 44.1587 126.109 43.916C126.538 43.664 127.037 43.538 127.607 43.538C128.083 43.538 128.517 43.6407 128.909 43.846C129.301 44.0513 129.637 44.3267 129.917 44.672C130.206 45.0173 130.425 45.4233 130.575 45.89C130.733 46.3567 130.813 46.8467 130.813 47.36C130.813 47.892 130.724 48.3867 130.547 48.844C130.379 49.3013 130.141 49.7027 129.833 50.048C129.525 50.384 129.161 50.65 128.741 50.846C128.321 51.042 127.868 51.14 127.383 51.14ZM126.865 49.544C127.163 49.544 127.439 49.488 127.691 49.376C127.943 49.2547 128.157 49.096 128.335 48.9C128.512 48.704 128.647 48.4753 128.741 48.214C128.843 47.9527 128.895 47.6727 128.895 47.374C128.895 47.0753 128.848 46.7907 128.755 46.52C128.661 46.2493 128.526 46.0113 128.349 45.806C128.181 45.6007 127.98 45.4373 127.747 45.316C127.513 45.1947 127.257 45.134 126.977 45.134C126.557 45.134 126.179 45.274 125.843 45.554C125.516 45.8247 125.264 46.1607 125.087 46.562V48.312C125.152 48.4987 125.245 48.6667 125.367 48.816C125.497 48.9653 125.642 49.096 125.801 49.208C125.959 49.3107 126.132 49.3947 126.319 49.46C126.505 49.516 126.687 49.544 126.865 49.544ZM135.206 51.14C134.618 51.14 134.086 51.042 133.61 50.846C133.134 50.6407 132.728 50.3653 132.392 50.02C132.056 49.6747 131.794 49.2733 131.608 48.816C131.43 48.3587 131.342 47.878 131.342 47.374C131.342 46.8513 131.43 46.3613 131.608 45.904C131.785 45.4373 132.042 45.0313 132.378 44.686C132.714 44.3313 133.12 44.0513 133.596 43.846C134.081 43.6407 134.622 43.538 135.22 43.538C135.817 43.538 136.349 43.6407 136.816 43.846C137.292 44.0513 137.693 44.3267 138.02 44.672C138.356 45.0173 138.608 45.4187 138.776 45.876C138.953 46.3333 139.042 46.8093 139.042 47.304C139.042 47.4253 139.037 47.542 139.028 47.654C139.028 47.766 139.018 47.8593 139 47.934H133.33C133.358 48.2233 133.428 48.48 133.54 48.704C133.652 48.928 133.796 49.1193 133.974 49.278C134.151 49.4367 134.352 49.558 134.576 49.642C134.8 49.726 135.033 49.768 135.276 49.768C135.649 49.768 135.999 49.6793 136.326 49.502C136.662 49.3153 136.89 49.0727 137.012 48.774L138.622 49.222C138.351 49.782 137.917 50.244 137.32 50.608C136.732 50.9627 136.027 51.14 135.206 51.14ZM137.11 46.716C137.063 46.1653 136.858 45.7267 136.494 45.4C136.139 45.064 135.705 44.896 135.192 44.896C134.94 44.896 134.702 44.9427 134.478 45.036C134.263 45.12 134.072 45.2413 133.904 45.4C133.736 45.5587 133.596 45.75 133.484 45.974C133.381 46.198 133.32 46.4453 133.302 46.716H137.11ZM139.891 40.78H141.767V48.648C141.767 48.9187 141.832 49.1287 141.963 49.278C142.093 49.4273 142.28 49.502 142.523 49.502C142.635 49.502 142.756 49.4833 142.887 49.446C143.027 49.4087 143.157 49.362 143.279 49.306L143.531 50.734C143.279 50.8553 142.985 50.9487 142.649 51.014C142.313 51.0793 142.009 51.112 141.739 51.112C141.151 51.112 140.693 50.958 140.367 50.65C140.049 50.3327 139.891 49.8847 139.891 49.306V40.78Z" fill="#373737"/>
<rect x="224.5" y="5.5" width="207" height="36" rx="4.5" stroke="#128EE5"/>
<g filter="url(#filter0_d_129_195)">
<rect x="224" y="44" width="208" height="166" rx="5" fill="white"/>
</g>
<path d="M270.532 25.97C270.663 26.0633 270.882 26.166 271.19 26.278C271.498 26.39 271.853 26.446 272.254 26.446C272.646 26.446 272.959 26.3807 273.192 26.25C273.425 26.11 273.603 25.9 273.724 25.62C273.845 25.34 273.925 24.9947 273.962 24.584C273.999 24.164 274.018 23.674 274.018 23.114V18.06H275.95V23.114C275.95 23.87 275.908 24.5607 275.824 25.186C275.749 25.802 275.581 26.3293 275.32 26.768C275.068 27.2067 274.699 27.5473 274.214 27.79C273.729 28.0327 273.075 28.154 272.254 28.154C271.414 28.154 270.695 27.9487 270.098 27.538L270.532 25.97ZM279.357 28.14C279.003 28.14 278.671 28.084 278.363 27.972C278.055 27.8507 277.789 27.6873 277.565 27.482C277.341 27.2673 277.164 27.02 277.033 26.74C276.912 26.46 276.851 26.152 276.851 25.816C276.851 25.4707 276.926 25.1533 277.075 24.864C277.234 24.5653 277.449 24.3133 277.719 24.108C277.999 23.9027 278.331 23.744 278.713 23.632C279.096 23.5107 279.516 23.45 279.973 23.45C280.3 23.45 280.617 23.478 280.925 23.534C281.243 23.59 281.523 23.6693 281.765 23.772V23.352C281.765 22.8667 281.625 22.4933 281.345 22.232C281.075 21.9707 280.669 21.84 280.127 21.84C279.735 21.84 279.353 21.91 278.979 22.05C278.606 22.19 278.223 22.3953 277.831 22.666L277.257 21.476C278.2 20.8507 279.217 20.538 280.309 20.538C281.364 20.538 282.181 20.7993 282.759 21.322C283.347 21.8353 283.641 22.582 283.641 23.562V25.844C283.641 26.04 283.674 26.18 283.739 26.264C283.814 26.348 283.931 26.3947 284.089 26.404V28C283.772 28.0653 283.497 28.098 283.263 28.098C282.909 28.098 282.633 28.0187 282.437 27.86C282.251 27.7013 282.134 27.4913 282.087 27.23L282.045 26.824C281.719 27.2533 281.322 27.58 280.855 27.804C280.389 28.028 279.889 28.14 279.357 28.14ZM279.889 26.768C280.207 26.768 280.505 26.712 280.785 26.6C281.075 26.488 281.299 26.3387 281.457 26.152C281.663 25.9933 281.765 25.816 281.765 25.62V24.78C281.541 24.696 281.299 24.6307 281.037 24.584C280.776 24.528 280.524 24.5 280.281 24.5C279.796 24.5 279.399 24.612 279.091 24.836C278.783 25.0507 278.629 25.326 278.629 25.662C278.629 25.9793 278.751 26.2453 278.993 26.46C279.236 26.6653 279.535 26.768 279.889 26.768ZM286.897 28L284.195 20.664H286.127L287.989 26.474L289.865 20.664H291.629L288.927 28H286.897ZM294.151 28.14C293.796 28.14 293.465 28.084 293.157 27.972C292.849 27.8507 292.583 27.6873 292.359 27.482C292.135 27.2673 291.957 27.02 291.827 26.74C291.705 26.46 291.645 26.152 291.645 25.816C291.645 25.4707 291.719 25.1533 291.869 24.864C292.027 24.5653 292.242 24.3133 292.513 24.108C292.793 23.9027 293.124 23.744 293.507 23.632C293.889 23.5107 294.309 23.45 294.767 23.45C295.093 23.45 295.411 23.478 295.719 23.534C296.036 23.59 296.316 23.6693 296.559 23.772V23.352C296.559 22.8667 296.419 22.4933 296.139 22.232C295.868 21.9707 295.462 21.84 294.921 21.84C294.529 21.84 294.146 21.91 293.773 22.05C293.399 22.19 293.017 22.3953 292.625 22.666L292.051 21.476C292.993 20.8507 294.011 20.538 295.103 20.538C296.157 20.538 296.974 20.7993 297.553 21.322C298.141 21.8353 298.435 22.582 298.435 23.562V25.844C298.435 26.04 298.467 26.18 298.533 26.264C298.607 26.348 298.724 26.3947 298.883 26.404V28C298.565 28.0653 298.29 28.098 298.057 28.098C297.702 28.098 297.427 28.0187 297.231 27.86C297.044 27.7013 296.927 27.4913 296.881 27.23L296.839 26.824C296.512 27.2533 296.115 27.58 295.649 27.804C295.182 28.028 294.683 28.14 294.151 28.14ZM294.683 26.768C295 26.768 295.299 26.712 295.579 26.6C295.868 26.488 296.092 26.3387 296.251 26.152C296.456 25.9933 296.559 25.816 296.559 25.62V24.78C296.335 24.696 296.092 24.6307 295.831 24.584C295.569 24.528 295.317 24.5 295.075 24.5C294.589 24.5 294.193 24.612 293.885 24.836C293.577 25.0507 293.423 25.326 293.423 25.662C293.423 25.9793 293.544 26.2453 293.787 26.46C294.029 26.6653 294.328 26.768 294.683 26.768ZM302.68 28.14C302.064 28.14 301.462 28.042 300.874 27.846C300.286 27.65 299.782 27.37 299.362 27.006L300.062 25.83C300.51 26.1473 300.944 26.39 301.364 26.558C301.793 26.7167 302.218 26.796 302.638 26.796C303.011 26.796 303.305 26.726 303.52 26.586C303.734 26.446 303.842 26.2453 303.842 25.984C303.842 25.7227 303.716 25.5313 303.464 25.41C303.212 25.2887 302.801 25.1487 302.232 24.99C301.756 24.8593 301.35 24.7333 301.014 24.612C300.678 24.4907 300.407 24.3553 300.202 24.206C299.996 24.0473 299.847 23.87 299.754 23.674C299.66 23.4687 299.614 23.226 299.614 22.946C299.614 22.5727 299.684 22.2367 299.824 21.938C299.973 21.6393 300.178 21.3873 300.44 21.182C300.701 20.9673 301.004 20.804 301.35 20.692C301.704 20.58 302.087 20.524 302.498 20.524C303.048 20.524 303.562 20.6033 304.038 20.762C304.523 20.9207 304.966 21.1773 305.368 21.532L304.612 22.666C304.238 22.386 303.874 22.1807 303.52 22.05C303.174 21.9193 302.829 21.854 302.484 21.854C302.166 21.854 301.9 21.9193 301.686 22.05C301.471 22.1807 301.364 22.3907 301.364 22.68C301.364 22.8107 301.387 22.918 301.434 23.002C301.49 23.086 301.574 23.1607 301.686 23.226C301.798 23.2913 301.942 23.3567 302.12 23.422C302.306 23.478 302.535 23.5387 302.806 23.604C303.31 23.7347 303.739 23.8653 304.094 23.996C304.458 24.1267 304.752 24.276 304.976 24.444C305.209 24.612 305.377 24.808 305.48 25.032C305.592 25.2467 305.648 25.508 305.648 25.816C305.648 26.5347 305.382 27.104 304.85 27.524C304.318 27.9347 303.594 28.14 302.68 28.14ZM306.125 24.332C306.125 23.8187 306.213 23.3333 306.391 22.876C306.568 22.4187 306.825 22.0173 307.161 21.672C307.497 21.3267 307.903 21.0513 308.379 20.846C308.855 20.6407 309.391 20.538 309.989 20.538C310.791 20.538 311.473 20.7107 312.033 21.056C312.602 21.4013 313.027 21.854 313.307 22.414L311.473 22.974C311.314 22.7033 311.104 22.498 310.843 22.358C310.581 22.2087 310.292 22.134 309.975 22.134C309.704 22.134 309.452 22.19 309.219 22.302C308.985 22.4047 308.78 22.554 308.603 22.75C308.435 22.9367 308.299 23.1653 308.197 23.436C308.103 23.7067 308.057 24.0053 308.057 24.332C308.057 24.6587 308.108 24.9573 308.211 25.228C308.313 25.4987 308.449 25.732 308.617 25.928C308.794 26.124 308.999 26.278 309.233 26.39C309.466 26.4927 309.713 26.544 309.975 26.544C310.311 26.544 310.619 26.46 310.899 26.292C311.188 26.124 311.389 25.9187 311.501 25.676L313.335 26.236C313.083 26.796 312.667 27.2533 312.089 27.608C311.51 27.9627 310.815 28.14 310.003 28.14C309.405 28.14 308.869 28.0373 308.393 27.832C307.917 27.6267 307.511 27.3513 307.175 27.006C306.839 26.6513 306.577 26.2453 306.391 25.788C306.213 25.3213 306.125 24.836 306.125 24.332ZM318.577 22.288C318.008 22.2973 317.499 22.4093 317.051 22.624C316.603 22.8293 316.281 23.142 316.085 23.562V28H314.209V20.664H315.931V22.232C316.062 21.98 316.216 21.756 316.393 21.56C316.57 21.3547 316.762 21.1773 316.967 21.028C317.172 20.8787 317.378 20.7667 317.583 20.692C317.798 20.608 318.003 20.566 318.199 20.566C318.302 20.566 318.376 20.566 318.423 20.566C318.479 20.566 318.53 20.5707 318.577 20.58V22.288ZM319.343 28V20.664H321.219V28H319.343ZM319.343 19.642V17.78H321.219V19.642H319.343ZM327.028 28.14C326.449 28.14 325.945 28.014 325.516 27.762C325.086 27.5007 324.75 27.1507 324.508 26.712V30.982H322.632V20.664H324.27V21.924C324.54 21.4947 324.89 21.1587 325.32 20.916C325.749 20.664 326.244 20.538 326.804 20.538C327.298 20.538 327.756 20.6407 328.176 20.846C328.596 21.042 328.955 21.3127 329.254 21.658C329.562 21.994 329.8 22.3953 329.968 22.862C330.145 23.3193 330.234 23.8047 330.234 24.318C330.234 24.85 330.154 25.3493 329.996 25.816C329.837 26.2827 329.613 26.6887 329.324 27.034C329.044 27.3793 328.708 27.65 328.316 27.846C327.924 28.042 327.494 28.14 327.028 28.14ZM326.398 26.544C326.678 26.544 326.934 26.4833 327.168 26.362C327.41 26.2407 327.616 26.0773 327.784 25.872C327.952 25.6667 328.082 25.4287 328.176 25.158C328.269 24.8873 328.316 24.6073 328.316 24.318C328.316 24.01 328.264 23.7253 328.162 23.464C328.059 23.1933 327.914 22.96 327.728 22.764C327.55 22.568 327.336 22.414 327.084 22.302C326.841 22.19 326.575 22.134 326.286 22.134C326.108 22.134 325.926 22.1667 325.74 22.232C325.553 22.288 325.38 22.372 325.222 22.484C325.063 22.596 324.918 22.7267 324.788 22.876C324.666 23.0253 324.573 23.1887 324.508 23.366V25.088C324.676 25.508 324.932 25.858 325.278 26.138C325.623 26.4087 325.996 26.544 326.398 26.544ZM335.525 27.622C335.273 27.734 334.965 27.846 334.601 27.958C334.237 28.07 333.854 28.126 333.453 28.126C333.192 28.126 332.944 28.0933 332.711 28.028C332.487 27.9627 332.286 27.86 332.109 27.72C331.941 27.5707 331.806 27.384 331.703 27.16C331.6 26.9267 331.549 26.6467 331.549 26.32V22.106H330.583V20.664H331.549V18.284H333.425V20.664H334.965V22.106H333.425V25.69C333.425 25.9513 333.49 26.138 333.621 26.25C333.761 26.3527 333.929 26.404 334.125 26.404C334.321 26.404 334.512 26.3713 334.699 26.306C334.886 26.2407 335.035 26.1847 335.147 26.138L335.525 27.622Z" fill="black"/>
<path d="M270.532 73.97C270.663 74.0633 270.882 74.166 271.19 74.278C271.498 74.39 271.853 74.446 272.254 74.446C272.646 74.446 272.959 74.3807 273.192 74.25C273.425 74.11 273.603 73.9 273.724 73.62C273.845 73.34 273.925 72.9947 273.962 72.584C273.999 72.164 274.018 71.674 274.018 71.114V66.06H275.95V71.114C275.95 71.87 275.908 72.5607 275.824 73.186C275.749 73.802 275.581 74.3293 275.32 74.768C275.068 75.2067 274.699 75.5473 274.214 75.79C273.729 76.0327 273.075 76.154 272.254 76.154C271.414 76.154 270.695 75.9487 270.098 75.538L270.532 73.97ZM279.357 76.14C279.003 76.14 278.671 76.084 278.363 75.972C278.055 75.8507 277.789 75.6873 277.565 75.482C277.341 75.2673 277.164 75.02 277.033 74.74C276.912 74.46 276.851 74.152 276.851 73.816C276.851 73.4707 276.926 73.1533 277.075 72.864C277.234 72.5653 277.449 72.3133 277.719 72.108C277.999 71.9027 278.331 71.744 278.713 71.632C279.096 71.5107 279.516 71.45 279.973 71.45C280.3 71.45 280.617 71.478 280.925 71.534C281.243 71.59 281.523 71.6693 281.765 71.772V71.352C281.765 70.8667 281.625 70.4933 281.345 70.232C281.075 69.9707 280.669 69.84 280.127 69.84C279.735 69.84 279.353 69.91 278.979 70.05C278.606 70.19 278.223 70.3953 277.831 70.666L277.257 69.476C278.2 68.8507 279.217 68.538 280.309 68.538C281.364 68.538 282.181 68.7993 282.759 69.322C283.347 69.8353 283.641 70.582 283.641 71.562V73.844C283.641 74.04 283.674 74.18 283.739 74.264C283.814 74.348 283.931 74.3947 284.089 74.404V76C283.772 76.0653 283.497 76.098 283.263 76.098C282.909 76.098 282.633 76.0187 282.437 75.86C282.251 75.7013 282.134 75.4913 282.087 75.23L282.045 74.824C281.719 75.2533 281.322 75.58 280.855 75.804C280.389 76.028 279.889 76.14 279.357 76.14ZM279.889 74.768C280.207 74.768 280.505 74.712 280.785 74.6C281.075 74.488 281.299 74.3387 281.457 74.152C281.663 73.9933 281.765 73.816 281.765 73.62V72.78C281.541 72.696 281.299 72.6307 281.037 72.584C280.776 72.528 280.524 72.5 280.281 72.5C279.796 72.5 279.399 72.612 279.091 72.836C278.783 73.0507 278.629 73.326 278.629 73.662C278.629 73.9793 278.751 74.2453 278.993 74.46C279.236 74.6653 279.535 74.768 279.889 74.768ZM286.897 76L284.195 68.664H286.127L287.989 74.474L289.865 68.664H291.629L288.927 76H286.897ZM294.151 76.14C293.796 76.14 293.465 76.084 293.157 75.972C292.849 75.8507 292.583 75.6873 292.359 75.482C292.135 75.2673 291.957 75.02 291.827 74.74C291.705 74.46 291.645 74.152 291.645 73.816C291.645 73.4707 291.719 73.1533 291.869 72.864C292.027 72.5653 292.242 72.3133 292.513 72.108C292.793 71.9027 293.124 71.744 293.507 71.632C293.889 71.5107 294.309 71.45 294.767 71.45C295.093 71.45 295.411 71.478 295.719 71.534C296.036 71.59 296.316 71.6693 296.559 71.772V71.352C296.559 70.8667 296.419 70.4933 296.139 70.232C295.868 69.9707 295.462 69.84 294.921 69.84C294.529 69.84 294.146 69.91 293.773 70.05C293.399 70.19 293.017 70.3953 292.625 70.666L292.051 69.476C292.993 68.8507 294.011 68.538 295.103 68.538C296.157 68.538 296.974 68.7993 297.553 69.322C298.141 69.8353 298.435 70.582 298.435 71.562V73.844C298.435 74.04 298.467 74.18 298.533 74.264C298.607 74.348 298.724 74.3947 298.883 74.404V76C298.565 76.0653 298.29 76.098 298.057 76.098C297.702 76.098 297.427 76.0187 297.231 75.86C297.044 75.7013 296.927 75.4913 296.881 75.23L296.839 74.824C296.512 75.2533 296.115 75.58 295.649 75.804C295.182 76.028 294.683 76.14 294.151 76.14ZM294.683 74.768C295 74.768 295.299 74.712 295.579 74.6C295.868 74.488 296.092 74.3387 296.251 74.152C296.456 73.9933 296.559 73.816 296.559 73.62V72.78C296.335 72.696 296.092 72.6307 295.831 72.584C295.569 72.528 295.317 72.5 295.075 72.5C294.589 72.5 294.193 72.612 293.885 72.836C293.577 73.0507 293.423 73.326 293.423 73.662C293.423 73.9793 293.544 74.2453 293.787 74.46C294.029 74.6653 294.328 74.768 294.683 74.768ZM302.68 76.14C302.064 76.14 301.462 76.042 300.874 75.846C300.286 75.65 299.782 75.37 299.362 75.006L300.062 73.83C300.51 74.1473 300.944 74.39 301.364 74.558C301.793 74.7167 302.218 74.796 302.638 74.796C303.011 74.796 303.305 74.726 303.52 74.586C303.734 74.446 303.842 74.2453 303.842 73.984C303.842 73.7227 303.716 73.5313 303.464 73.41C303.212 73.2887 302.801 73.1487 302.232 72.99C301.756 72.8593 301.35 72.7333 301.014 72.612C300.678 72.4907 300.407 72.3553 300.202 72.206C299.996 72.0473 299.847 71.87 299.754 71.674C299.66 71.4687 299.614 71.226 299.614 70.946C299.614 70.5727 299.684 70.2367 299.824 69.938C299.973 69.6393 300.178 69.3873 300.44 69.182C300.701 68.9673 301.004 68.804 301.35 68.692C301.704 68.58 302.087 68.524 302.498 68.524C303.048 68.524 303.562 68.6033 304.038 68.762C304.523 68.9207 304.966 69.1773 305.368 69.532L304.612 70.666C304.238 70.386 303.874 70.1807 303.52 70.05C303.174 69.9193 302.829 69.854 302.484 69.854C302.166 69.854 301.9 69.9193 301.686 70.05C301.471 70.1807 301.364 70.3907 301.364 70.68C301.364 70.8107 301.387 70.918 301.434 71.002C301.49 71.086 301.574 71.1607 301.686 71.226C301.798 71.2913 301.942 71.3567 302.12 71.422C302.306 71.478 302.535 71.5387 302.806 71.604C303.31 71.7347 303.739 71.8653 304.094 71.996C304.458 72.1267 304.752 72.276 304.976 72.444C305.209 72.612 305.377 72.808 305.48 73.032C305.592 73.2467 305.648 73.508 305.648 73.816C305.648 74.5347 305.382 75.104 304.85 75.524C304.318 75.9347 303.594 76.14 302.68 76.14ZM306.125 72.332C306.125 71.8187 306.213 71.3333 306.391 70.876C306.568 70.4187 306.825 70.0173 307.161 69.672C307.497 69.3267 307.903 69.0513 308.379 68.846C308.855 68.6407 309.391 68.538 309.989 68.538C310.791 68.538 311.473 68.7107 312.033 69.056C312.602 69.4013 313.027 69.854 313.307 70.414L311.473 70.974C311.314 70.7033 311.104 70.498 310.843 70.358C310.581 70.2087 310.292 70.134 309.975 70.134C309.704 70.134 309.452 70.19 309.219 70.302C308.985 70.4047 308.78 70.554 308.603 70.75C308.435 70.9367 308.299 71.1653 308.197 71.436C308.103 71.7067 308.057 72.0053 308.057 72.332C308.057 72.6587 308.108 72.9573 308.211 73.228C308.313 73.4987 308.449 73.732 308.617 73.928C308.794 74.124 308.999 74.278 309.233 74.39C309.466 74.4927 309.713 74.544 309.975 74.544C310.311 74.544 310.619 74.46 310.899 74.292C311.188 74.124 311.389 73.9187 311.501 73.676L313.335 74.236C313.083 74.796 312.667 75.2533 312.089 75.608C311.51 75.9627 310.815 76.14 310.003 76.14C309.405 76.14 308.869 76.0373 308.393 75.832C307.917 75.6267 307.511 75.3513 307.175 75.006C306.839 74.6513 306.577 74.2453 306.391 73.788C306.213 73.3213 306.125 72.836 306.125 72.332ZM318.577 70.288C318.008 70.2973 317.499 70.4093 317.051 70.624C316.603 70.8293 316.281 71.142 316.085 71.562V76H314.209V68.664H315.931V70.232C316.062 69.98 316.216 69.756 316.393 69.56C316.57 69.3547 316.762 69.1773 316.967 69.028C317.172 68.8787 317.378 68.7667 317.583 68.692C317.798 68.608 318.003 68.566 318.199 68.566C318.302 68.566 318.376 68.566 318.423 68.566C318.479 68.566 318.53 68.5707 318.577 68.58V70.288ZM319.343 76V68.664H321.219V76H319.343ZM319.343 67.642V65.78H321.219V67.642H319.343ZM327.028 76.14C326.449 76.14 325.945 76.014 325.516 75.762C325.086 75.5007 324.75 75.1507 324.508 74.712V78.982H322.632V68.664H324.27V69.924C324.54 69.4947 324.89 69.1587 325.32 68.916C325.749 68.664 326.244 68.538 326.804 68.538C327.298 68.538 327.756 68.6407 328.176 68.846C328.596 69.042 328.955 69.3127 329.254 69.658C329.562 69.994 329.8 70.3953 329.968 70.862C330.145 71.3193 330.234 71.8047 330.234 72.318C330.234 72.85 330.154 73.3493 329.996 73.816C329.837 74.2827 329.613 74.6887 329.324 75.034C329.044 75.3793 328.708 75.65 328.316 75.846C327.924 76.042 327.494 76.14 327.028 76.14ZM326.398 74.544C326.678 74.544 326.934 74.4833 327.168 74.362C327.41 74.2407 327.616 74.0773 327.784 73.872C327.952 73.6667 328.082 73.4287 328.176 73.158C328.269 72.8873 328.316 72.6073 328.316 72.318C328.316 72.01 328.264 71.7253 328.162 71.464C328.059 71.1933 327.914 70.96 327.728 70.764C327.55 70.568 327.336 70.414 327.084 70.302C326.841 70.19 326.575 70.134 326.286 70.134C326.108 70.134 325.926 70.1667 325.74 70.232C325.553 70.288 325.38 70.372 325.222 70.484C325.063 70.596 324.918 70.7267 324.788 70.876C324.666 71.0253 324.573 71.1887 324.508 71.366V73.088C324.676 73.508 324.932 73.858 325.278 74.138C325.623 74.4087 325.996 74.544 326.398 74.544ZM335.525 75.622C335.273 75.734 334.965 75.846 334.601 75.958C334.237 76.07 333.854 76.126 333.453 76.126C333.192 76.126 332.944 76.0933 332.711 76.028C332.487 75.9627 332.286 75.86 332.109 75.72C331.941 75.5707 331.806 75.384 331.703 75.16C331.6 74.9267 331.549 74.6467 331.549 74.32V70.106H330.583V68.664H331.549V66.284H333.425V68.664H334.965V70.106H333.425V73.69C333.425 73.9513 333.49 74.138 333.621 74.25C333.761 74.3527 333.929 74.404 334.125 74.404C334.321 74.404 334.512 74.3713 334.699 74.306C334.886 74.2407 335.035 74.1847 335.147 74.138L335.525 75.622Z" fill="black"/>
<path d="M271.036 113V103.06H275.25C275.707 103.06 276.127 103.158 276.51 103.354C276.902 103.541 277.238 103.793 277.518 104.11C277.798 104.418 278.017 104.773 278.176 105.174C278.335 105.566 278.414 105.963 278.414 106.364C278.414 106.784 278.339 107.195 278.19 107.596C278.041 107.988 277.831 108.338 277.56 108.646C277.289 108.954 276.963 109.201 276.58 109.388C276.197 109.575 275.777 109.668 275.32 109.668H272.968V113H271.036ZM272.968 107.974H275.208C275.563 107.974 275.857 107.829 276.09 107.54C276.333 107.251 276.454 106.859 276.454 106.364C276.454 106.112 276.417 105.888 276.342 105.692C276.267 105.487 276.169 105.314 276.048 105.174C275.927 105.034 275.782 104.931 275.614 104.866C275.455 104.791 275.292 104.754 275.124 104.754H272.968V107.974ZM279.451 114.428C279.609 114.475 279.763 114.507 279.913 114.526C280.062 114.554 280.188 114.568 280.291 114.568C280.412 114.568 280.524 114.545 280.627 114.498C280.729 114.451 280.823 114.367 280.907 114.246C280.991 114.134 281.075 113.975 281.159 113.77C281.243 113.565 281.331 113.308 281.425 113L278.527 105.664H280.459L282.447 111.376L284.211 105.664H285.975L282.895 114.456C282.717 114.969 282.414 115.389 281.985 115.716C281.555 116.043 281.023 116.206 280.389 116.206C280.239 116.206 280.085 116.192 279.927 116.164C279.777 116.145 279.619 116.108 279.451 116.052V114.428ZM291.11 112.622C290.858 112.734 290.55 112.846 290.186 112.958C289.822 113.07 289.439 113.126 289.038 113.126C288.777 113.126 288.529 113.093 288.296 113.028C288.072 112.963 287.871 112.86 287.694 112.72C287.526 112.571 287.391 112.384 287.288 112.16C287.185 111.927 287.134 111.647 287.134 111.32V107.106H286.168V105.664H287.134V103.284H289.01V105.664H290.55V107.106H289.01V110.69C289.01 110.951 289.075 111.138 289.206 111.25C289.346 111.353 289.514 111.404 289.71 111.404C289.906 111.404 290.097 111.371 290.284 111.306C290.471 111.241 290.62 111.185 290.732 111.138L291.11 112.622ZM298.625 113H296.749V108.884C296.749 108.305 296.642 107.881 296.427 107.61C296.212 107.33 295.909 107.19 295.517 107.19C295.349 107.19 295.172 107.227 294.985 107.302C294.798 107.377 294.621 107.484 294.453 107.624C294.285 107.755 294.131 107.913 293.991 108.1C293.851 108.287 293.748 108.492 293.683 108.716V113H291.807V102.78H293.683V107.022C293.954 106.546 294.318 106.182 294.775 105.93C295.242 105.669 295.755 105.538 296.315 105.538C296.791 105.538 297.178 105.622 297.477 105.79C297.776 105.949 298.009 106.163 298.177 106.434C298.345 106.705 298.462 107.013 298.527 107.358C298.592 107.703 298.625 108.058 298.625 108.422V113ZM303.364 113.14C302.767 113.14 302.23 113.037 301.754 112.832C301.278 112.627 300.872 112.351 300.536 112.006C300.21 111.651 299.958 111.245 299.78 110.788C299.603 110.331 299.514 109.85 299.514 109.346C299.514 108.833 299.603 108.347 299.78 107.89C299.958 107.433 300.21 107.031 300.536 106.686C300.872 106.331 301.278 106.051 301.754 105.846C302.23 105.641 302.767 105.538 303.364 105.538C303.962 105.538 304.494 105.641 304.96 105.846C305.436 106.051 305.838 106.331 306.164 106.686C306.5 107.031 306.757 107.433 306.934 107.89C307.112 108.347 307.2 108.833 307.2 109.346C307.2 109.85 307.112 110.331 306.934 110.788C306.757 111.245 306.505 111.651 306.178 112.006C305.852 112.351 305.45 112.627 304.974 112.832C304.498 113.037 303.962 113.14 303.364 113.14ZM301.446 109.346C301.446 109.673 301.493 109.971 301.586 110.242C301.689 110.503 301.824 110.732 301.992 110.928C302.17 111.124 302.375 111.278 302.608 111.39C302.842 111.493 303.094 111.544 303.364 111.544C303.635 111.544 303.887 111.493 304.12 111.39C304.354 111.278 304.554 111.124 304.722 110.928C304.9 110.732 305.035 110.499 305.128 110.228C305.231 109.957 305.282 109.659 305.282 109.332C305.282 109.015 305.231 108.721 305.128 108.45C305.035 108.179 304.9 107.946 304.722 107.75C304.554 107.554 304.354 107.405 304.12 107.302C303.887 107.19 303.635 107.134 303.364 107.134C303.094 107.134 302.842 107.19 302.608 107.302C302.375 107.414 302.17 107.568 301.992 107.764C301.824 107.96 301.689 108.193 301.586 108.464C301.493 108.735 301.446 109.029 301.446 109.346ZM315.004 113H313.128V108.884C313.128 108.296 313.026 107.867 312.82 107.596C312.615 107.325 312.33 107.19 311.966 107.19C311.78 107.19 311.588 107.227 311.392 107.302C311.196 107.377 311.01 107.484 310.832 107.624C310.664 107.755 310.51 107.913 310.37 108.1C310.23 108.287 310.128 108.492 310.062 108.716V113H308.186V105.664H309.88V107.022C310.151 106.555 310.543 106.191 311.056 105.93C311.57 105.669 312.148 105.538 312.792 105.538C313.25 105.538 313.623 105.622 313.912 105.79C314.202 105.958 314.426 106.177 314.584 106.448C314.743 106.719 314.85 107.027 314.906 107.372C314.972 107.717 315.004 108.067 315.004 108.422V113Z" fill="black"/>
<path d="M270.434 144.96C270.434 144.353 270.541 143.756 270.756 143.168C270.98 142.571 271.302 142.039 271.722 141.572C272.142 141.105 272.655 140.727 273.262 140.438C273.869 140.149 274.559 140.004 275.334 140.004C276.249 140.004 277.037 140.205 277.7 140.606C278.372 141.007 278.871 141.53 279.198 142.174L277.714 143.196C277.583 142.916 277.425 142.683 277.238 142.496C277.051 142.3 276.851 142.146 276.636 142.034C276.421 141.922 276.197 141.843 275.964 141.796C275.731 141.74 275.502 141.712 275.278 141.712C274.793 141.712 274.368 141.81 274.004 142.006C273.649 142.202 273.351 142.459 273.108 142.776C272.875 143.084 272.697 143.439 272.576 143.84C272.455 144.232 272.394 144.624 272.394 145.016C272.394 145.455 272.464 145.879 272.604 146.29C272.744 146.691 272.94 147.046 273.192 147.354C273.453 147.662 273.761 147.909 274.116 148.096C274.48 148.283 274.877 148.376 275.306 148.376C275.53 148.376 275.763 148.348 276.006 148.292C276.249 148.236 276.477 148.147 276.692 148.026C276.916 147.905 277.121 147.751 277.308 147.564C277.495 147.368 277.644 147.135 277.756 146.864L279.338 147.774C279.179 148.147 278.951 148.479 278.652 148.768C278.363 149.048 278.031 149.286 277.658 149.482C277.294 149.678 276.902 149.827 276.482 149.93C276.062 150.033 275.651 150.084 275.25 150.084C274.541 150.084 273.892 149.935 273.304 149.636C272.716 149.337 272.207 148.95 271.778 148.474C271.358 147.989 271.027 147.443 270.784 146.836C270.551 146.22 270.434 145.595 270.434 144.96ZM288.712 140.06L281.768 150H279.696L286.626 140.06H288.712ZM288.933 144.96C288.933 144.353 289.04 143.756 289.255 143.168C289.479 142.571 289.801 142.039 290.221 141.572C290.641 141.105 291.154 140.727 291.761 140.438C292.367 140.149 293.058 140.004 293.833 140.004C294.747 140.004 295.536 140.205 296.199 140.606C296.871 141.007 297.37 141.53 297.697 142.174L296.213 143.196C296.082 142.916 295.923 142.683 295.737 142.496C295.55 142.3 295.349 142.146 295.135 142.034C294.92 141.922 294.696 141.843 294.463 141.796C294.229 141.74 294.001 141.712 293.777 141.712C293.291 141.712 292.867 141.81 292.503 142.006C292.148 142.202 291.849 142.459 291.607 142.776C291.373 143.084 291.196 143.439 291.075 143.84C290.953 144.232 290.893 144.624 290.893 145.016C290.893 145.455 290.963 145.879 291.103 146.29C291.243 146.691 291.439 147.046 291.691 147.354C291.952 147.662 292.26 147.909 292.615 148.096C292.979 148.283 293.375 148.376 293.805 148.376C294.029 148.376 294.262 148.348 294.505 148.292C294.747 148.236 294.976 148.147 295.191 148.026C295.415 147.905 295.62 147.751 295.807 147.564C295.993 147.368 296.143 147.135 296.255 146.864L297.837 147.774C297.678 148.147 297.449 148.479 297.151 148.768C296.861 149.048 296.53 149.286 296.157 149.482C295.793 149.678 295.401 149.827 294.981 149.93C294.561 150.033 294.15 150.084 293.749 150.084C293.039 150.084 292.391 149.935 291.803 149.636C291.215 149.337 290.706 148.95 290.277 148.474C289.857 147.989 289.525 147.443 289.283 146.836C289.049 146.22 288.933 145.595 288.933 144.96ZM303.052 144.274V145.786H301.61V147.368H299.916V145.786H298.474V144.274H299.916V142.692H301.61V144.274H303.052ZM308.665 144.274V145.786H307.223V147.368H305.529V145.786H304.087V144.274H305.529V142.692H307.223V144.274H308.665Z" fill="#D8D4D4"/>
<path d="M271.036 187V177.06H275.432C275.889 177.06 276.309 177.158 276.692 177.354C277.084 177.541 277.42 177.793 277.7 178.11C277.98 178.418 278.199 178.773 278.358 179.174C278.517 179.566 278.596 179.963 278.596 180.364C278.596 181.008 278.433 181.596 278.106 182.128C277.789 182.651 277.355 183.029 276.804 183.262L279.072 187H276.902L274.872 183.668H272.968V187H271.036ZM272.968 181.974H275.39C275.567 181.974 275.731 181.932 275.88 181.848C276.039 181.764 276.174 181.652 276.286 181.512C276.398 181.363 276.487 181.19 276.552 180.994C276.617 180.798 276.65 180.588 276.65 180.364C276.65 180.131 276.613 179.916 276.538 179.72C276.463 179.524 276.361 179.356 276.23 179.216C276.109 179.067 275.964 178.955 275.796 178.88C275.637 178.796 275.474 178.754 275.306 178.754H272.968V181.974ZM282.029 187.14C281.273 187.14 280.699 186.897 280.307 186.412C279.915 185.927 279.719 185.208 279.719 184.256V179.664H281.595V183.85C281.595 184.979 282.001 185.544 282.813 185.544C283.177 185.544 283.527 185.437 283.863 185.222C284.208 184.998 284.488 184.662 284.703 184.214V179.664H286.579V184.844C286.579 185.04 286.612 185.18 286.677 185.264C286.752 185.348 286.868 185.395 287.027 185.404V187C286.84 187.037 286.682 187.061 286.551 187.07C286.43 187.079 286.318 187.084 286.215 187.084C285.879 187.084 285.604 187.009 285.389 186.86C285.184 186.701 285.062 186.487 285.025 186.216L284.983 185.628C284.656 186.132 284.236 186.51 283.723 186.762C283.21 187.014 282.645 187.14 282.029 187.14ZM290.935 187.14C290.319 187.14 289.717 187.042 289.129 186.846C288.541 186.65 288.037 186.37 287.617 186.006L288.317 184.83C288.765 185.147 289.199 185.39 289.619 185.558C290.048 185.717 290.473 185.796 290.893 185.796C291.266 185.796 291.56 185.726 291.775 185.586C291.99 185.446 292.097 185.245 292.097 184.984C292.097 184.723 291.971 184.531 291.719 184.41C291.467 184.289 291.056 184.149 290.487 183.99C290.011 183.859 289.605 183.733 289.269 183.612C288.933 183.491 288.662 183.355 288.457 183.206C288.252 183.047 288.102 182.87 288.009 182.674C287.916 182.469 287.869 182.226 287.869 181.946C287.869 181.573 287.939 181.237 288.079 180.938C288.228 180.639 288.434 180.387 288.695 180.182C288.956 179.967 289.26 179.804 289.605 179.692C289.96 179.58 290.342 179.524 290.753 179.524C291.304 179.524 291.817 179.603 292.293 179.762C292.778 179.921 293.222 180.177 293.623 180.532L292.867 181.666C292.494 181.386 292.13 181.181 291.775 181.05C291.43 180.919 291.084 180.854 290.739 180.854C290.422 180.854 290.156 180.919 289.941 181.05C289.726 181.181 289.619 181.391 289.619 181.68C289.619 181.811 289.642 181.918 289.689 182.002C289.745 182.086 289.829 182.161 289.941 182.226C290.053 182.291 290.198 182.357 290.375 182.422C290.562 182.478 290.79 182.539 291.061 182.604C291.565 182.735 291.994 182.865 292.349 182.996C292.713 183.127 293.007 183.276 293.231 183.444C293.464 183.612 293.632 183.808 293.735 184.032C293.847 184.247 293.903 184.508 293.903 184.816C293.903 185.535 293.637 186.104 293.105 186.524C292.573 186.935 291.85 187.14 290.935 187.14ZM299.238 186.622C298.986 186.734 298.678 186.846 298.314 186.958C297.95 187.07 297.567 187.126 297.166 187.126C296.905 187.126 296.657 187.093 296.424 187.028C296.2 186.963 295.999 186.86 295.822 186.72C295.654 186.571 295.519 186.384 295.416 186.16C295.313 185.927 295.262 185.647 295.262 185.32V181.106H294.296V179.664H295.262V177.284H297.138V179.664H298.678V181.106H297.138V184.69C297.138 184.951 297.203 185.138 297.334 185.25C297.474 185.353 297.642 185.404 297.838 185.404C298.034 185.404 298.225 185.371 298.412 185.306C298.599 185.241 298.748 185.185 298.86 185.138L299.238 186.622Z" fill="black"/>
<path d="M239 15H256V32H239V15ZM254.607 27.9455C254.483 27.1699 253.978 26.5182 252.48 25.9105C251.959 25.6661 251.38 25.4961 251.207 25.103C251.143 24.8692 251.133 24.7417 251.175 24.6036C251.281 24.146 251.823 24.0086 252.248 24.1361C252.524 24.2211 252.779 24.4336 252.939 24.7736C253.672 24.2947 253.672 24.2947 254.182 23.9767C253.991 23.6792 253.896 23.551 253.767 23.4242C253.321 22.9248 252.727 22.6698 251.76 22.6918L251.261 22.7548C250.782 22.8717 250.326 23.1267 250.049 23.4667C249.242 24.3812 249.475 25.9749 250.452 26.6337C251.419 27.3562 252.833 27.5148 253.014 28.1955C253.184 29.0243 252.397 29.2899 251.621 29.1943C251.047 29.0668 250.729 28.7792 250.378 28.248L249.082 28.9924C249.23 29.3324 249.4 29.4805 249.655 29.778C250.888 31.0218 253.969 30.958 254.522 29.0668C254.543 29.003 254.692 28.5674 254.575 27.898L254.607 27.9455V27.9455ZM248.244 22.8136H246.652C246.652 24.1864 246.646 25.5506 246.646 26.9255C246.646 27.7982 246.69 28.5993 246.548 28.8458C246.314 29.3338 245.712 29.2715 245.439 29.1858C245.158 29.047 245.016 28.8557 244.851 28.5802C244.806 28.5058 244.773 28.4413 244.761 28.4413L243.468 29.2382C243.684 29.6845 243.999 30.0684 244.406 30.3127C245.012 30.674 245.825 30.7909 246.678 30.5996C247.232 30.4395 247.71 30.1102 247.96 29.6002C248.322 28.9414 248.245 28.1339 248.242 27.2301C248.25 25.7752 248.242 24.3195 248.242 22.8533L248.244 22.8136V22.8136Z" fill="black"/>
<path d="M239 63H256V80H239V63ZM254.607 75.9455C254.483 75.1699 253.978 74.5182 252.48 73.9105C251.959 73.6661 251.38 73.4961 251.207 73.103C251.143 72.8692 251.133 72.7417 251.175 72.6036C251.281 72.146 251.823 72.0086 252.248 72.1361C252.524 72.2211 252.779 72.4336 252.939 72.7736C253.672 72.2947 253.672 72.2947 254.182 71.9767C253.991 71.6792 253.896 71.551 253.767 71.4242C253.321 70.9248 252.727 70.6698 251.76 70.6918L251.261 70.7548C250.782 70.8717 250.326 71.1267 250.049 71.4667C249.242 72.3812 249.475 73.9749 250.452 74.6337C251.419 75.3562 252.833 75.5148 253.014 76.1955C253.184 77.0243 252.397 77.2899 251.621 77.1943C251.047 77.0668 250.729 76.7792 250.378 76.248L249.082 76.9924C249.23 77.3324 249.4 77.4805 249.655 77.778C250.888 79.0218 253.969 78.958 254.522 77.0668C254.543 77.003 254.692 76.5674 254.575 75.898L254.607 75.9455V75.9455ZM248.244 70.8136H246.652C246.652 72.1864 246.646 73.5506 246.646 74.9255C246.646 75.7982 246.69 76.5993 246.548 76.8458C246.314 77.3338 245.712 77.2715 245.439 77.1858C245.158 77.047 245.016 76.8557 244.851 76.5802C244.806 76.5058 244.773 76.4413 244.761 76.4413L243.468 77.2382C243.684 77.6845 243.999 78.0684 244.406 78.3127C245.012 78.674 245.825 78.7909 246.678 78.5996C247.232 78.4395 247.71 78.1102 247.96 77.6002C248.322 76.9414 248.245 76.1339 248.242 75.2301C248.25 73.7752 248.242 72.3195 248.242 70.8533L248.244 70.8136V70.8136Z" fill="black"/>
<path d="M256.508 106.44C256.222 105.294 255.681 104.429 254.527 104.429H253.039V106.188C253.039 107.554 251.881 108.704 250.56 108.704H246.596C245.513 108.704 244.615 109.632 244.615 110.719V114.497C244.615 115.573 245.55 116.204 246.596 116.512C247.851 116.879 249.057 116.946 250.56 116.512C251.558 116.222 252.541 115.64 252.541 114.497V112.987H248.582V112.482H254.527C255.681 112.482 256.107 111.677 256.508 110.47C256.924 109.227 256.905 108.032 256.508 106.44V106.44ZM250.808 113.992C251.22 113.992 251.554 114.33 251.554 114.745C251.554 115.165 251.22 115.503 250.808 115.503C250.4 115.503 250.062 115.161 250.062 114.745C250.066 114.326 250.4 113.992 250.808 113.992ZM246.414 108.207H250.378C251.48 108.207 252.359 107.298 252.359 106.192V102.41C252.359 101.334 251.454 100.529 250.378 100.347C249.049 100.128 247.606 100.139 246.414 100.351C244.737 100.648 244.433 101.267 244.433 102.414V103.924H248.4V104.429H242.945C241.791 104.429 240.781 105.123 240.466 106.44C240.102 107.951 240.087 108.893 240.466 110.47C240.748 111.643 241.42 112.482 242.574 112.482H243.936V110.671C243.936 109.361 245.067 108.207 246.414 108.207ZM246.166 102.915C245.754 102.915 245.42 102.577 245.42 102.162C245.424 101.742 245.754 101.405 246.166 101.405C246.574 101.405 246.912 101.746 246.912 102.162C246.912 102.577 246.578 102.915 246.166 102.915V102.915Z" fill="black"/>
<g clip-path="url(#clip0_129_195)">
<path d="M256.728 140.75C256.596 140.52 256.413 140.32 256.212 140.204L249.233 136.174C248.83 135.941 248.172 135.941 247.77 136.174L240.789 140.204C240.387 140.436 240.058 141.006 240.058 141.47V149.53C240.058 149.762 240.141 150.02 240.273 150.25C240.405 150.48 240.588 150.68 240.789 150.796L247.768 154.826C248.171 155.058 248.829 155.058 249.231 154.826L256.211 150.796C256.412 150.68 256.595 150.48 256.727 150.25C256.859 150.02 256.941 149.762 256.941 149.53V141.47C256.943 141.238 256.861 140.98 256.728 140.75V140.75ZM248.5 151.129C245.397 151.129 242.872 148.603 242.872 145.5C242.872 142.397 245.397 139.871 248.501 139.871C249.488 139.873 250.458 140.134 251.313 140.627C252.168 141.121 252.879 141.83 253.374 142.684L250.939 144.093C250.691 143.666 250.336 143.31 249.908 143.063C249.48 142.816 248.995 142.685 248.501 142.684C247.754 142.685 247.038 142.982 246.51 143.51C245.982 144.038 245.685 144.753 245.685 145.5C245.686 146.246 245.983 146.962 246.51 147.489C247.038 148.017 247.754 148.314 248.5 148.314C248.994 148.313 249.479 148.183 249.907 147.936C250.335 147.689 250.69 147.334 250.938 146.907L253.375 148.316C252.879 149.17 252.168 149.879 251.313 150.373C250.457 150.866 249.487 151.127 248.5 151.129V151.129ZM254.129 145.813H253.503V146.438H252.878V145.813H252.252V145.187H252.878V144.562H253.503V145.187H254.129V145.813ZM256.474 145.813H255.848V146.438H255.223V145.813H254.597V145.187H255.223V144.562H255.848V145.187H256.474V145.813Z" fill="#D8D4D4"/>
</g>
<g clip-path="url(#clip1_129_195)">
<path d="M257.871 182.268L257.061 181.767C257.055 181.693 257.049 181.621 257.041 181.549L257.735 180.899C257.769 180.867 257.795 180.828 257.809 180.783C257.823 180.739 257.826 180.692 257.817 180.647C257.808 180.601 257.787 180.559 257.757 180.523C257.727 180.488 257.688 180.461 257.645 180.445L256.754 180.111C256.734 180.041 256.714 179.97 256.692 179.901L257.249 179.128C257.276 179.091 257.293 179.047 257.298 179C257.304 178.954 257.297 178.908 257.279 178.865C257.262 178.822 257.233 178.784 257.197 178.755C257.16 178.727 257.117 178.708 257.071 178.7L256.128 178.546C256.095 178.482 256.061 178.418 256.027 178.355L256.423 177.486C256.442 177.444 256.45 177.397 256.447 177.351C256.443 177.304 256.427 177.26 256.401 177.221C256.376 177.183 256.34 177.151 256.299 177.13C256.258 177.109 256.211 177.099 256.165 177.1L255.207 177.134C255.163 177.079 255.118 177.025 255.073 176.971L255.291 176.037C255.302 175.992 255.3 175.945 255.288 175.9C255.275 175.855 255.251 175.815 255.218 175.782C255.185 175.749 255.145 175.725 255.1 175.712C255.055 175.7 255.008 175.699 254.963 175.709L254.029 175.929C253.976 175.884 253.921 175.839 253.866 175.795L253.9 174.837C253.902 174.79 253.892 174.744 253.871 174.702C253.85 174.661 253.818 174.625 253.78 174.599C253.741 174.573 253.696 174.557 253.65 174.554C253.603 174.55 253.557 174.558 253.514 174.577L252.645 174.975C252.582 174.941 252.518 174.907 252.454 174.874L252.3 173.931C252.293 173.885 252.274 173.842 252.245 173.805C252.216 173.769 252.178 173.741 252.135 173.723C252.093 173.705 252.046 173.698 252 173.704C251.954 173.709 251.91 173.726 251.872 173.753L251.098 174.309C251.029 174.287 250.959 174.267 250.888 174.247L250.554 173.356C250.538 173.313 250.511 173.274 250.476 173.244C250.44 173.214 250.398 173.193 250.352 173.184C250.307 173.175 250.26 173.178 250.216 173.192C250.171 173.206 250.132 173.232 250.1 173.265L249.45 173.96C249.378 173.952 249.305 173.946 249.232 173.94L248.732 173.129C248.708 173.09 248.673 173.057 248.633 173.034C248.592 173.012 248.547 173 248.5 173C248.454 173 248.408 173.012 248.367 173.034C248.327 173.057 248.293 173.09 248.268 173.129L247.767 173.939C247.693 173.945 247.621 173.952 247.549 173.959L246.899 173.265C246.867 173.231 246.828 173.206 246.783 173.191C246.739 173.177 246.692 173.174 246.647 173.183C246.601 173.193 246.559 173.213 246.523 173.243C246.488 173.273 246.461 173.312 246.445 173.355L246.111 174.246C246.04 174.266 245.97 174.286 245.901 174.308L245.128 173.752C245.09 173.724 245.046 173.707 245 173.702C244.954 173.697 244.907 173.703 244.864 173.721C244.821 173.739 244.784 173.767 244.755 173.804C244.726 173.84 244.707 173.883 244.7 173.929L244.546 174.872C244.482 174.906 244.418 174.939 244.354 174.974L243.486 174.579C243.443 174.56 243.397 174.552 243.35 174.555C243.304 174.559 243.259 174.575 243.22 174.601C243.182 174.627 243.15 174.663 243.129 174.704C243.108 174.746 243.098 174.792 243.1 174.839L243.134 175.797C243.079 175.841 243.023 175.885 242.97 175.931L242.037 175.709C241.992 175.699 241.945 175.7 241.9 175.712C241.855 175.725 241.815 175.749 241.782 175.782C241.749 175.815 241.725 175.855 241.712 175.9C241.7 175.945 241.699 175.992 241.709 176.037L241.929 176.971C241.883 177.025 241.839 177.08 241.795 177.134L240.837 177.101C240.791 177.099 240.745 177.11 240.703 177.131C240.662 177.152 240.627 177.183 240.601 177.222C240.575 177.26 240.559 177.305 240.556 177.351C240.552 177.397 240.56 177.444 240.579 177.486L240.975 178.355C240.94 178.418 240.907 178.482 240.874 178.546L239.931 178.7C239.885 178.708 239.842 178.727 239.805 178.755C239.769 178.784 239.741 178.822 239.723 178.865C239.705 178.908 239.698 178.954 239.704 179C239.709 179.047 239.726 179.091 239.753 179.128L240.31 179.901C240.288 179.97 240.268 180.041 240.247 180.111L239.357 180.445C239.313 180.461 239.275 180.488 239.245 180.524C239.215 180.559 239.194 180.602 239.185 180.647C239.176 180.693 239.179 180.74 239.193 180.784C239.207 180.828 239.232 180.868 239.266 180.9L239.961 181.549C239.953 181.621 239.947 181.694 239.94 181.767L239.129 182.268C239.09 182.293 239.057 182.327 239.034 182.367C239.012 182.408 239 182.454 239 182.5C239 182.547 239.012 182.592 239.034 182.633C239.057 182.673 239.09 182.708 239.129 182.732L239.939 183.233C239.945 183.308 239.952 183.379 239.959 183.451L239.265 184.101C239.231 184.132 239.206 184.172 239.191 184.216C239.177 184.261 239.174 184.308 239.183 184.353C239.193 184.399 239.213 184.441 239.243 184.476C239.273 184.512 239.312 184.539 239.355 184.555L240.246 184.889C240.266 184.959 240.286 185.029 240.308 185.099L239.752 185.872C239.724 185.91 239.707 185.954 239.702 186C239.697 186.046 239.703 186.093 239.721 186.135C239.739 186.178 239.767 186.216 239.804 186.245C239.84 186.274 239.883 186.293 239.929 186.3L240.873 186.454C240.906 186.518 240.939 186.582 240.974 186.645L240.579 187.514C240.56 187.557 240.552 187.603 240.556 187.649C240.559 187.696 240.575 187.74 240.601 187.779C240.626 187.818 240.661 187.85 240.703 187.871C240.744 187.892 240.79 187.902 240.837 187.9L241.796 187.866C241.839 187.921 241.884 187.975 241.929 188.029L241.709 188.963C241.699 189.008 241.7 189.055 241.712 189.1C241.725 189.145 241.749 189.185 241.782 189.218C241.815 189.251 241.855 189.275 241.9 189.288C241.945 189.3 241.992 189.302 242.037 189.291L242.971 189.071C243.025 189.116 243.079 189.161 243.134 189.205L243.1 190.163C243.099 190.21 243.109 190.256 243.13 190.297C243.151 190.338 243.183 190.374 243.221 190.4C243.26 190.425 243.304 190.441 243.351 190.445C243.397 190.448 243.444 190.44 243.486 190.421L244.355 190.025C244.418 190.06 244.482 190.093 244.546 190.126L244.7 191.069C244.708 191.115 244.727 191.158 244.755 191.195C244.784 191.231 244.822 191.26 244.865 191.278C244.908 191.295 244.954 191.302 245.001 191.296C245.047 191.291 245.091 191.274 245.128 191.247L245.901 190.69C245.97 190.712 246.041 190.732 246.111 190.752L246.445 191.643C246.461 191.686 246.488 191.725 246.524 191.755C246.559 191.785 246.602 191.805 246.647 191.814C246.693 191.824 246.74 191.821 246.784 191.807C246.828 191.793 246.868 191.767 246.9 191.734L247.549 191.039C247.621 191.047 247.694 191.053 247.767 191.059L248.269 191.869C248.293 191.909 248.327 191.941 248.368 191.964C248.408 191.986 248.454 191.998 248.5 191.998C248.547 191.998 248.593 191.986 248.633 191.964C248.674 191.941 248.708 191.909 248.732 191.869L249.234 191.059C249.308 191.053 249.38 191.047 249.452 191.039L250.101 191.734C250.133 191.767 250.173 191.793 250.217 191.807C250.261 191.821 250.308 191.824 250.354 191.814C250.399 191.805 250.442 191.785 250.477 191.755C250.512 191.725 250.54 191.686 250.556 191.643L250.89 190.752C250.96 190.732 251.03 190.712 251.1 190.69L251.872 191.247C251.91 191.274 251.954 191.291 252 191.296C252.046 191.302 252.093 191.295 252.136 191.278C252.179 191.26 252.216 191.231 252.245 191.195C252.274 191.158 252.293 191.115 252.3 191.069L252.454 190.126C252.518 190.093 252.582 190.06 252.646 190.025L253.515 190.421C253.557 190.44 253.603 190.448 253.65 190.445C253.696 190.441 253.741 190.425 253.779 190.4C253.818 190.374 253.849 190.338 253.87 190.297C253.892 190.256 253.902 190.21 253.9 190.163L253.866 189.205C253.921 189.161 253.976 189.116 254.03 189.071L254.963 189.291C255.008 189.302 255.055 189.3 255.1 189.288C255.145 189.275 255.185 189.251 255.218 189.218C255.251 189.185 255.275 189.145 255.288 189.1C255.3 189.055 255.302 189.008 255.291 188.963L255.071 188.029C255.116 187.976 255.161 187.921 255.205 187.866L256.163 187.9C256.21 187.902 256.256 187.892 256.297 187.871C256.339 187.849 256.374 187.818 256.4 187.779C256.425 187.74 256.441 187.696 256.445 187.649C256.448 187.603 256.44 187.557 256.421 187.514L256.025 186.645C256.06 186.582 256.093 186.518 256.126 186.454L257.069 186.3C257.115 186.293 257.158 186.274 257.195 186.245C257.231 186.216 257.26 186.178 257.277 186.135C257.295 186.093 257.302 186.046 257.297 186C257.291 185.954 257.274 185.91 257.247 185.872L256.69 185.099C256.712 185.029 256.732 184.959 256.752 184.889L257.643 184.555C257.687 184.539 257.725 184.512 257.755 184.476C257.785 184.441 257.806 184.399 257.815 184.353C257.824 184.308 257.821 184.261 257.807 184.216C257.793 184.172 257.768 184.132 257.734 184.101L257.039 183.451C257.047 183.379 257.053 183.306 257.059 183.233L257.869 182.732C257.909 182.708 257.941 182.673 257.964 182.633C257.986 182.592 257.998 182.547 257.998 182.5C257.998 182.454 257.986 182.408 257.964 182.367C257.941 182.327 257.909 182.293 257.869 182.268H257.871ZM252.267 187.058C252.134 187.029 251.994 187.055 251.879 187.129C251.764 187.204 251.683 187.321 251.654 187.455L251.371 188.778C250.459 189.191 249.468 189.403 248.467 189.398C247.465 189.393 246.477 189.173 245.568 188.751L245.285 187.427C245.271 187.361 245.244 187.299 245.206 187.243C245.167 187.187 245.118 187.14 245.062 187.103C245.005 187.066 244.941 187.041 244.875 187.028C244.808 187.016 244.74 187.017 244.674 187.031L243.505 187.282C243.288 187.058 243.086 186.82 242.901 186.569H248.585C248.649 186.569 248.693 186.558 248.693 186.498V184.487C248.693 184.429 248.649 184.416 248.585 184.416H246.922L246.924 183.142H248.723C248.886 183.142 249.601 183.189 249.828 184.102C249.899 184.382 250.057 185.294 250.164 185.586C250.272 185.913 250.706 186.568 251.17 186.568H254.104C253.907 186.831 253.692 187.081 253.46 187.314L252.267 187.058ZM253.224 188.338C253.224 188.45 253.191 188.559 253.129 188.652C253.066 188.745 252.978 188.818 252.875 188.86C252.772 188.903 252.658 188.915 252.549 188.893C252.439 188.871 252.338 188.818 252.259 188.739C252.18 188.66 252.126 188.559 252.104 188.45C252.082 188.34 252.093 188.226 252.135 188.123C252.178 188.02 252.25 187.931 252.343 187.869C252.435 187.806 252.545 187.773 252.656 187.773H252.673C252.82 187.777 252.96 187.838 253.062 187.944C253.165 188.049 253.222 188.191 253.222 188.338H253.224ZM244.851 188.313C244.851 188.425 244.818 188.534 244.756 188.627C244.693 188.72 244.605 188.792 244.502 188.835C244.398 188.878 244.285 188.889 244.175 188.867C244.065 188.845 243.965 188.791 243.886 188.712C243.807 188.633 243.753 188.533 243.731 188.423C243.709 188.313 243.72 188.2 243.763 188.096C243.806 187.993 243.878 187.905 243.971 187.842C244.064 187.78 244.173 187.747 244.285 187.747H244.302C244.449 187.752 244.588 187.814 244.69 187.919C244.792 188.025 244.849 188.166 244.849 188.313H244.851ZM241.582 181.689L242.8 181.147C242.862 181.12 242.918 181.081 242.965 181.032C243.011 180.983 243.048 180.925 243.072 180.862C243.096 180.798 243.108 180.731 243.106 180.663C243.105 180.596 243.09 180.529 243.062 180.467L242.811 179.902H243.796V184.346H241.807C241.562 183.483 241.485 182.581 241.582 181.689V181.689ZM241.164 180.351C241.164 180.277 241.178 180.203 241.207 180.135C241.235 180.066 241.277 180.004 241.329 179.951C241.382 179.899 241.444 179.857 241.513 179.828C241.581 179.8 241.655 179.785 241.729 179.785H241.746C241.857 179.788 241.965 179.824 242.056 179.888C242.147 179.952 242.217 180.042 242.257 180.145C242.298 180.249 242.306 180.362 242.283 180.47C242.259 180.579 242.204 180.678 242.125 180.756C242.045 180.833 241.944 180.886 241.835 180.906C241.726 180.927 241.613 180.915 241.51 180.872C241.408 180.828 241.32 180.756 241.259 180.663C241.198 180.571 241.165 180.462 241.165 180.351L241.164 180.351ZM246.922 181.26L246.924 179.949H249.271C249.393 179.949 250.127 180.089 250.127 180.64C250.127 181.096 249.564 181.26 249.1 181.26H246.922ZM253.807 184.382C253.443 184.424 253.041 184.229 252.99 184.007C252.776 182.802 252.419 182.545 251.856 182.1C252.556 181.657 253.283 181 253.283 180.124C253.283 179.177 252.634 178.58 252.192 178.287C251.57 177.879 250.883 177.796 250.698 177.796H243.317C244.337 176.656 245.705 175.884 247.209 175.6L248.08 176.513C248.127 176.562 248.182 176.601 248.244 176.629C248.306 176.656 248.373 176.671 248.44 176.672C248.508 176.674 248.575 176.662 248.638 176.637C248.701 176.613 248.759 176.576 248.807 176.529L249.782 175.601C250.775 175.787 251.715 176.187 252.537 176.773C253.36 177.359 254.045 178.117 254.546 178.994L253.878 180.5C253.823 180.625 253.821 180.767 253.87 180.894C253.919 181.021 254.016 181.124 254.141 181.18L255.424 181.749C255.464 182.15 255.469 182.554 255.439 182.957H254.724C254.653 182.957 254.624 183.004 254.624 183.073V183.4C254.623 184.17 254.189 184.34 253.807 184.382ZM247.906 175.234C247.907 175.085 247.966 174.941 248.072 174.836C248.178 174.73 248.321 174.67 248.471 174.67H248.487C248.599 174.673 248.706 174.709 248.797 174.773C248.888 174.837 248.958 174.926 248.999 175.03C249.039 175.134 249.048 175.247 249.025 175.356C249.001 175.464 248.946 175.564 248.866 175.641C248.786 175.719 248.685 175.771 248.576 175.791C248.467 175.812 248.354 175.799 248.251 175.756C248.149 175.713 248.061 175.64 248 175.547C247.939 175.454 247.906 175.346 247.906 175.234V175.234ZM255.211 180.941C255.137 180.941 255.063 180.927 254.995 180.898C254.926 180.87 254.864 180.828 254.811 180.776C254.759 180.723 254.717 180.661 254.688 180.592C254.66 180.524 254.645 180.45 254.645 180.376C254.645 180.302 254.66 180.228 254.688 180.16C254.717 180.091 254.759 180.029 254.811 179.976C254.864 179.924 254.926 179.882 254.995 179.853C255.063 179.825 255.137 179.81 255.211 179.81H255.227C255.377 179.813 255.52 179.874 255.625 179.982C255.729 180.089 255.787 180.234 255.785 180.384C255.782 180.534 255.721 180.677 255.613 180.782C255.506 180.886 255.361 180.944 255.211 180.941V180.941Z" fill="black"/>
</g>
<path d="M408 21.5L413 26.5L418 21.5H408Z" fill="black" fill-opacity="0.54"/>
<path d="M448 51L448 126.442L452 131.079L448 135.293L448 212" stroke="#128EE5"/>
<path d="M167 72L167 70.5L167 70.5L167 72ZM162 67L163.5 67L163.5 67L162 67ZM162 28.5L160.5 28.5L160.5 28.5L162 28.5ZM167 23.5L167 22L167 22L167 23.5ZM214.061 24.5607C214.646 23.9749 214.646 23.0251 214.061 22.4393L204.515 12.8934C203.929 12.3076 202.979 12.3076 202.393 12.8934C201.807 13.4792 201.807 14.4289 202.393 15.0147L210.879 23.5L202.393 31.9853C201.807 32.5711 201.807 33.5208 202.393 34.1066C202.979 34.6924 203.929 34.6924 204.515 34.1066L214.061 24.5607ZM234.5 70.5L167 70.5L167 73.5L234.5 73.5L234.5 70.5ZM163.5 67L163.5 28.5L160.5 28.5L160.5 67L163.5 67ZM167 25L213 25L213 22L167 22L167 25ZM163.5 28.5C163.5 26.567 165.067 25 167 25L167 22C163.41 22 160.5 24.9101 160.5 28.5L163.5 28.5ZM167 70.5C165.067 70.5 163.5 68.933 163.5 67L160.5 67C160.5 70.5898 163.41 73.5 167 73.5L167 70.5Z" fill="black"/>
<defs>
<filter id="filter0_d_129_195" x="216" y="40" width="224" height="182" filterUnits="userSpaceOnUse" color-interpolation-filters="sRGB">
<feFlood flood-opacity="0" result="BackgroundImageFix"/>
<feColorMatrix in="SourceAlpha" type="matrix" values="0 0 0 0 0 0 0 0 0 0 0 0 0 0 0 0 0 0 127 0" result="hardAlpha"/>
<feOffset dy="4"/>
<feGaussianBlur stdDeviation="4"/>
<feComposite in2="hardAlpha" operator="out"/>
<feColorMatrix type="matrix" values="0 0 0 0 0 0 0 0 0 0 0 0 0 0 0 0 0 0 0.1 0"/>
<feBlend mode="normal" in2="BackgroundImageFix" result="effect1_dropShadow_129_195"/>
<feBlend mode="normal" in="SourceGraphic" in2="effect1_dropShadow_129_195" result="shape"/>
</filter>
<clipPath id="clip0_129_195">
<rect width="19" height="19" fill="white" transform="translate(239 136)"/>
</clipPath>
<clipPath id="clip1_129_195">
<rect width="19" height="19" fill="white" transform="translate(239 173)"/>
</clipPath>
</defs>
</svg>
